<mxfile host="app.diagrams.net" agent="Mozilla/5.0 (Windows NT 10.0; Win64; x64) AppleWebKit/537.36 (KHTML, like Gecko) Chrome/130.0.0.0 Safari/537.36" version="24.8.6" pages="4">
  <diagram name="Page-1" id="74e2e168-ea6b-b213-b513-2b3c1d86103e">
    <mxGraphModel dx="1434" dy="738" grid="0" gridSize="10" guides="0" tooltips="1" connect="1" arrows="1" fold="1" page="1" pageScale="1" pageWidth="1100" pageHeight="850" background="#ffffff" math="0" shadow="0">
      <root>
        <mxCell id="0" />
        <mxCell id="1" parent="0" />
        <mxCell id="KbpwUN9nBIYEaWCEx_Nc-60" value="" style="edgeStyle=none;curved=1;rounded=0;orthogonalLoop=1;jettySize=auto;html=1;fontSize=12;startSize=8;endSize=8;" parent="1" edge="1">
          <mxGeometry relative="1" as="geometry">
            <mxPoint x="941.7000000000003" y="1859" as="sourcePoint" />
            <mxPoint x="942" y="1904" as="targetPoint" />
          </mxGeometry>
        </mxCell>
        <mxCell id="nFZiK4tMnYkpv-_QsDiX-21" value="&lt;font style=&quot;font-size: 30px&quot;&gt;基础运营平台外采系统对接流程&lt;/font&gt;" style="shape=table;childLayout=tableLayout;rowLines=0;columnLines=0;startSize=80;html=1;whiteSpace=wrap;collapsible=0;recursiveResize=0;expand=0;pointerEvents=0;fontStyle=1;align=center;flipH=1;flipV=0;fontSize=20;" parent="1" vertex="1">
          <mxGeometry x="380" y="262" width="1440" height="1949" as="geometry" />
        </mxCell>
        <mxCell id="nFZiK4tMnYkpv-_QsDiX-22" value="项目启动阶段" style="swimlane;horizontal=0;points=[[0,0.5],[1,0.5]];portConstraint=eastwest;startSize=40;html=1;whiteSpace=wrap;collapsible=0;recursiveResize=0;expand=0;pointerEvents=0;fontStyle=1;fillColor=#dae8fc;strokeColor=#6c8ebf;fontSize=20;gradientColor=#7ea6e0;" parent="nFZiK4tMnYkpv-_QsDiX-21" vertex="1">
          <mxGeometry y="80" width="1440" height="550" as="geometry" />
        </mxCell>
        <mxCell id="nFZiK4tMnYkpv-_QsDiX-23" value="业务需求方" style="swimlane;connectable=0;startSize=40;html=1;whiteSpace=wrap;collapsible=0;recursiveResize=0;expand=0;pointerEvents=0;fillColor=#fff2cc;strokeColor=#d6b656;fontSize=20;" parent="nFZiK4tMnYkpv-_QsDiX-22" vertex="1">
          <mxGeometry x="40" width="348" height="550" as="geometry">
            <mxRectangle width="348" height="550" as="alternateBounds" />
          </mxGeometry>
        </mxCell>
        <mxCell id="nFZiK4tMnYkpv-_QsDiX-191" style="edgeStyle=orthogonalEdgeStyle;rounded=1;orthogonalLoop=1;jettySize=auto;html=1;entryX=0.5;entryY=0;entryDx=0;entryDy=0;fontColor=#000000;" parent="nFZiK4tMnYkpv-_QsDiX-23" source="nFZiK4tMnYkpv-_QsDiX-48" target="nFZiK4tMnYkpv-_QsDiX-41" edge="1">
          <mxGeometry relative="1" as="geometry" />
        </mxCell>
        <mxCell id="nFZiK4tMnYkpv-_QsDiX-48" value="项目开始" style="strokeWidth=2;html=1;shape=mxgraph.flowchart.terminator;whiteSpace=wrap;fillColor=#60a917;strokeColor=#2D7600;fontColor=#ffffff;" parent="nFZiK4tMnYkpv-_QsDiX-23" vertex="1">
          <mxGeometry x="134" y="60" width="80" height="50" as="geometry" />
        </mxCell>
        <mxCell id="nFZiK4tMnYkpv-_QsDiX-41" value="项目启动会议" style="rounded=1;whiteSpace=wrap;html=1;absoluteArcSize=1;arcSize=14;strokeWidth=2;" parent="nFZiK4tMnYkpv-_QsDiX-23" vertex="1">
          <mxGeometry x="131.5" y="134" width="85" height="60" as="geometry" />
        </mxCell>
        <mxCell id="nFZiK4tMnYkpv-_QsDiX-82" value="业务体量确认" style="rounded=1;whiteSpace=wrap;html=1;absoluteArcSize=1;arcSize=14;strokeWidth=2;" parent="nFZiK4tMnYkpv-_QsDiX-23" vertex="1">
          <mxGeometry x="134" y="260" width="85" height="60" as="geometry" />
        </mxCell>
        <mxCell id="nFZiK4tMnYkpv-_QsDiX-99" value="预算申请" style="rhombus;whiteSpace=wrap;html=1;rounded=1;strokeWidth=2;arcSize=14;fillColor=#f0a30a;strokeColor=#BD7000;fontColor=#ffffff;" parent="nFZiK4tMnYkpv-_QsDiX-23" vertex="1">
          <mxGeometry x="139" y="450" width="80" height="80" as="geometry" />
        </mxCell>
        <mxCell id="nFZiK4tMnYkpv-_QsDiX-24" value="基础运营平台" style="swimlane;connectable=0;startSize=40;html=1;whiteSpace=wrap;collapsible=0;recursiveResize=0;expand=0;pointerEvents=0;fillColor=#d5e8d4;strokeColor=#82b366;fontSize=20;" parent="nFZiK4tMnYkpv-_QsDiX-22" vertex="1">
          <mxGeometry x="388" width="352" height="550" as="geometry">
            <mxRectangle width="352" height="550" as="alternateBounds" />
          </mxGeometry>
        </mxCell>
        <mxCell id="nFZiK4tMnYkpv-_QsDiX-86" value="确认" style="edgeStyle=orthogonalEdgeStyle;rounded=1;orthogonalLoop=1;jettySize=auto;html=1;fontSize=15;" parent="nFZiK4tMnYkpv-_QsDiX-24" source="nFZiK4tMnYkpv-_QsDiX-79" target="nFZiK4tMnYkpv-_QsDiX-85" edge="1">
          <mxGeometry relative="1" as="geometry" />
        </mxCell>
        <mxCell id="nFZiK4tMnYkpv-_QsDiX-75" value="沟通部署方案" style="rounded=1;whiteSpace=wrap;html=1;absoluteArcSize=1;arcSize=14;strokeWidth=2;" parent="nFZiK4tMnYkpv-_QsDiX-24" vertex="1">
          <mxGeometry x="132" y="134" width="85" height="60" as="geometry" />
        </mxCell>
        <mxCell id="nFZiK4tMnYkpv-_QsDiX-79" value="部署方案确认" style="rhombus;whiteSpace=wrap;html=1;rounded=1;strokeWidth=2;arcSize=14;fillColor=#f0a30a;strokeColor=#BD7000;fontColor=#ffffff;" parent="nFZiK4tMnYkpv-_QsDiX-24" vertex="1">
          <mxGeometry x="134.5" y="250" width="80" height="80" as="geometry" />
        </mxCell>
        <mxCell id="nFZiK4tMnYkpv-_QsDiX-85" value="毛估年度预算" style="whiteSpace=wrap;html=1;rounded=1;strokeWidth=2;arcSize=14;" parent="nFZiK4tMnYkpv-_QsDiX-24" vertex="1">
          <mxGeometry x="132" y="360" width="85" height="60" as="geometry" />
        </mxCell>
        <mxCell id="nK3T0smykum4zkoT3SmY-2" style="edgeStyle=orthogonalEdgeStyle;rounded=1;orthogonalLoop=1;jettySize=auto;html=1;fontSize=15;exitX=0;exitY=0.5;exitDx=0;exitDy=0;" parent="nFZiK4tMnYkpv-_QsDiX-24" source="nFZiK4tMnYkpv-_QsDiX-74" edge="1">
          <mxGeometry relative="1" as="geometry">
            <mxPoint x="172" y="130" as="targetPoint" />
            <mxPoint x="472" y="80" as="sourcePoint" />
          </mxGeometry>
        </mxCell>
        <mxCell id="nK3T0smykum4zkoT3SmY-5" style="edgeStyle=orthogonalEdgeStyle;rounded=1;orthogonalLoop=1;jettySize=auto;html=1;entryX=0.5;entryY=1;entryDx=0;entryDy=0;" parent="nFZiK4tMnYkpv-_QsDiX-24" source="nFZiK4tMnYkpv-_QsDiX-79" target="nFZiK4tMnYkpv-_QsDiX-75" edge="1">
          <mxGeometry relative="1" as="geometry">
            <mxPoint x="-88" y="220" as="sourcePoint" />
            <mxPoint x="176" y="220" as="targetPoint" />
          </mxGeometry>
        </mxCell>
        <mxCell id="nK3T0smykum4zkoT3SmY-7" value="&lt;font style=&quot;font-size: 14px;&quot;&gt;不通过&lt;/font&gt;" style="edgeLabel;html=1;align=center;verticalAlign=middle;resizable=0;points=[];" parent="nK3T0smykum4zkoT3SmY-5" vertex="1" connectable="0">
          <mxGeometry x="-0.1429" y="-1" relative="1" as="geometry">
            <mxPoint x="1" as="offset" />
          </mxGeometry>
        </mxCell>
        <mxCell id="nFZiK4tMnYkpv-_QsDiX-25" value="项目实施方" style="swimlane;connectable=0;startSize=40;html=1;whiteSpace=wrap;collapsible=0;recursiveResize=0;expand=0;pointerEvents=0;fillColor=#e1d5e7;strokeColor=#9673a6;fontSize=20;" parent="nFZiK4tMnYkpv-_QsDiX-22" vertex="1">
          <mxGeometry x="740" width="350" height="550" as="geometry">
            <mxRectangle width="350" height="550" as="alternateBounds" />
          </mxGeometry>
        </mxCell>
        <mxCell id="nFZiK4tMnYkpv-_QsDiX-74" value="系统架构及功能组件介绍" style="rounded=1;whiteSpace=wrap;html=1;absoluteArcSize=1;arcSize=14;strokeWidth=2;" parent="nFZiK4tMnYkpv-_QsDiX-25" vertex="1">
          <mxGeometry x="127.5" y="55" width="85" height="60" as="geometry" />
        </mxCell>
        <mxCell id="nFZiK4tMnYkpv-_QsDiX-105" value="系统架构调整" style="rounded=1;whiteSpace=wrap;html=1;absoluteArcSize=1;arcSize=14;strokeWidth=2;" parent="nFZiK4tMnYkpv-_QsDiX-25" vertex="1">
          <mxGeometry x="127.5" y="134" width="85" height="60" as="geometry" />
        </mxCell>
        <mxCell id="nFZiK4tMnYkpv-_QsDiX-35" value="交付物" style="swimlane;connectable=0;startSize=40;html=1;whiteSpace=wrap;collapsible=0;recursiveResize=0;expand=0;pointerEvents=0;fillColor=#f5f5f5;strokeColor=#666666;fontColor=#333333;fontSize=20;" parent="nFZiK4tMnYkpv-_QsDiX-22" vertex="1">
          <mxGeometry x="1090" width="350" height="550" as="geometry">
            <mxRectangle width="350" height="550" as="alternateBounds" />
          </mxGeometry>
        </mxCell>
        <mxCell id="nFZiK4tMnYkpv-_QsDiX-62" value="第三方系统所需资源清单" style="strokeWidth=2;html=1;shape=mxgraph.flowchart.document2;whiteSpace=wrap;size=0.25;fillColor=#e1d5e7;strokeColor=#9673a6;" parent="nFZiK4tMnYkpv-_QsDiX-35" vertex="1">
          <mxGeometry x="65" y="260" width="100" height="60" as="geometry" />
        </mxCell>
        <mxCell id="nFZiK4tMnYkpv-_QsDiX-63" value="第三方系统架构图" style="strokeWidth=2;html=1;shape=mxgraph.flowchart.document2;whiteSpace=wrap;size=0.25;fillColor=#e1d5e7;strokeColor=#9673a6;" parent="nFZiK4tMnYkpv-_QsDiX-35" vertex="1">
          <mxGeometry x="65" y="180" width="100" height="60" as="geometry" />
        </mxCell>
        <mxCell id="nFZiK4tMnYkpv-_QsDiX-103" value="年度预算申请表" style="strokeWidth=2;html=1;shape=mxgraph.flowchart.document2;whiteSpace=wrap;size=0.25;fillColor=#d5e8d4;strokeColor=#82b366;" parent="nFZiK4tMnYkpv-_QsDiX-35" vertex="1">
          <mxGeometry x="65" y="340" width="100" height="60" as="geometry" />
        </mxCell>
        <mxCell id="nFZiK4tMnYkpv-_QsDiX-118" value="项目排期表" style="strokeWidth=2;html=1;shape=mxgraph.flowchart.document2;whiteSpace=wrap;size=0.25;fillColor=#fff2cc;strokeColor=#d6b656;" parent="nFZiK4tMnYkpv-_QsDiX-35" vertex="1">
          <mxGeometry x="65" y="100" width="100" height="60" as="geometry" />
        </mxCell>
        <mxCell id="nFZiK4tMnYkpv-_QsDiX-109" value="可替换标准组件清单" style="strokeWidth=2;html=1;shape=mxgraph.flowchart.document2;whiteSpace=wrap;size=0.25;fillColor=#d5e8d4;strokeColor=#82b366;" parent="nFZiK4tMnYkpv-_QsDiX-35" vertex="1">
          <mxGeometry x="65" y="420" width="100" height="60" as="geometry" />
        </mxCell>
        <mxCell id="nFZiK4tMnYkpv-_QsDiX-143" value="生产环境资源清单" style="strokeWidth=2;html=1;shape=mxgraph.flowchart.document2;whiteSpace=wrap;size=0.25;fillColor=#d5e8d4;strokeColor=#82b366;" parent="nFZiK4tMnYkpv-_QsDiX-35" vertex="1">
          <mxGeometry x="185" y="590" width="100" height="60" as="geometry" />
        </mxCell>
        <mxCell id="nFZiK4tMnYkpv-_QsDiX-140" value="测试环境资源清单" style="strokeWidth=2;html=1;shape=mxgraph.flowchart.document2;whiteSpace=wrap;size=0.25;fillColor=#d5e8d4;strokeColor=#82b366;" parent="nFZiK4tMnYkpv-_QsDiX-35" vertex="1">
          <mxGeometry x="65" y="590" width="100" height="60" as="geometry" />
        </mxCell>
        <mxCell id="nFZiK4tMnYkpv-_QsDiX-141" value="VPN及堡垒机账号" style="strokeWidth=2;html=1;shape=mxgraph.flowchart.document2;whiteSpace=wrap;size=0.25;fillColor=#d5e8d4;strokeColor=#82b366;" parent="nFZiK4tMnYkpv-_QsDiX-35" vertex="1">
          <mxGeometry x="65" y="660" width="100" height="60" as="geometry" />
        </mxCell>
        <mxCell id="nFZiK4tMnYkpv-_QsDiX-106" style="edgeStyle=orthogonalEdgeStyle;rounded=1;orthogonalLoop=1;jettySize=auto;html=1;entryX=0;entryY=0.5;entryDx=0;entryDy=0;" parent="nFZiK4tMnYkpv-_QsDiX-22" source="nFZiK4tMnYkpv-_QsDiX-75" target="nFZiK4tMnYkpv-_QsDiX-105" edge="1">
          <mxGeometry relative="1" as="geometry" />
        </mxCell>
        <mxCell id="nFZiK4tMnYkpv-_QsDiX-107" style="edgeStyle=orthogonalEdgeStyle;rounded=1;orthogonalLoop=1;jettySize=auto;html=1;exitX=0.5;exitY=1;exitDx=0;exitDy=0;entryX=1;entryY=0.5;entryDx=0;entryDy=0;" parent="nFZiK4tMnYkpv-_QsDiX-22" source="nFZiK4tMnYkpv-_QsDiX-105" target="nFZiK4tMnYkpv-_QsDiX-79" edge="1">
          <mxGeometry relative="1" as="geometry" />
        </mxCell>
        <mxCell id="nFZiK4tMnYkpv-_QsDiX-110" style="edgeStyle=orthogonalEdgeStyle;rounded=1;orthogonalLoop=1;jettySize=auto;html=1;entryX=0;entryY=0.5;entryDx=0;entryDy=0;" parent="nFZiK4tMnYkpv-_QsDiX-22" source="nFZiK4tMnYkpv-_QsDiX-82" target="nFZiK4tMnYkpv-_QsDiX-79" edge="1">
          <mxGeometry relative="1" as="geometry" />
        </mxCell>
        <mxCell id="nFZiK4tMnYkpv-_QsDiX-100" value="" style="edgeStyle=orthogonalEdgeStyle;rounded=1;orthogonalLoop=1;jettySize=auto;html=1;" parent="nFZiK4tMnYkpv-_QsDiX-22" source="nFZiK4tMnYkpv-_QsDiX-85" target="nFZiK4tMnYkpv-_QsDiX-99" edge="1">
          <mxGeometry relative="1" as="geometry" />
        </mxCell>
        <mxCell id="LwplRj9utpd_hrLKcr8W-1" style="edgeStyle=orthogonalEdgeStyle;rounded=1;orthogonalLoop=1;jettySize=auto;html=1;fontSize=15;entryX=0;entryY=0.5;entryDx=0;entryDy=0;" parent="nFZiK4tMnYkpv-_QsDiX-22" source="nFZiK4tMnYkpv-_QsDiX-41" target="nFZiK4tMnYkpv-_QsDiX-75" edge="1">
          <mxGeometry relative="1" as="geometry">
            <mxPoint x="520" y="172" as="targetPoint" />
          </mxGeometry>
        </mxCell>
        <mxCell id="nFZiK4tMnYkpv-_QsDiX-26" value="系统部署阶段" style="swimlane;horizontal=0;points=[[0,0.5],[1,0.5]];portConstraint=eastwest;startSize=40;html=1;whiteSpace=wrap;collapsible=0;recursiveResize=0;expand=0;pointerEvents=0;fillColor=#dae8fc;strokeColor=#6c8ebf;fontSize=20;gradientColor=#7ea6e0;" parent="nFZiK4tMnYkpv-_QsDiX-21" vertex="1">
          <mxGeometry y="630" width="1440" height="440" as="geometry" />
        </mxCell>
        <mxCell id="nFZiK4tMnYkpv-_QsDiX-27" value="" style="swimlane;connectable=0;startSize=0;html=1;whiteSpace=wrap;collapsible=0;recursiveResize=0;expand=0;pointerEvents=0;fillColor=#fff2cc;strokeColor=#d6b656;" parent="nFZiK4tMnYkpv-_QsDiX-26" vertex="1">
          <mxGeometry x="40" width="348" height="440" as="geometry">
            <mxRectangle width="348" height="440" as="alternateBounds" />
          </mxGeometry>
        </mxCell>
        <mxCell id="nFZiK4tMnYkpv-_QsDiX-202" value="&lt;font color=&quot;#000000&quot;&gt;功能验证&lt;/font&gt;" style="whiteSpace=wrap;html=1;rounded=1;fontColor=#ffffff;strokeWidth=2;arcSize=14;fillColor=#FFFFFF;" parent="nFZiK4tMnYkpv-_QsDiX-27" vertex="1">
          <mxGeometry x="131.5" y="137" width="85" height="60" as="geometry" />
        </mxCell>
        <mxCell id="nFZiK4tMnYkpv-_QsDiX-28" value="" style="swimlane;connectable=0;startSize=0;html=1;whiteSpace=wrap;collapsible=0;recursiveResize=0;expand=0;pointerEvents=0;fillColor=#d5e8d4;strokeColor=#82b366;" parent="nFZiK4tMnYkpv-_QsDiX-26" vertex="1">
          <mxGeometry x="388" width="352" height="440" as="geometry">
            <mxRectangle width="352" height="440" as="alternateBounds" />
          </mxGeometry>
        </mxCell>
        <mxCell id="nFZiK4tMnYkpv-_QsDiX-120" value="&lt;font color=&quot;#000000&quot;&gt;测试环境资源交付&lt;/font&gt;" style="whiteSpace=wrap;html=1;rounded=1;fontColor=#ffffff;strokeWidth=2;arcSize=14;fillColor=#FFFFFF;" parent="nFZiK4tMnYkpv-_QsDiX-28" vertex="1">
          <mxGeometry x="132" y="28" width="85" height="60" as="geometry" />
        </mxCell>
        <mxCell id="KbpwUN9nBIYEaWCEx_Nc-3" style="edgeStyle=orthogonalEdgeStyle;rounded=1;orthogonalLoop=1;jettySize=auto;html=1;fontSize=15;" parent="nFZiK4tMnYkpv-_QsDiX-28" edge="1">
          <mxGeometry relative="1" as="geometry">
            <mxPoint x="481.5" y="59" as="targetPoint" />
            <mxPoint x="218.5" y="59" as="sourcePoint" />
          </mxGeometry>
        </mxCell>
        <mxCell id="KbpwUN9nBIYEaWCEx_Nc-7" value="&lt;font color=&quot;#000000&quot;&gt;安全漏扫&lt;br&gt;准入评估&lt;br&gt;&lt;/font&gt;" style="whiteSpace=wrap;html=1;rounded=1;fontColor=#ffffff;strokeWidth=2;arcSize=14;fillColor=#FFFFFF;" parent="nFZiK4tMnYkpv-_QsDiX-28" vertex="1">
          <mxGeometry x="133.5" y="179" width="85" height="60" as="geometry" />
        </mxCell>
        <mxCell id="KbpwUN9nBIYEaWCEx_Nc-9" style="edgeStyle=orthogonalEdgeStyle;rounded=1;orthogonalLoop=1;jettySize=auto;html=1;entryX=1;entryY=0.5;entryDx=0;entryDy=0;fontColor=#000000;exitX=0.021;exitY=0.529;exitDx=0;exitDy=0;exitPerimeter=0;" parent="nFZiK4tMnYkpv-_QsDiX-28" source="nFZiK4tMnYkpv-_QsDiX-131" edge="1">
          <mxGeometry relative="1" as="geometry">
            <mxPoint x="482" y="167" as="sourcePoint" />
            <mxPoint x="218.5" y="208" as="targetPoint" />
            <Array as="points">
              <mxPoint x="482" y="167" />
              <mxPoint x="350" y="167" />
              <mxPoint x="350" y="208" />
            </Array>
          </mxGeometry>
        </mxCell>
        <mxCell id="KbpwUN9nBIYEaWCEx_Nc-25" style="edgeStyle=orthogonalEdgeStyle;rounded=1;orthogonalLoop=1;jettySize=auto;html=1;entryX=0.101;entryY=-0.048;entryDx=0;entryDy=0;entryPerimeter=0;fontColor=#000000;" parent="nFZiK4tMnYkpv-_QsDiX-28" edge="1">
          <mxGeometry relative="1" as="geometry">
            <mxPoint x="176" y="240" as="sourcePoint" />
            <mxPoint x="175.5" y="313" as="targetPoint" />
          </mxGeometry>
        </mxCell>
        <mxCell id="KbpwUN9nBIYEaWCEx_Nc-32" value="" style="edgeStyle=none;curved=1;rounded=0;orthogonalLoop=1;jettySize=auto;html=1;fontSize=12;startSize=8;endSize=8;entryX=0.104;entryY=1;entryDx=0;entryDy=0;entryPerimeter=0;" parent="nFZiK4tMnYkpv-_QsDiX-28" edge="1">
          <mxGeometry relative="1" as="geometry">
            <mxPoint x="175.5" y="464" as="sourcePoint" />
            <mxPoint x="176.5" y="373" as="targetPoint" />
          </mxGeometry>
        </mxCell>
        <mxCell id="KbpwUN9nBIYEaWCEx_Nc-33" value="否" style="edgeLabel;html=1;align=center;verticalAlign=middle;resizable=0;points=[];fontSize=16;" parent="KbpwUN9nBIYEaWCEx_Nc-32" vertex="1" connectable="0">
          <mxGeometry x="0.1019" y="2" relative="1" as="geometry">
            <mxPoint as="offset" />
          </mxGeometry>
        </mxCell>
        <mxCell id="nFZiK4tMnYkpv-_QsDiX-29" value="" style="swimlane;connectable=0;startSize=0;html=1;whiteSpace=wrap;collapsible=0;recursiveResize=0;expand=0;pointerEvents=0;fillColor=#e1d5e7;strokeColor=#9673a6;labelBorderColor=default;" parent="nFZiK4tMnYkpv-_QsDiX-26" vertex="1">
          <mxGeometry x="740" width="350" height="440" as="geometry">
            <mxRectangle width="350" height="440" as="alternateBounds" />
          </mxGeometry>
        </mxCell>
        <mxCell id="nFZiK4tMnYkpv-_QsDiX-132" value="" style="edgeStyle=orthogonalEdgeStyle;rounded=1;orthogonalLoop=1;jettySize=auto;html=1;" parent="nFZiK4tMnYkpv-_QsDiX-29" source="nFZiK4tMnYkpv-_QsDiX-124" target="nFZiK4tMnYkpv-_QsDiX-131" edge="1">
          <mxGeometry relative="1" as="geometry" />
        </mxCell>
        <mxCell id="nK3T0smykum4zkoT3SmY-24" value="需求开发和&lt;br&gt;验证" style="edgeLabel;html=1;align=center;verticalAlign=middle;resizable=0;points=[];" parent="nFZiK4tMnYkpv-_QsDiX-132" vertex="1" connectable="0">
          <mxGeometry x="-0.15" y="-3" relative="1" as="geometry">
            <mxPoint as="offset" />
          </mxGeometry>
        </mxCell>
        <mxCell id="nFZiK4tMnYkpv-_QsDiX-131" value="&lt;font color=&quot;#000000&quot;&gt;测试环境交付&lt;/font&gt;" style="whiteSpace=wrap;html=1;rounded=1;fontColor=#ffffff;strokeWidth=2;arcSize=14;fillColor=#FFFFFF;" parent="nFZiK4tMnYkpv-_QsDiX-29" vertex="1">
          <mxGeometry x="132.5" y="135" width="85" height="60" as="geometry" />
        </mxCell>
        <mxCell id="nFZiK4tMnYkpv-_QsDiX-124" value="&lt;font color=&quot;#000000&quot;&gt;测试环境部署&lt;/font&gt;" style="whiteSpace=wrap;html=1;rounded=1;fontColor=#ffffff;strokeWidth=2;arcSize=14;fillColor=#FFFFFF;" parent="nFZiK4tMnYkpv-_QsDiX-29" vertex="1">
          <mxGeometry x="132.5" y="28" width="85" height="60" as="geometry" />
        </mxCell>
        <mxCell id="KbpwUN9nBIYEaWCEx_Nc-28" style="edgeStyle=orthogonalEdgeStyle;rounded=1;orthogonalLoop=1;jettySize=auto;html=1;entryX=0.5;entryY=1;entryDx=0;entryDy=0;exitX=0.5;exitY=0;exitDx=0;exitDy=0;" parent="nFZiK4tMnYkpv-_QsDiX-29" source="nFZiK4tMnYkpv-_QsDiX-218" edge="1">
          <mxGeometry relative="1" as="geometry">
            <mxPoint x="174.70999999999998" y="251" as="sourcePoint" />
            <mxPoint x="174.70999999999998" y="195" as="targetPoint" />
          </mxGeometry>
        </mxCell>
        <mxCell id="KbpwUN9nBIYEaWCEx_Nc-29" value="&lt;font style=&quot;font-size: 14px;&quot;&gt;问题修复&lt;/font&gt;" style="edgeLabel;html=1;align=center;verticalAlign=middle;resizable=0;points=[];" parent="KbpwUN9nBIYEaWCEx_Nc-28" vertex="1" connectable="0">
          <mxGeometry x="-0.1429" y="-1" relative="1" as="geometry">
            <mxPoint x="1" as="offset" />
          </mxGeometry>
        </mxCell>
        <mxCell id="nFZiK4tMnYkpv-_QsDiX-36" style="swimlane;connectable=0;startSize=0;html=1;whiteSpace=wrap;collapsible=0;recursiveResize=0;expand=0;pointerEvents=0;fillColor=#f5f5f5;strokeColor=#666666;fontColor=#333333;" parent="nFZiK4tMnYkpv-_QsDiX-26" vertex="1">
          <mxGeometry x="1090" width="350" height="440" as="geometry">
            <mxRectangle width="350" height="440" as="alternateBounds" />
          </mxGeometry>
        </mxCell>
        <mxCell id="nFZiK4tMnYkpv-_QsDiX-248" value="项目周会会议纪要" style="strokeWidth=2;html=1;shape=mxgraph.flowchart.document2;whiteSpace=wrap;size=0.25;fillColor=#fff2cc;strokeColor=#d6b656;" parent="nFZiK4tMnYkpv-_QsDiX-36" vertex="1">
          <mxGeometry x="65" y="293" width="100" height="60" as="geometry" />
        </mxCell>
        <mxCell id="nFZiK4tMnYkpv-_QsDiX-142" value="第三方系统接口文档" style="strokeWidth=2;html=1;shape=mxgraph.flowchart.document2;whiteSpace=wrap;size=0.25;fillColor=#e1d5e7;strokeColor=#9673a6;" parent="nFZiK4tMnYkpv-_QsDiX-36" vertex="1">
          <mxGeometry x="65" y="198" width="100" height="60" as="geometry" />
        </mxCell>
        <mxCell id="nFZiK4tMnYkpv-_QsDiX-151" value="第三方系统部署手册" style="strokeWidth=2;html=1;shape=mxgraph.flowchart.document2;whiteSpace=wrap;size=0.25;fillColor=#e1d5e7;strokeColor=#9673a6;" parent="nFZiK4tMnYkpv-_QsDiX-36" vertex="1">
          <mxGeometry x="185" y="198" width="100" height="60" as="geometry" />
        </mxCell>
        <mxCell id="nFZiK4tMnYkpv-_QsDiX-250" value="第三方系统性能测试报告" style="strokeWidth=2;html=1;shape=mxgraph.flowchart.document2;whiteSpace=wrap;size=0.25;fillColor=#e1d5e7;strokeColor=#9673a6;" parent="nFZiK4tMnYkpv-_QsDiX-36" vertex="1">
          <mxGeometry x="185" y="480" width="100" height="60" as="geometry" />
        </mxCell>
        <mxCell id="KbpwUN9nBIYEaWCEx_Nc-18" style="edgeStyle=orthogonalEdgeStyle;rounded=1;orthogonalLoop=1;jettySize=auto;html=1;fontSize=15;entryX=1;entryY=0.5;entryDx=0;entryDy=0;exitX=0;exitY=0.5;exitDx=0;exitDy=0;" parent="nFZiK4tMnYkpv-_QsDiX-26" source="nFZiK4tMnYkpv-_QsDiX-131" target="nFZiK4tMnYkpv-_QsDiX-202" edge="1">
          <mxGeometry relative="1" as="geometry">
            <mxPoint x="673" y="163" as="targetPoint" />
            <mxPoint x="410" y="163" as="sourcePoint" />
            <Array as="points">
              <mxPoint x="873" y="167" />
            </Array>
          </mxGeometry>
        </mxCell>
        <mxCell id="nFZiK4tMnYkpv-_QsDiX-30" value="系统上线试运行阶段" style="swimlane;horizontal=0;points=[[0,0.5],[1,0.5]];portConstraint=eastwest;startSize=40;html=1;whiteSpace=wrap;collapsible=0;recursiveResize=0;expand=0;pointerEvents=0;fillColor=#dae8fc;strokeColor=#6c8ebf;fontSize=20;gradientColor=#7ea6e0;" parent="nFZiK4tMnYkpv-_QsDiX-21" vertex="1">
          <mxGeometry y="1070" width="1440" height="439" as="geometry" />
        </mxCell>
        <mxCell id="nFZiK4tMnYkpv-_QsDiX-31" value="" style="swimlane;connectable=0;startSize=0;html=1;whiteSpace=wrap;collapsible=0;recursiveResize=0;expand=0;pointerEvents=0;fillColor=#fff2cc;strokeColor=#d6b656;" parent="nFZiK4tMnYkpv-_QsDiX-30" vertex="1">
          <mxGeometry x="40" width="348" height="439" as="geometry">
            <mxRectangle width="348" height="439" as="alternateBounds" />
          </mxGeometry>
        </mxCell>
        <mxCell id="nFZiK4tMnYkpv-_QsDiX-226" value="&lt;font style=&quot;font-size: 9px&quot;&gt;功能是否满足需求&lt;/font&gt;" style="rhombus;whiteSpace=wrap;html=1;rounded=1;strokeWidth=2;fillColor=#f0a30a;arcSize=14;strokeColor=#BD7000;fontColor=#ffffff;" parent="nFZiK4tMnYkpv-_QsDiX-31" vertex="1">
          <mxGeometry x="134" y="24" width="80" height="80" as="geometry" />
        </mxCell>
        <mxCell id="KbpwUN9nBIYEaWCEx_Nc-51" value="" style="edgeStyle=none;curved=1;rounded=0;orthogonalLoop=1;jettySize=auto;html=1;fontSize=12;startSize=8;endSize=8;" parent="nFZiK4tMnYkpv-_QsDiX-31" edge="1">
          <mxGeometry relative="1" as="geometry">
            <mxPoint x="163.5" y="412" as="sourcePoint" />
            <mxPoint x="163.5" y="473" as="targetPoint" />
          </mxGeometry>
        </mxCell>
        <mxCell id="nFZiK4tMnYkpv-_QsDiX-32" value="" style="swimlane;connectable=0;startSize=0;html=1;whiteSpace=wrap;collapsible=0;recursiveResize=0;expand=0;pointerEvents=0;fillColor=#d5e8d4;strokeColor=#82b366;" parent="nFZiK4tMnYkpv-_QsDiX-30" vertex="1">
          <mxGeometry x="388" width="352" height="439" as="geometry">
            <mxRectangle width="352" height="439" as="alternateBounds" />
          </mxGeometry>
        </mxCell>
        <mxCell id="nFZiK4tMnYkpv-_QsDiX-207" value="&lt;font color=&quot;#000000&quot;&gt;问题收集与反馈&lt;/font&gt;" style="whiteSpace=wrap;html=1;rounded=1;fontColor=#ffffff;strokeWidth=2;arcSize=14;fillColor=#FFFFFF;" parent="nFZiK4tMnYkpv-_QsDiX-32" vertex="1">
          <mxGeometry x="-220" y="-127" width="453" height="60" as="geometry" />
        </mxCell>
        <mxCell id="nFZiK4tMnYkpv-_QsDiX-175" value="&lt;font style=&quot;font-size: 9px&quot;&gt;是否具备上线条件&lt;/font&gt;" style="rhombus;whiteSpace=wrap;html=1;rounded=1;strokeWidth=2;fillColor=#f0a30a;arcSize=14;strokeColor=#BD7000;fontColor=#ffffff;" parent="nFZiK4tMnYkpv-_QsDiX-32" vertex="1">
          <mxGeometry x="136" y="24" width="80" height="80" as="geometry" />
        </mxCell>
        <mxCell id="nFZiK4tMnYkpv-_QsDiX-166" value="生产环境资源交付" style="whiteSpace=wrap;html=1;rounded=1;fontColor=#000000;strokeWidth=2;arcSize=14;fillColor=#FFFFFF;" parent="nFZiK4tMnYkpv-_QsDiX-32" vertex="1">
          <mxGeometry x="133.5" y="149" width="85" height="60" as="geometry" />
        </mxCell>
        <mxCell id="KbpwUN9nBIYEaWCEx_Nc-35" style="edgeStyle=orthogonalEdgeStyle;rounded=1;orthogonalLoop=1;jettySize=auto;html=1;entryX=0.5;entryY=0;entryDx=0;entryDy=0;fontColor=#000000;" parent="nFZiK4tMnYkpv-_QsDiX-32" target="nFZiK4tMnYkpv-_QsDiX-166" edge="1">
          <mxGeometry relative="1" as="geometry">
            <mxPoint x="175.66000000000008" y="104" as="sourcePoint" />
            <mxPoint x="175.66000000000008" y="128" as="targetPoint" />
          </mxGeometry>
        </mxCell>
        <mxCell id="KbpwUN9nBIYEaWCEx_Nc-36" value="是" style="edgeLabel;html=1;align=center;verticalAlign=middle;resizable=0;points=[];fontSize=16;" parent="KbpwUN9nBIYEaWCEx_Nc-35" vertex="1" connectable="0">
          <mxGeometry x="-0.182" y="-3" relative="1" as="geometry">
            <mxPoint x="2" y="1" as="offset" />
          </mxGeometry>
        </mxCell>
        <mxCell id="KbpwUN9nBIYEaWCEx_Nc-37" style="edgeStyle=orthogonalEdgeStyle;rounded=1;orthogonalLoop=1;jettySize=auto;html=1;entryX=0;entryY=0.5;entryDx=0;entryDy=0;" parent="nFZiK4tMnYkpv-_QsDiX-32" target="nFZiK4tMnYkpv-_QsDiX-146" edge="1">
          <mxGeometry relative="1" as="geometry">
            <mxPoint x="218.5" y="178.5" as="sourcePoint" />
            <mxPoint x="482.5" y="178.5" as="targetPoint" />
          </mxGeometry>
        </mxCell>
        <mxCell id="nFZiK4tMnYkpv-_QsDiX-239" value="&lt;font color=&quot;#000000&quot;&gt;上线试运行&lt;/font&gt;" style="whiteSpace=wrap;html=1;rounded=1;fontColor=#ffffff;strokeWidth=2;arcSize=14;fillColor=#FFFFFF;" parent="nFZiK4tMnYkpv-_QsDiX-32" vertex="1">
          <mxGeometry x="-220" y="257" width="790" height="60" as="geometry" />
        </mxCell>
        <mxCell id="nFZiK4tMnYkpv-_QsDiX-272" value="&lt;font color=&quot;#000000&quot;&gt;项目验收（&lt;/font&gt;&lt;span style=&quot;color: rgb(0, 0, 0);&quot;&gt;业务确认、&lt;/span&gt;&lt;font color=&quot;#000000&quot;&gt;SRE确认，安全团队确认，实施方确认）&lt;/font&gt;" style="whiteSpace=wrap;html=1;rounded=1;fontColor=#ffffff;strokeWidth=2;arcSize=14;fillColor=#FFFFFF;" parent="nFZiK4tMnYkpv-_QsDiX-32" vertex="1">
          <mxGeometry x="-218.5" y="352" width="786.5" height="60" as="geometry" />
        </mxCell>
        <mxCell id="nFZiK4tMnYkpv-_QsDiX-275" style="edgeStyle=orthogonalEdgeStyle;rounded=1;orthogonalLoop=1;jettySize=auto;html=1;entryX=0.5;entryY=0;entryDx=0;entryDy=0;fontSize=15;fontColor=#000000;" parent="nFZiK4tMnYkpv-_QsDiX-32" source="nFZiK4tMnYkpv-_QsDiX-239" target="nFZiK4tMnYkpv-_QsDiX-272" edge="1">
          <mxGeometry relative="1" as="geometry" />
        </mxCell>
        <mxCell id="nFZiK4tMnYkpv-_QsDiX-33" value="" style="swimlane;connectable=0;startSize=0;html=1;whiteSpace=wrap;collapsible=0;recursiveResize=0;expand=0;pointerEvents=0;fillColor=#e1d5e7;strokeColor=#9673a6;" parent="nFZiK4tMnYkpv-_QsDiX-30" vertex="1">
          <mxGeometry x="740" width="350" height="439" as="geometry">
            <mxRectangle width="350" height="439" as="alternateBounds" />
          </mxGeometry>
        </mxCell>
        <mxCell id="nFZiK4tMnYkpv-_QsDiX-218" value="&lt;font color=&quot;#000000&quot;&gt;问题整改&lt;/font&gt;" style="whiteSpace=wrap;html=1;rounded=1;fontColor=#ffffff;strokeWidth=2;arcSize=14;fillColor=#FFFFFF;" parent="nFZiK4tMnYkpv-_QsDiX-33" vertex="1">
          <mxGeometry x="132.5" y="-127" width="85" height="57" as="geometry" />
        </mxCell>
        <mxCell id="nFZiK4tMnYkpv-_QsDiX-146" value="&lt;font color=&quot;#000000&quot;&gt;生产环境部署&lt;/font&gt;" style="whiteSpace=wrap;html=1;rounded=1;fontColor=#ffffff;strokeWidth=2;arcSize=14;fillColor=#FFFFFF;" parent="nFZiK4tMnYkpv-_QsDiX-33" vertex="1">
          <mxGeometry x="140" y="28" width="85" height="60" as="geometry" />
        </mxCell>
        <mxCell id="nFZiK4tMnYkpv-_QsDiX-152" value="&lt;font color=&quot;#000000&quot;&gt;生产环境交付&lt;/font&gt;" style="whiteSpace=wrap;html=1;rounded=1;fontColor=#ffffff;strokeWidth=2;arcSize=14;fillColor=#FFFFFF;" parent="nFZiK4tMnYkpv-_QsDiX-33" vertex="1">
          <mxGeometry x="140" y="149" width="85" height="60" as="geometry" />
        </mxCell>
        <mxCell id="nFZiK4tMnYkpv-_QsDiX-153" value="" style="edgeStyle=orthogonalEdgeStyle;rounded=1;orthogonalLoop=1;jettySize=auto;html=1;" parent="nFZiK4tMnYkpv-_QsDiX-33" source="nFZiK4tMnYkpv-_QsDiX-146" target="nFZiK4tMnYkpv-_QsDiX-152" edge="1">
          <mxGeometry relative="1" as="geometry" />
        </mxCell>
        <mxCell id="KbpwUN9nBIYEaWCEx_Nc-38" value="初始化数据收集" style="edgeLabel;html=1;align=center;verticalAlign=middle;resizable=0;points=[];fontSize=16;" parent="nFZiK4tMnYkpv-_QsDiX-153" vertex="1" connectable="0">
          <mxGeometry x="-0.1515" y="2" relative="1" as="geometry">
            <mxPoint as="offset" />
          </mxGeometry>
        </mxCell>
        <mxCell id="nFZiK4tMnYkpv-_QsDiX-37" style="swimlane;connectable=0;startSize=0;html=1;whiteSpace=wrap;collapsible=0;recursiveResize=0;expand=0;pointerEvents=0;fillColor=#f5f5f5;strokeColor=#666666;fontColor=#333333;" parent="nFZiK4tMnYkpv-_QsDiX-30" vertex="1">
          <mxGeometry x="1090" width="350" height="439" as="geometry">
            <mxRectangle width="350" height="439" as="alternateBounds" />
          </mxGeometry>
        </mxCell>
        <mxCell id="nFZiK4tMnYkpv-_QsDiX-249" value="第三方系统日志规范说明" style="strokeWidth=2;html=1;shape=mxgraph.flowchart.document2;whiteSpace=wrap;size=0.25;fillColor=#e1d5e7;strokeColor=#9673a6;" parent="nFZiK4tMnYkpv-_QsDiX-37" vertex="1">
          <mxGeometry x="65" y="39" width="100" height="60" as="geometry" />
        </mxCell>
        <mxCell id="nFZiK4tMnYkpv-_QsDiX-251" value="第三方系统组件监控方案" style="strokeWidth=2;html=1;shape=mxgraph.flowchart.document2;whiteSpace=wrap;size=0.25;fillColor=#e1d5e7;strokeColor=#9673a6;" parent="nFZiK4tMnYkpv-_QsDiX-37" vertex="1">
          <mxGeometry x="65" y="109" width="100" height="60" as="geometry" />
        </mxCell>
        <mxCell id="nFZiK4tMnYkpv-_QsDiX-149" value="生产环境安全问题清单" style="strokeWidth=2;html=1;shape=mxgraph.flowchart.document2;whiteSpace=wrap;size=0.25;fillColor=#d5e8d4;strokeColor=#82b366;" parent="nFZiK4tMnYkpv-_QsDiX-37" vertex="1">
          <mxGeometry x="65" y="209" width="100" height="60" as="geometry" />
        </mxCell>
        <mxCell id="nFZiK4tMnYkpv-_QsDiX-150" value="生产环境组件监控Dashboard" style="strokeWidth=2;html=1;shape=mxgraph.flowchart.document2;whiteSpace=wrap;size=0.25;fillColor=#d5e8d4;strokeColor=#82b366;" parent="nFZiK4tMnYkpv-_QsDiX-37" vertex="1">
          <mxGeometry x="65" y="279" width="100" height="60" as="geometry" />
        </mxCell>
        <mxCell id="nFZiK4tMnYkpv-_QsDiX-219" style="edgeStyle=orthogonalEdgeStyle;rounded=1;orthogonalLoop=1;jettySize=auto;html=1;fontColor=#000000;" parent="nFZiK4tMnYkpv-_QsDiX-30" source="nFZiK4tMnYkpv-_QsDiX-207" target="nFZiK4tMnYkpv-_QsDiX-218" edge="1">
          <mxGeometry relative="1" as="geometry">
            <Array as="points">
              <mxPoint x="620" y="-98" />
              <mxPoint x="620" y="-98" />
            </Array>
          </mxGeometry>
        </mxCell>
        <mxCell id="KbpwUN9nBIYEaWCEx_Nc-30" value="" style="edgeStyle=none;curved=1;rounded=0;orthogonalLoop=1;jettySize=auto;html=1;fontSize=12;startSize=8;endSize=8;entryX=0.104;entryY=1;entryDx=0;entryDy=0;entryPerimeter=0;" parent="nFZiK4tMnYkpv-_QsDiX-30" source="nFZiK4tMnYkpv-_QsDiX-226" target="nFZiK4tMnYkpv-_QsDiX-207" edge="1">
          <mxGeometry relative="1" as="geometry" />
        </mxCell>
        <mxCell id="KbpwUN9nBIYEaWCEx_Nc-31" value="否" style="edgeLabel;html=1;align=center;verticalAlign=middle;resizable=0;points=[];fontSize=16;" parent="KbpwUN9nBIYEaWCEx_Nc-30" vertex="1" connectable="0">
          <mxGeometry x="0.1019" y="2" relative="1" as="geometry">
            <mxPoint x="1" as="offset" />
          </mxGeometry>
        </mxCell>
        <mxCell id="KbpwUN9nBIYEaWCEx_Nc-71" style="edgeStyle=orthogonalEdgeStyle;rounded=1;orthogonalLoop=1;jettySize=auto;html=1;fontColor=#000000;entryX=1;entryY=0.5;entryDx=0;entryDy=0;exitX=0.5;exitY=1;exitDx=0;exitDy=0;" parent="nFZiK4tMnYkpv-_QsDiX-30" source="nFZiK4tMnYkpv-_QsDiX-218" target="nFZiK4tMnYkpv-_QsDiX-175" edge="1">
          <mxGeometry relative="1" as="geometry">
            <mxPoint x="910" y="-52" as="sourcePoint" />
            <mxPoint x="830" y="28" as="targetPoint" />
            <Array as="points">
              <mxPoint x="915" y="8" />
              <mxPoint x="720" y="8" />
              <mxPoint x="720" y="64" />
            </Array>
          </mxGeometry>
        </mxCell>
        <mxCell id="KbpwUN9nBIYEaWCEx_Nc-73" style="edgeStyle=orthogonalEdgeStyle;rounded=1;orthogonalLoop=1;jettySize=auto;html=1;fontColor=#000000;entryX=1;entryY=0.5;entryDx=0;entryDy=0;exitX=0.5;exitY=1;exitDx=0;exitDy=0;" parent="nFZiK4tMnYkpv-_QsDiX-30" source="nFZiK4tMnYkpv-_QsDiX-218" target="nFZiK4tMnYkpv-_QsDiX-226" edge="1">
          <mxGeometry relative="1" as="geometry">
            <mxPoint x="920" y="-62" as="sourcePoint" />
            <mxPoint x="614" y="74" as="targetPoint" />
            <Array as="points">
              <mxPoint x="915" y="8" />
              <mxPoint x="380" y="8" />
              <mxPoint x="380" y="64" />
            </Array>
          </mxGeometry>
        </mxCell>
        <mxCell id="nFZiK4tMnYkpv-_QsDiX-42" value="系统变更发版阶段" style="swimlane;horizontal=0;points=[[0,0.5],[1,0.5]];portConstraint=eastwest;startSize=40;html=1;whiteSpace=wrap;collapsible=0;recursiveResize=0;expand=0;pointerEvents=0;fillColor=#dae8fc;strokeColor=#6c8ebf;fontSize=20;gradientColor=#7ea6e0;" parent="nFZiK4tMnYkpv-_QsDiX-21" vertex="1">
          <mxGeometry y="1509" width="1440" height="440" as="geometry" />
        </mxCell>
        <mxCell id="nFZiK4tMnYkpv-_QsDiX-43" style="swimlane;connectable=0;startSize=0;html=1;whiteSpace=wrap;collapsible=0;recursiveResize=0;expand=0;pointerEvents=0;fillColor=#fff2cc;strokeColor=#d6b656;" parent="nFZiK4tMnYkpv-_QsDiX-42" vertex="1">
          <mxGeometry x="40" width="348" height="440" as="geometry">
            <mxRectangle width="348" height="440" as="alternateBounds" />
          </mxGeometry>
        </mxCell>
        <mxCell id="KbpwUN9nBIYEaWCEx_Nc-46" value="&lt;font color=&quot;#000000&quot;&gt;问题收集与反馈&lt;/font&gt;" style="whiteSpace=wrap;html=1;rounded=1;fontColor=#ffffff;strokeWidth=2;arcSize=14;fillColor=#FFFFFF;" parent="nFZiK4tMnYkpv-_QsDiX-43" vertex="1">
          <mxGeometry x="125.5" y="132" width="453" height="60" as="geometry" />
        </mxCell>
        <mxCell id="KbpwUN9nBIYEaWCEx_Nc-57" value="&lt;font style=&quot;font-size: 9px&quot;&gt;功能是否满足需求&lt;/font&gt;" style="rhombus;whiteSpace=wrap;html=1;rounded=1;strokeWidth=2;fillColor=#f0a30a;arcSize=14;strokeColor=#BD7000;fontColor=#ffffff;" parent="nFZiK4tMnYkpv-_QsDiX-43" vertex="1">
          <mxGeometry x="131" y="241" width="80" height="80" as="geometry" />
        </mxCell>
        <mxCell id="KbpwUN9nBIYEaWCEx_Nc-90" style="edgeStyle=orthogonalEdgeStyle;rounded=1;orthogonalLoop=1;jettySize=auto;html=1;entryX=0.5;entryY=0;entryDx=0;entryDy=0;exitX=0.5;exitY=1;exitDx=0;exitDy=0;" parent="nFZiK4tMnYkpv-_QsDiX-43" target="KbpwUN9nBIYEaWCEx_Nc-85" edge="1">
          <mxGeometry relative="1" as="geometry">
            <mxPoint x="866" y="379" as="sourcePoint" />
            <mxPoint x="200" y="463" as="targetPoint" />
            <Array as="points">
              <mxPoint x="866" y="421" />
              <mxPoint x="177" y="421" />
            </Array>
          </mxGeometry>
        </mxCell>
        <mxCell id="nFZiK4tMnYkpv-_QsDiX-44" style="swimlane;connectable=0;startSize=0;html=1;whiteSpace=wrap;collapsible=0;recursiveResize=0;expand=0;pointerEvents=0;fillColor=#d5e8d4;strokeColor=#82b366;" parent="nFZiK4tMnYkpv-_QsDiX-42" vertex="1">
          <mxGeometry x="388" width="352" height="440" as="geometry">
            <mxRectangle width="352" height="440" as="alternateBounds" />
          </mxGeometry>
        </mxCell>
        <mxCell id="KbpwUN9nBIYEaWCEx_Nc-44" value="&lt;font color=&quot;#000000&quot;&gt;安全漏扫&lt;br&gt;资源优化&lt;br&gt;变更流程&lt;br&gt;&lt;/font&gt;" style="whiteSpace=wrap;html=1;rounded=1;fontColor=#ffffff;strokeWidth=2;arcSize=14;fillColor=#FFFFFF;" parent="nFZiK4tMnYkpv-_QsDiX-44" vertex="1">
          <mxGeometry x="133" y="34" width="85" height="60" as="geometry" />
        </mxCell>
        <mxCell id="nFZiK4tMnYkpv-_QsDiX-45" style="swimlane;connectable=0;startSize=0;html=1;whiteSpace=wrap;collapsible=0;recursiveResize=0;expand=0;pointerEvents=0;fillColor=#e1d5e7;strokeColor=#9673a6;" parent="nFZiK4tMnYkpv-_QsDiX-42" vertex="1">
          <mxGeometry x="740" width="350" height="440" as="geometry">
            <mxRectangle width="350" height="440" as="alternateBounds" />
          </mxGeometry>
        </mxCell>
        <mxCell id="KbpwUN9nBIYEaWCEx_Nc-55" style="edgeStyle=orthogonalEdgeStyle;rounded=1;orthogonalLoop=1;jettySize=auto;html=1;" parent="nFZiK4tMnYkpv-_QsDiX-45" target="nK3T0smykum4zkoT3SmY-20" edge="1">
          <mxGeometry relative="1" as="geometry">
            <mxPoint x="-121.5" y="164.5" as="sourcePoint" />
            <mxPoint x="152" y="44" as="targetPoint" />
            <Array as="points">
              <mxPoint x="10" y="165" />
              <mxPoint x="10" y="56" />
            </Array>
          </mxGeometry>
        </mxCell>
        <mxCell id="KbpwUN9nBIYEaWCEx_Nc-47" value="&lt;font color=&quot;#000000&quot;&gt;生产变更发版&lt;/font&gt;" style="whiteSpace=wrap;html=1;rounded=1;fontColor=#ffffff;strokeWidth=2;arcSize=14;fillColor=#FFFFFF;" parent="nFZiK4tMnYkpv-_QsDiX-45" vertex="1">
          <mxGeometry x="127.5" y="321" width="85" height="60" as="geometry" />
        </mxCell>
        <mxCell id="KbpwUN9nBIYEaWCEx_Nc-77" style="edgeStyle=orthogonalEdgeStyle;rounded=1;orthogonalLoop=1;jettySize=auto;html=1;exitX=0.5;exitY=1;exitDx=0;exitDy=0;" parent="nFZiK4tMnYkpv-_QsDiX-45" source="KbpwUN9nBIYEaWCEx_Nc-57" edge="1">
          <mxGeometry relative="1" as="geometry">
            <mxPoint x="-269.5" y="474.5" as="sourcePoint" />
            <mxPoint x="127.5" y="354" as="targetPoint" />
            <Array as="points">
              <mxPoint x="-529" y="354" />
            </Array>
          </mxGeometry>
        </mxCell>
        <mxCell id="KbpwUN9nBIYEaWCEx_Nc-81" value="是" style="edgeLabel;html=1;align=center;verticalAlign=middle;resizable=0;points=[];fontSize=16;" parent="KbpwUN9nBIYEaWCEx_Nc-77" vertex="1" connectable="0">
          <mxGeometry x="-0.8545" relative="1" as="geometry">
            <mxPoint x="182" as="offset" />
          </mxGeometry>
        </mxCell>
        <mxCell id="nFZiK4tMnYkpv-_QsDiX-46" style="swimlane;connectable=0;startSize=0;html=1;whiteSpace=wrap;collapsible=0;recursiveResize=0;expand=0;pointerEvents=0;fillColor=#f5f5f5;strokeColor=#666666;fontColor=#333333;" parent="nFZiK4tMnYkpv-_QsDiX-42" vertex="1">
          <mxGeometry x="1090" width="350" height="440" as="geometry">
            <mxRectangle width="350" height="440" as="alternateBounds" />
          </mxGeometry>
        </mxCell>
        <mxCell id="nFZiK4tMnYkpv-_QsDiX-252" value="第三方系统维护手册" style="strokeWidth=2;html=1;shape=mxgraph.flowchart.document2;whiteSpace=wrap;size=0.25;fillColor=#e1d5e7;strokeColor=#9673a6;" parent="nFZiK4tMnYkpv-_QsDiX-46" vertex="1">
          <mxGeometry x="65" y="60" width="100" height="60" as="geometry" />
        </mxCell>
        <mxCell id="nFZiK4tMnYkpv-_QsDiX-223" style="edgeStyle=orthogonalEdgeStyle;rounded=1;orthogonalLoop=1;jettySize=auto;html=1;entryX=0.101;entryY=-0.048;entryDx=0;entryDy=0;entryPerimeter=0;fontColor=#000000;" parent="nFZiK4tMnYkpv-_QsDiX-21" source="nFZiK4tMnYkpv-_QsDiX-202" target="nFZiK4tMnYkpv-_QsDiX-207" edge="1">
          <mxGeometry relative="1" as="geometry" />
        </mxCell>
        <mxCell id="nFZiK4tMnYkpv-_QsDiX-267" style="edgeStyle=orthogonalEdgeStyle;rounded=1;orthogonalLoop=1;jettySize=auto;html=1;fontSize=15;fontColor=#000000;" parent="nFZiK4tMnYkpv-_QsDiX-21" source="nFZiK4tMnYkpv-_QsDiX-226" edge="1">
          <mxGeometry relative="1" as="geometry">
            <mxPoint x="520" y="1253" as="targetPoint" />
            <Array as="points">
              <mxPoint x="214" y="1253" />
            </Array>
          </mxGeometry>
        </mxCell>
        <mxCell id="nFZiK4tMnYkpv-_QsDiX-269" value="是" style="edgeLabel;html=1;align=center;verticalAlign=middle;resizable=0;points=[];fontSize=15;fontColor=#000000;" parent="nFZiK4tMnYkpv-_QsDiX-267" vertex="1" connectable="0">
          <mxGeometry x="0.0097" y="1" relative="1" as="geometry">
            <mxPoint x="-1" y="-1" as="offset" />
          </mxGeometry>
        </mxCell>
        <mxCell id="DgZlYpkLzkembLLZBkVC-1" style="edgeStyle=orthogonalEdgeStyle;rounded=1;orthogonalLoop=1;jettySize=auto;html=1;entryX=0;entryY=0.5;entryDx=0;entryDy=0;fontSize=15;fontColor=#000000;" parent="nFZiK4tMnYkpv-_QsDiX-21" source="nFZiK4tMnYkpv-_QsDiX-99" target="nFZiK4tMnYkpv-_QsDiX-120" edge="1">
          <mxGeometry relative="1" as="geometry">
            <mxPoint x="447.3499999999999" y="786.4000000000001" as="targetPoint" />
          </mxGeometry>
        </mxCell>
        <mxCell id="OUow2rNCJdSkcb3adKRU-1" value="通过" style="edgeLabel;html=1;align=center;verticalAlign=middle;resizable=0;points=[];fontSize=15;fontColor=#000000;" parent="DgZlYpkLzkembLLZBkVC-1" vertex="1" connectable="0">
          <mxGeometry x="0.0562" y="-2" relative="1" as="geometry">
            <mxPoint as="offset" />
          </mxGeometry>
        </mxCell>
        <mxCell id="KbpwUN9nBIYEaWCEx_Nc-50" value="" style="edgeStyle=none;curved=1;rounded=0;orthogonalLoop=1;jettySize=auto;html=1;fontSize=12;startSize=8;endSize=8;" parent="nFZiK4tMnYkpv-_QsDiX-21" source="nFZiK4tMnYkpv-_QsDiX-272" target="KbpwUN9nBIYEaWCEx_Nc-44" edge="1">
          <mxGeometry relative="1" as="geometry" />
        </mxCell>
        <mxCell id="nK3T0smykum4zkoT3SmY-8" value="系统下线阶段" style="swimlane;horizontal=0;points=[[0,0.5],[1,0.5]];portConstraint=eastwest;startSize=40;html=1;whiteSpace=wrap;collapsible=0;recursiveResize=0;expand=0;pointerEvents=0;fillColor=#dae8fc;strokeColor=#6c8ebf;fontSize=20;gradientColor=#7ea6e0;" parent="1" vertex="1">
          <mxGeometry x="380" y="2212" width="1440" height="440" as="geometry" />
        </mxCell>
        <mxCell id="nK3T0smykum4zkoT3SmY-9" style="swimlane;connectable=0;startSize=0;html=1;whiteSpace=wrap;collapsible=0;recursiveResize=0;expand=0;pointerEvents=0;fillColor=#fff2cc;strokeColor=#d6b656;" parent="nK3T0smykum4zkoT3SmY-8" vertex="1">
          <mxGeometry x="40" width="348" height="440" as="geometry">
            <mxRectangle width="348" height="440" as="alternateBounds" />
          </mxGeometry>
        </mxCell>
        <mxCell id="nK3T0smykum4zkoT3SmY-11" value="项目结束" style="strokeWidth=2;html=1;shape=mxgraph.flowchart.terminator;whiteSpace=wrap;fillColor=#60a917;strokeColor=#2D7600;fontColor=#ffffff;" parent="nK3T0smykum4zkoT3SmY-9" vertex="1">
          <mxGeometry x="134" y="361" width="80" height="50" as="geometry" />
        </mxCell>
        <mxCell id="nK3T0smykum4zkoT3SmY-19" value="新需求/BUG" style="rounded=1;whiteSpace=wrap;html=1;absoluteArcSize=1;arcSize=14;strokeWidth=2;" parent="nK3T0smykum4zkoT3SmY-9" vertex="1">
          <mxGeometry x="124" y="-405" width="85" height="60" as="geometry" />
        </mxCell>
        <mxCell id="KbpwUN9nBIYEaWCEx_Nc-92" style="edgeStyle=none;curved=1;rounded=0;orthogonalLoop=1;jettySize=auto;html=1;entryX=0.5;entryY=0;entryDx=0;entryDy=0;fontSize=12;startSize=8;endSize=8;" parent="nK3T0smykum4zkoT3SmY-9" source="KbpwUN9nBIYEaWCEx_Nc-85" target="KbpwUN9nBIYEaWCEx_Nc-91" edge="1">
          <mxGeometry relative="1" as="geometry" />
        </mxCell>
        <mxCell id="KbpwUN9nBIYEaWCEx_Nc-85" value="系统下线评估确认" style="rounded=1;whiteSpace=wrap;html=1;absoluteArcSize=1;arcSize=14;strokeWidth=2;" parent="nK3T0smykum4zkoT3SmY-9" vertex="1">
          <mxGeometry x="134" y="38" width="85" height="60" as="geometry" />
        </mxCell>
        <mxCell id="KbpwUN9nBIYEaWCEx_Nc-91" value="&lt;font style=&quot;font-size: 9px&quot;&gt;数据是否留档保存&lt;/font&gt;" style="rhombus;whiteSpace=wrap;html=1;rounded=1;strokeWidth=2;fillColor=#f0a30a;arcSize=14;strokeColor=#BD7000;fontColor=#ffffff;" parent="nK3T0smykum4zkoT3SmY-9" vertex="1">
          <mxGeometry x="136.5" y="137" width="80" height="80" as="geometry" />
        </mxCell>
        <mxCell id="nK3T0smykum4zkoT3SmY-12" style="swimlane;connectable=0;startSize=0;html=1;whiteSpace=wrap;collapsible=0;recursiveResize=0;expand=0;pointerEvents=0;fillColor=#d5e8d4;strokeColor=#82b366;" parent="nK3T0smykum4zkoT3SmY-8" vertex="1">
          <mxGeometry x="388" width="352" height="440" as="geometry">
            <mxRectangle width="352" height="440" as="alternateBounds" />
          </mxGeometry>
        </mxCell>
        <mxCell id="KbpwUN9nBIYEaWCEx_Nc-87" value="&lt;font color=&quot;#000000&quot;&gt;确认下线时间&lt;/font&gt;" style="whiteSpace=wrap;html=1;rounded=1;fontColor=#ffffff;strokeWidth=2;arcSize=14;fillColor=#FFFFFF;" parent="nK3T0smykum4zkoT3SmY-12" vertex="1">
          <mxGeometry x="100" y="38" width="485" height="60" as="geometry" />
        </mxCell>
        <mxCell id="KbpwUN9nBIYEaWCEx_Nc-86" value="&lt;font color=&quot;#000000&quot;&gt;数据备份留档&lt;br&gt;&lt;/font&gt;" style="whiteSpace=wrap;html=1;rounded=1;fontColor=#ffffff;strokeWidth=2;arcSize=14;fillColor=#FFFFFF;" parent="nK3T0smykum4zkoT3SmY-12" vertex="1">
          <mxGeometry x="148.5" y="141" width="85" height="60" as="geometry" />
        </mxCell>
        <mxCell id="KbpwUN9nBIYEaWCEx_Nc-98" value="&lt;font color=&quot;#000000&quot;&gt;数据库回收&lt;br&gt;测试/生产资源回收&lt;br&gt;实施方账号权限账号回收&lt;br&gt;&lt;/font&gt;" style="whiteSpace=wrap;html=1;rounded=1;fontColor=#ffffff;strokeWidth=2;arcSize=14;fillColor=#FFFFFF;" parent="nK3T0smykum4zkoT3SmY-12" vertex="1">
          <mxGeometry x="117" y="248" width="148" height="60" as="geometry" />
        </mxCell>
        <mxCell id="KbpwUN9nBIYEaWCEx_Nc-101" value="" style="edgeStyle=none;curved=1;rounded=0;orthogonalLoop=1;jettySize=auto;html=1;fontSize=12;startSize=8;endSize=8;entryX=0.429;entryY=-0.033;entryDx=0;entryDy=0;entryPerimeter=0;" parent="nK3T0smykum4zkoT3SmY-12" edge="1">
          <mxGeometry relative="1" as="geometry">
            <mxPoint x="190.66000000000008" y="201" as="sourcePoint" />
            <mxPoint x="190.66000000000008" y="248" as="targetPoint" />
          </mxGeometry>
        </mxCell>
        <mxCell id="nK3T0smykum4zkoT3SmY-14" style="swimlane;connectable=0;startSize=0;html=1;whiteSpace=wrap;collapsible=0;recursiveResize=0;expand=0;pointerEvents=0;fillColor=#e1d5e7;strokeColor=#9673a6;" parent="nK3T0smykum4zkoT3SmY-8" vertex="1">
          <mxGeometry x="740" width="350" height="440" as="geometry">
            <mxRectangle width="350" height="440" as="alternateBounds" />
          </mxGeometry>
        </mxCell>
        <mxCell id="nK3T0smykum4zkoT3SmY-20" value="问题整改" style="rounded=1;whiteSpace=wrap;html=1;absoluteArcSize=1;arcSize=14;strokeWidth=2;" parent="nK3T0smykum4zkoT3SmY-14" vertex="1">
          <mxGeometry x="135" y="-407" width="85" height="60" as="geometry" />
        </mxCell>
        <mxCell id="KbpwUN9nBIYEaWCEx_Nc-94" value="&lt;font color=&quot;#000000&quot;&gt;数据资料销毁&lt;br&gt;客户端卸载&lt;br&gt;离场&lt;/font&gt;" style="whiteSpace=wrap;html=1;rounded=1;fontColor=#ffffff;strokeWidth=2;arcSize=14;fillColor=#FFFFFF;" parent="nK3T0smykum4zkoT3SmY-14" vertex="1">
          <mxGeometry x="133.5" y="147" width="85" height="60" as="geometry" />
        </mxCell>
        <mxCell id="KbpwUN9nBIYEaWCEx_Nc-95" value="" style="edgeStyle=none;curved=1;rounded=0;orthogonalLoop=1;jettySize=auto;html=1;fontSize=12;startSize=8;endSize=8;entryX=0.429;entryY=-0.033;entryDx=0;entryDy=0;entryPerimeter=0;" parent="nK3T0smykum4zkoT3SmY-14" target="KbpwUN9nBIYEaWCEx_Nc-94" edge="1">
          <mxGeometry relative="1" as="geometry">
            <mxPoint x="170" y="98" as="sourcePoint" />
            <mxPoint x="171" y="147" as="targetPoint" />
          </mxGeometry>
        </mxCell>
        <mxCell id="nK3T0smykum4zkoT3SmY-15" style="swimlane;connectable=0;startSize=0;html=1;whiteSpace=wrap;collapsible=0;recursiveResize=0;expand=0;pointerEvents=0;fillColor=#f5f5f5;strokeColor=#666666;fontColor=#333333;" parent="nK3T0smykum4zkoT3SmY-8" vertex="1">
          <mxGeometry x="1090" width="350" height="440" as="geometry">
            <mxRectangle width="350" height="440" as="alternateBounds" />
          </mxGeometry>
        </mxCell>
        <mxCell id="nK3T0smykum4zkoT3SmY-16" value="第三方系统维护手册" style="strokeWidth=2;html=1;shape=mxgraph.flowchart.document2;whiteSpace=wrap;size=0.25;fillColor=#e1d5e7;strokeColor=#9673a6;" parent="nK3T0smykum4zkoT3SmY-15" vertex="1">
          <mxGeometry x="65" y="60" width="100" height="60" as="geometry" />
        </mxCell>
        <mxCell id="nK3T0smykum4zkoT3SmY-18" style="edgeStyle=orthogonalEdgeStyle;rounded=1;orthogonalLoop=1;jettySize=auto;html=1;fontSize=15;fontColor=#000000;exitX=0.5;exitY=1;exitDx=0;exitDy=0;entryX=1;entryY=0.5;entryDx=0;entryDy=0;entryPerimeter=0;" parent="nK3T0smykum4zkoT3SmY-8" source="KbpwUN9nBIYEaWCEx_Nc-94" target="nK3T0smykum4zkoT3SmY-11" edge="1">
          <mxGeometry relative="1" as="geometry">
            <mxPoint x="910" y="298" as="sourcePoint" />
            <mxPoint x="260" y="386" as="targetPoint" />
            <Array as="points">
              <mxPoint x="916" y="386" />
            </Array>
          </mxGeometry>
        </mxCell>
        <mxCell id="KbpwUN9nBIYEaWCEx_Nc-88" style="edgeStyle=none;curved=1;rounded=0;orthogonalLoop=1;jettySize=auto;html=1;entryX=0;entryY=0.5;entryDx=0;entryDy=0;fontSize=12;startSize=8;endSize=8;" parent="nK3T0smykum4zkoT3SmY-8" source="KbpwUN9nBIYEaWCEx_Nc-85" target="KbpwUN9nBIYEaWCEx_Nc-87" edge="1">
          <mxGeometry relative="1" as="geometry" />
        </mxCell>
        <mxCell id="KbpwUN9nBIYEaWCEx_Nc-93" style="edgeStyle=none;curved=1;rounded=0;orthogonalLoop=1;jettySize=auto;html=1;entryX=-0.025;entryY=0.603;entryDx=0;entryDy=0;entryPerimeter=0;fontSize=12;startSize=8;endSize=8;" parent="nK3T0smykum4zkoT3SmY-8" source="KbpwUN9nBIYEaWCEx_Nc-91" target="KbpwUN9nBIYEaWCEx_Nc-86" edge="1">
          <mxGeometry relative="1" as="geometry" />
        </mxCell>
        <mxCell id="KbpwUN9nBIYEaWCEx_Nc-96" value="是" style="edgeLabel;html=1;align=center;verticalAlign=middle;resizable=0;points=[];fontSize=16;" parent="KbpwUN9nBIYEaWCEx_Nc-93" vertex="1" connectable="0">
          <mxGeometry x="-0.0028" y="-1" relative="1" as="geometry">
            <mxPoint x="-25" y="-1" as="offset" />
          </mxGeometry>
        </mxCell>
        <mxCell id="KbpwUN9nBIYEaWCEx_Nc-97" style="edgeStyle=orthogonalEdgeStyle;rounded=1;orthogonalLoop=1;jettySize=auto;html=1;fontSize=15;fontColor=#000000;entryX=1;entryY=0.5;entryDx=0;entryDy=0;entryPerimeter=0;" parent="nK3T0smykum4zkoT3SmY-8" target="nK3T0smykum4zkoT3SmY-11" edge="1">
          <mxGeometry relative="1" as="geometry">
            <mxPoint x="580" y="308" as="sourcePoint" />
            <mxPoint x="264" y="396" as="targetPoint" />
            <Array as="points">
              <mxPoint x="578" y="386" />
            </Array>
          </mxGeometry>
        </mxCell>
        <mxCell id="KbpwUN9nBIYEaWCEx_Nc-99" style="edgeStyle=orthogonalEdgeStyle;rounded=1;orthogonalLoop=1;jettySize=auto;html=1;fontSize=15;fontColor=#000000;exitX=0.5;exitY=1;exitDx=0;exitDy=0;entryX=0.034;entryY=0.464;entryDx=0;entryDy=0;entryPerimeter=0;" parent="nK3T0smykum4zkoT3SmY-8" source="KbpwUN9nBIYEaWCEx_Nc-91" edge="1">
          <mxGeometry relative="1" as="geometry">
            <mxPoint x="210.5" y="217" as="sourcePoint" />
            <mxPoint x="504.03200000000015" y="275.84000000000015" as="targetPoint" />
            <Array as="points">
              <mxPoint x="217" y="276" />
            </Array>
          </mxGeometry>
        </mxCell>
        <mxCell id="KbpwUN9nBIYEaWCEx_Nc-100" value="否" style="edgeLabel;html=1;align=center;verticalAlign=middle;resizable=0;points=[];fontSize=16;" parent="KbpwUN9nBIYEaWCEx_Nc-99" vertex="1" connectable="0">
          <mxGeometry x="-0.2023" y="-1" relative="1" as="geometry">
            <mxPoint x="74" y="1" as="offset" />
          </mxGeometry>
        </mxCell>
        <mxCell id="KbpwUN9nBIYEaWCEx_Nc-39" style="edgeStyle=orthogonalEdgeStyle;rounded=1;orthogonalLoop=1;jettySize=auto;html=1;entryX=0.5;entryY=0;entryDx=0;entryDy=0;fontSize=15;fontColor=#000000;exitX=0.531;exitY=1.003;exitDx=0;exitDy=0;exitPerimeter=0;" parent="1" edge="1">
          <mxGeometry relative="1" as="geometry">
            <mxPoint x="1302.1350000000002" y="1546.1799999999998" as="sourcePoint" />
            <mxPoint x="1302" y="1592" as="targetPoint" />
          </mxGeometry>
        </mxCell>
        <mxCell id="KbpwUN9nBIYEaWCEx_Nc-40" value="验证" style="edgeLabel;html=1;align=center;verticalAlign=middle;resizable=0;points=[];fontSize=16;" parent="KbpwUN9nBIYEaWCEx_Nc-39" vertex="1" connectable="0">
          <mxGeometry x="-0.0889" y="-2" relative="1" as="geometry">
            <mxPoint as="offset" />
          </mxGeometry>
        </mxCell>
        <mxCell id="KbpwUN9nBIYEaWCEx_Nc-45" value="&lt;font color=&quot;#000000&quot;&gt;测试环境交付&lt;/font&gt;" style="whiteSpace=wrap;html=1;rounded=1;fontColor=#ffffff;strokeWidth=2;arcSize=14;fillColor=#FFFFFF;" parent="1" vertex="1">
          <mxGeometry x="1254.5" y="1908" width="85" height="60" as="geometry" />
        </mxCell>
        <mxCell id="KbpwUN9nBIYEaWCEx_Nc-56" value="" style="edgeStyle=none;curved=1;rounded=0;orthogonalLoop=1;jettySize=auto;html=1;fontSize=12;startSize=8;endSize=8;" parent="1" source="nK3T0smykum4zkoT3SmY-20" target="KbpwUN9nBIYEaWCEx_Nc-45" edge="1">
          <mxGeometry relative="1" as="geometry" />
        </mxCell>
        <mxCell id="KbpwUN9nBIYEaWCEx_Nc-61" value="" style="edgeStyle=none;curved=1;rounded=0;orthogonalLoop=1;jettySize=auto;html=1;fontSize=12;startSize=8;endSize=8;" parent="1" source="KbpwUN9nBIYEaWCEx_Nc-57" edge="1">
          <mxGeometry relative="1" as="geometry">
            <mxPoint x="589" y="1970" as="targetPoint" />
          </mxGeometry>
        </mxCell>
        <mxCell id="KbpwUN9nBIYEaWCEx_Nc-63" value="否" style="edgeLabel;html=1;align=center;verticalAlign=middle;resizable=0;points=[];fontSize=16;" parent="KbpwUN9nBIYEaWCEx_Nc-61" vertex="1" connectable="0">
          <mxGeometry x="-0.1724" y="-2" relative="1" as="geometry">
            <mxPoint x="-3" as="offset" />
          </mxGeometry>
        </mxCell>
        <mxCell id="KbpwUN9nBIYEaWCEx_Nc-62" value="" style="edgeStyle=none;curved=1;rounded=0;orthogonalLoop=1;jettySize=auto;html=1;fontSize=12;startSize=8;endSize=8;entryX=0.873;entryY=1;entryDx=0;entryDy=0;entryPerimeter=0;" parent="1" source="KbpwUN9nBIYEaWCEx_Nc-58" target="KbpwUN9nBIYEaWCEx_Nc-46" edge="1">
          <mxGeometry relative="1" as="geometry" />
        </mxCell>
        <mxCell id="KbpwUN9nBIYEaWCEx_Nc-65" value="否" style="edgeLabel;html=1;align=center;verticalAlign=middle;resizable=0;points=[];fontSize=16;" parent="KbpwUN9nBIYEaWCEx_Nc-62" vertex="1" connectable="0">
          <mxGeometry x="-0.1853" relative="1" as="geometry">
            <mxPoint y="4" as="offset" />
          </mxGeometry>
        </mxCell>
        <mxCell id="KbpwUN9nBIYEaWCEx_Nc-58" value="&lt;font style=&quot;font-size: 9px&quot;&gt;是否具备上线条件&lt;/font&gt;" style="rhombus;whiteSpace=wrap;html=1;rounded=1;strokeWidth=2;fillColor=#f0a30a;arcSize=14;strokeColor=#BD7000;fontColor=#ffffff;" parent="1" vertex="1">
          <mxGeometry x="899" y="2010" width="80" height="80" as="geometry" />
        </mxCell>
        <mxCell id="KbpwUN9nBIYEaWCEx_Nc-59" value="" style="edgeStyle=none;curved=1;rounded=0;orthogonalLoop=1;jettySize=auto;html=1;fontSize=12;startSize=8;endSize=8;entryX=0.089;entryY=0.017;entryDx=0;entryDy=0;entryPerimeter=0;" parent="1" source="nK3T0smykum4zkoT3SmY-19" target="KbpwUN9nBIYEaWCEx_Nc-46" edge="1">
          <mxGeometry relative="1" as="geometry" />
        </mxCell>
        <mxCell id="KbpwUN9nBIYEaWCEx_Nc-74" style="edgeStyle=orthogonalEdgeStyle;rounded=1;orthogonalLoop=1;jettySize=auto;html=1;exitX=0.5;exitY=1;exitDx=0;exitDy=0;entryX=1;entryY=0.5;entryDx=0;entryDy=0;" parent="1" source="KbpwUN9nBIYEaWCEx_Nc-45" target="KbpwUN9nBIYEaWCEx_Nc-58" edge="1">
          <mxGeometry relative="1" as="geometry">
            <mxPoint x="1008.5" y="1945.5" as="sourcePoint" />
            <mxPoint x="1000" y="2040" as="targetPoint" />
            <Array as="points">
              <mxPoint x="1297" y="2010" />
              <mxPoint x="1140" y="2010" />
              <mxPoint x="1140" y="2050" />
            </Array>
          </mxGeometry>
        </mxCell>
        <mxCell id="KbpwUN9nBIYEaWCEx_Nc-75" style="edgeStyle=orthogonalEdgeStyle;rounded=1;orthogonalLoop=1;jettySize=auto;html=1;entryX=1;entryY=0.5;entryDx=0;entryDy=0;exitX=0.5;exitY=1;exitDx=0;exitDy=0;" parent="1" source="KbpwUN9nBIYEaWCEx_Nc-45" target="KbpwUN9nBIYEaWCEx_Nc-57" edge="1">
          <mxGeometry relative="1" as="geometry">
            <mxPoint x="1300" y="1970" as="sourcePoint" />
            <mxPoint x="989" y="2049" as="targetPoint" />
            <Array as="points">
              <mxPoint x="1297" y="2010" />
              <mxPoint x="700" y="2010" />
              <mxPoint x="700" y="2052" />
            </Array>
          </mxGeometry>
        </mxCell>
        <mxCell id="KbpwUN9nBIYEaWCEx_Nc-83" style="edgeStyle=orthogonalEdgeStyle;rounded=1;orthogonalLoop=1;jettySize=auto;html=1;exitX=0.5;exitY=1;exitDx=0;exitDy=0;entryX=-0.034;entryY=0.523;entryDx=0;entryDy=0;entryPerimeter=0;" parent="1" source="KbpwUN9nBIYEaWCEx_Nc-58" edge="1">
          <mxGeometry relative="1" as="geometry">
            <mxPoint x="942" y="2092" as="sourcePoint" />
            <mxPoint x="1247.61" y="2125.38" as="targetPoint" />
            <Array as="points">
              <mxPoint x="939" y="2125" />
              <mxPoint x="942" y="2125" />
            </Array>
          </mxGeometry>
        </mxCell>
        <mxCell id="KbpwUN9nBIYEaWCEx_Nc-84" value="是" style="edgeLabel;html=1;align=center;verticalAlign=middle;resizable=0;points=[];fontSize=16;" parent="KbpwUN9nBIYEaWCEx_Nc-83" vertex="1" connectable="0">
          <mxGeometry x="-0.8545" relative="1" as="geometry">
            <mxPoint x="108" y="9" as="offset" />
          </mxGeometry>
        </mxCell>
        <mxCell id="nFZiK4tMnYkpv-_QsDiX-256" style="edgeStyle=orthogonalEdgeStyle;rounded=1;orthogonalLoop=1;jettySize=auto;html=1;fontSize=20;fontColor=#000000;entryX=1;entryY=0.5;entryDx=0;entryDy=0;entryPerimeter=0;" parent="1" source="nFZiK4tMnYkpv-_QsDiX-99" target="nK3T0smykum4zkoT3SmY-11" edge="1">
          <mxGeometry relative="1" as="geometry">
            <Array as="points">
              <mxPoint x="1450" y="832" />
              <mxPoint x="1450" y="2598" />
            </Array>
            <mxPoint x="634" y="2645" as="targetPoint" />
          </mxGeometry>
        </mxCell>
        <mxCell id="nFZiK4tMnYkpv-_QsDiX-257" value="不通过" style="edgeLabel;html=1;align=center;verticalAlign=middle;resizable=0;points=[];fontSize=15;fontColor=#000000;" parent="nFZiK4tMnYkpv-_QsDiX-256" vertex="1" connectable="0">
          <mxGeometry x="-0.7627" y="2" relative="1" as="geometry">
            <mxPoint as="offset" />
          </mxGeometry>
        </mxCell>
      </root>
    </mxGraphModel>
  </diagram>
  <diagram name="Page-1-外采项目SOP截图" id="PmbFfD280JWdeRqVkRo8">
    <mxGraphModel dx="1674" dy="758" grid="0" gridSize="10" guides="0" tooltips="1" connect="1" arrows="1" fold="1" page="1" pageScale="1" pageWidth="1100" pageHeight="850" background="#ffffff" math="0" shadow="0">
      <root>
        <mxCell id="fasd8-DoZxjkN6JQULyN-0" />
        <mxCell id="fasd8-DoZxjkN6JQULyN-1" parent="fasd8-DoZxjkN6JQULyN-0" />
        <mxCell id="fasd8-DoZxjkN6JQULyN-2" value="" style="edgeStyle=none;curved=1;rounded=0;orthogonalLoop=1;jettySize=auto;html=1;fontSize=12;startSize=8;endSize=8;" parent="fasd8-DoZxjkN6JQULyN-1" edge="1">
          <mxGeometry relative="1" as="geometry">
            <mxPoint x="941.7000000000003" y="1859" as="sourcePoint" />
            <mxPoint x="942" y="1904" as="targetPoint" />
          </mxGeometry>
        </mxCell>
        <mxCell id="fasd8-DoZxjkN6JQULyN-3" value="&lt;font style=&quot;font-size: 30px&quot;&gt;基础运营平台外采系统对接流程&lt;/font&gt;" style="shape=table;childLayout=tableLayout;rowLines=0;columnLines=0;startSize=80;html=1;whiteSpace=wrap;collapsible=0;recursiveResize=0;expand=0;pointerEvents=0;fontStyle=1;align=center;flipH=1;flipV=0;fontSize=20;" parent="fasd8-DoZxjkN6JQULyN-1" vertex="1">
          <mxGeometry x="380" y="262" width="1110" height="1949" as="geometry" />
        </mxCell>
        <mxCell id="fasd8-DoZxjkN6JQULyN-4" value="项目启动阶段" style="swimlane;horizontal=0;points=[[0,0.5],[1,0.5]];portConstraint=eastwest;startSize=40;html=1;whiteSpace=wrap;collapsible=0;recursiveResize=0;expand=0;pointerEvents=0;fontStyle=1;fillColor=#dae8fc;strokeColor=#6c8ebf;fontSize=20;gradientColor=#7ea6e0;" parent="fasd8-DoZxjkN6JQULyN-3" vertex="1">
          <mxGeometry y="80" width="1110" height="550" as="geometry" />
        </mxCell>
        <mxCell id="fasd8-DoZxjkN6JQULyN-5" value="业务需求方" style="swimlane;connectable=0;startSize=40;html=1;whiteSpace=wrap;collapsible=0;recursiveResize=0;expand=0;pointerEvents=0;fillColor=#fff2cc;strokeColor=#d6b656;fontSize=20;" parent="fasd8-DoZxjkN6JQULyN-4" vertex="1">
          <mxGeometry x="40" width="348" height="550" as="geometry">
            <mxRectangle width="348" height="550" as="alternateBounds" />
          </mxGeometry>
        </mxCell>
        <mxCell id="fasd8-DoZxjkN6JQULyN-6" style="edgeStyle=orthogonalEdgeStyle;rounded=1;orthogonalLoop=1;jettySize=auto;html=1;entryX=0.5;entryY=0;entryDx=0;entryDy=0;fontColor=#000000;" parent="fasd8-DoZxjkN6JQULyN-5" source="fasd8-DoZxjkN6JQULyN-7" target="fasd8-DoZxjkN6JQULyN-8" edge="1">
          <mxGeometry relative="1" as="geometry" />
        </mxCell>
        <mxCell id="fasd8-DoZxjkN6JQULyN-7" value="项目开始" style="strokeWidth=2;html=1;shape=mxgraph.flowchart.terminator;whiteSpace=wrap;fillColor=#60a917;strokeColor=#2D7600;fontColor=#ffffff;" parent="fasd8-DoZxjkN6JQULyN-5" vertex="1">
          <mxGeometry x="134" y="60" width="80" height="50" as="geometry" />
        </mxCell>
        <mxCell id="fasd8-DoZxjkN6JQULyN-8" value="项目启动会议" style="rounded=1;whiteSpace=wrap;html=1;absoluteArcSize=1;arcSize=14;strokeWidth=2;" parent="fasd8-DoZxjkN6JQULyN-5" vertex="1">
          <mxGeometry x="131.5" y="134" width="85" height="60" as="geometry" />
        </mxCell>
        <mxCell id="fasd8-DoZxjkN6JQULyN-9" value="业务体量确认" style="rounded=1;whiteSpace=wrap;html=1;absoluteArcSize=1;arcSize=14;strokeWidth=2;" parent="fasd8-DoZxjkN6JQULyN-5" vertex="1">
          <mxGeometry x="134" y="260" width="85" height="60" as="geometry" />
        </mxCell>
        <mxCell id="fasd8-DoZxjkN6JQULyN-10" value="预算申请" style="rhombus;whiteSpace=wrap;html=1;rounded=1;strokeWidth=2;arcSize=14;fillColor=#f0a30a;strokeColor=#BD7000;fontColor=#ffffff;" parent="fasd8-DoZxjkN6JQULyN-5" vertex="1">
          <mxGeometry x="139" y="450" width="80" height="80" as="geometry" />
        </mxCell>
        <mxCell id="fasd8-DoZxjkN6JQULyN-11" value="基础运营平台" style="swimlane;connectable=0;startSize=40;html=1;whiteSpace=wrap;collapsible=0;recursiveResize=0;expand=0;pointerEvents=0;fillColor=#d5e8d4;strokeColor=#82b366;fontSize=20;" parent="fasd8-DoZxjkN6JQULyN-4" vertex="1">
          <mxGeometry x="388" width="352" height="550" as="geometry">
            <mxRectangle width="352" height="550" as="alternateBounds" />
          </mxGeometry>
        </mxCell>
        <mxCell id="fasd8-DoZxjkN6JQULyN-12" value="确认" style="edgeStyle=orthogonalEdgeStyle;rounded=1;orthogonalLoop=1;jettySize=auto;html=1;fontSize=15;" parent="fasd8-DoZxjkN6JQULyN-11" source="fasd8-DoZxjkN6JQULyN-14" target="fasd8-DoZxjkN6JQULyN-15" edge="1">
          <mxGeometry relative="1" as="geometry" />
        </mxCell>
        <mxCell id="fasd8-DoZxjkN6JQULyN-13" value="沟通部署方案" style="rounded=1;whiteSpace=wrap;html=1;absoluteArcSize=1;arcSize=14;strokeWidth=2;" parent="fasd8-DoZxjkN6JQULyN-11" vertex="1">
          <mxGeometry x="132" y="134" width="85" height="60" as="geometry" />
        </mxCell>
        <mxCell id="fasd8-DoZxjkN6JQULyN-14" value="部署方案确认" style="rhombus;whiteSpace=wrap;html=1;rounded=1;strokeWidth=2;arcSize=14;fillColor=#f0a30a;strokeColor=#BD7000;fontColor=#ffffff;" parent="fasd8-DoZxjkN6JQULyN-11" vertex="1">
          <mxGeometry x="134.5" y="250" width="80" height="80" as="geometry" />
        </mxCell>
        <mxCell id="fasd8-DoZxjkN6JQULyN-15" value="毛估年度预算" style="whiteSpace=wrap;html=1;rounded=1;strokeWidth=2;arcSize=14;" parent="fasd8-DoZxjkN6JQULyN-11" vertex="1">
          <mxGeometry x="132" y="360" width="85" height="60" as="geometry" />
        </mxCell>
        <mxCell id="fasd8-DoZxjkN6JQULyN-16" style="edgeStyle=orthogonalEdgeStyle;rounded=1;orthogonalLoop=1;jettySize=auto;html=1;fontSize=15;exitX=0;exitY=0.5;exitDx=0;exitDy=0;" parent="fasd8-DoZxjkN6JQULyN-11" source="fasd8-DoZxjkN6JQULyN-20" edge="1">
          <mxGeometry relative="1" as="geometry">
            <mxPoint x="172" y="130" as="targetPoint" />
            <mxPoint x="472" y="80" as="sourcePoint" />
          </mxGeometry>
        </mxCell>
        <mxCell id="fasd8-DoZxjkN6JQULyN-17" style="edgeStyle=orthogonalEdgeStyle;rounded=1;orthogonalLoop=1;jettySize=auto;html=1;entryX=0.5;entryY=1;entryDx=0;entryDy=0;" parent="fasd8-DoZxjkN6JQULyN-11" source="fasd8-DoZxjkN6JQULyN-14" target="fasd8-DoZxjkN6JQULyN-13" edge="1">
          <mxGeometry relative="1" as="geometry">
            <mxPoint x="-88" y="220" as="sourcePoint" />
            <mxPoint x="176" y="220" as="targetPoint" />
          </mxGeometry>
        </mxCell>
        <mxCell id="fasd8-DoZxjkN6JQULyN-18" value="&lt;font style=&quot;font-size: 14px;&quot;&gt;不通过&lt;/font&gt;" style="edgeLabel;html=1;align=center;verticalAlign=middle;resizable=0;points=[];" parent="fasd8-DoZxjkN6JQULyN-17" vertex="1" connectable="0">
          <mxGeometry x="-0.1429" y="-1" relative="1" as="geometry">
            <mxPoint x="1" as="offset" />
          </mxGeometry>
        </mxCell>
        <mxCell id="fasd8-DoZxjkN6JQULyN-19" value="项目实施方" style="swimlane;connectable=0;startSize=40;html=1;whiteSpace=wrap;collapsible=0;recursiveResize=0;expand=0;pointerEvents=0;fillColor=#e1d5e7;strokeColor=#9673a6;fontSize=20;" parent="fasd8-DoZxjkN6JQULyN-4" vertex="1">
          <mxGeometry x="740" width="350" height="550" as="geometry">
            <mxRectangle width="350" height="550" as="alternateBounds" />
          </mxGeometry>
        </mxCell>
        <mxCell id="fasd8-DoZxjkN6JQULyN-20" value="系统架构及功能组件介绍" style="rounded=1;whiteSpace=wrap;html=1;absoluteArcSize=1;arcSize=14;strokeWidth=2;" parent="fasd8-DoZxjkN6JQULyN-19" vertex="1">
          <mxGeometry x="127.5" y="55" width="85" height="60" as="geometry" />
        </mxCell>
        <mxCell id="fasd8-DoZxjkN6JQULyN-21" value="系统架构调整" style="rounded=1;whiteSpace=wrap;html=1;absoluteArcSize=1;arcSize=14;strokeWidth=2;" parent="fasd8-DoZxjkN6JQULyN-19" vertex="1">
          <mxGeometry x="127.5" y="134" width="85" height="60" as="geometry" />
        </mxCell>
        <mxCell id="fasd8-DoZxjkN6JQULyN-22" value="" style="swimlane;connectable=0;startSize=40;html=1;whiteSpace=wrap;collapsible=0;recursiveResize=0;expand=0;pointerEvents=0;fillColor=#f5f5f5;strokeColor=#666666;fontColor=#333333;fontSize=20;" parent="fasd8-DoZxjkN6JQULyN-4" vertex="1">
          <mxGeometry x="1090" width="20" height="550" as="geometry">
            <mxRectangle width="20" height="550" as="alternateBounds" />
          </mxGeometry>
        </mxCell>
        <mxCell id="fasd8-DoZxjkN6JQULyN-31" style="edgeStyle=orthogonalEdgeStyle;rounded=1;orthogonalLoop=1;jettySize=auto;html=1;entryX=0;entryY=0.5;entryDx=0;entryDy=0;" parent="fasd8-DoZxjkN6JQULyN-4" source="fasd8-DoZxjkN6JQULyN-13" target="fasd8-DoZxjkN6JQULyN-21" edge="1">
          <mxGeometry relative="1" as="geometry" />
        </mxCell>
        <mxCell id="fasd8-DoZxjkN6JQULyN-32" style="edgeStyle=orthogonalEdgeStyle;rounded=1;orthogonalLoop=1;jettySize=auto;html=1;exitX=0.5;exitY=1;exitDx=0;exitDy=0;entryX=1;entryY=0.5;entryDx=0;entryDy=0;" parent="fasd8-DoZxjkN6JQULyN-4" source="fasd8-DoZxjkN6JQULyN-21" target="fasd8-DoZxjkN6JQULyN-14" edge="1">
          <mxGeometry relative="1" as="geometry" />
        </mxCell>
        <mxCell id="fasd8-DoZxjkN6JQULyN-33" style="edgeStyle=orthogonalEdgeStyle;rounded=1;orthogonalLoop=1;jettySize=auto;html=1;entryX=0;entryY=0.5;entryDx=0;entryDy=0;" parent="fasd8-DoZxjkN6JQULyN-4" source="fasd8-DoZxjkN6JQULyN-9" target="fasd8-DoZxjkN6JQULyN-14" edge="1">
          <mxGeometry relative="1" as="geometry" />
        </mxCell>
        <mxCell id="fasd8-DoZxjkN6JQULyN-34" value="" style="edgeStyle=orthogonalEdgeStyle;rounded=1;orthogonalLoop=1;jettySize=auto;html=1;" parent="fasd8-DoZxjkN6JQULyN-4" source="fasd8-DoZxjkN6JQULyN-15" target="fasd8-DoZxjkN6JQULyN-10" edge="1">
          <mxGeometry relative="1" as="geometry" />
        </mxCell>
        <mxCell id="fasd8-DoZxjkN6JQULyN-35" style="edgeStyle=orthogonalEdgeStyle;rounded=1;orthogonalLoop=1;jettySize=auto;html=1;fontSize=15;entryX=0;entryY=0.5;entryDx=0;entryDy=0;" parent="fasd8-DoZxjkN6JQULyN-4" source="fasd8-DoZxjkN6JQULyN-8" target="fasd8-DoZxjkN6JQULyN-13" edge="1">
          <mxGeometry relative="1" as="geometry">
            <mxPoint x="520" y="172" as="targetPoint" />
          </mxGeometry>
        </mxCell>
        <mxCell id="fasd8-DoZxjkN6JQULyN-36" value="系统部署阶段" style="swimlane;horizontal=0;points=[[0,0.5],[1,0.5]];portConstraint=eastwest;startSize=40;html=1;whiteSpace=wrap;collapsible=0;recursiveResize=0;expand=0;pointerEvents=0;fillColor=#dae8fc;strokeColor=#6c8ebf;fontSize=20;gradientColor=#7ea6e0;" parent="fasd8-DoZxjkN6JQULyN-3" vertex="1">
          <mxGeometry y="630" width="1110" height="440" as="geometry" />
        </mxCell>
        <mxCell id="fasd8-DoZxjkN6JQULyN-37" value="" style="swimlane;connectable=0;startSize=0;html=1;whiteSpace=wrap;collapsible=0;recursiveResize=0;expand=0;pointerEvents=0;fillColor=#fff2cc;strokeColor=#d6b656;" parent="fasd8-DoZxjkN6JQULyN-36" vertex="1">
          <mxGeometry x="40" width="348" height="440" as="geometry">
            <mxRectangle width="348" height="440" as="alternateBounds" />
          </mxGeometry>
        </mxCell>
        <mxCell id="fasd8-DoZxjkN6JQULyN-38" value="&lt;font color=&quot;#000000&quot;&gt;功能验证&lt;/font&gt;" style="whiteSpace=wrap;html=1;rounded=1;fontColor=#ffffff;strokeWidth=2;arcSize=14;fillColor=#FFFFFF;" parent="fasd8-DoZxjkN6JQULyN-37" vertex="1">
          <mxGeometry x="131.5" y="137" width="85" height="60" as="geometry" />
        </mxCell>
        <mxCell id="fasd8-DoZxjkN6JQULyN-39" value="" style="swimlane;connectable=0;startSize=0;html=1;whiteSpace=wrap;collapsible=0;recursiveResize=0;expand=0;pointerEvents=0;fillColor=#d5e8d4;strokeColor=#82b366;" parent="fasd8-DoZxjkN6JQULyN-36" vertex="1">
          <mxGeometry x="388" width="352" height="440" as="geometry">
            <mxRectangle width="352" height="440" as="alternateBounds" />
          </mxGeometry>
        </mxCell>
        <mxCell id="fasd8-DoZxjkN6JQULyN-40" value="&lt;font color=&quot;#000000&quot;&gt;测试环境资源交付&lt;/font&gt;" style="whiteSpace=wrap;html=1;rounded=1;fontColor=#ffffff;strokeWidth=2;arcSize=14;fillColor=#FFFFFF;" parent="fasd8-DoZxjkN6JQULyN-39" vertex="1">
          <mxGeometry x="132" y="28" width="85" height="60" as="geometry" />
        </mxCell>
        <mxCell id="fasd8-DoZxjkN6JQULyN-41" style="edgeStyle=orthogonalEdgeStyle;rounded=1;orthogonalLoop=1;jettySize=auto;html=1;fontSize=15;" parent="fasd8-DoZxjkN6JQULyN-39" edge="1">
          <mxGeometry relative="1" as="geometry">
            <mxPoint x="481.5" y="59" as="targetPoint" />
            <mxPoint x="218.5" y="59" as="sourcePoint" />
          </mxGeometry>
        </mxCell>
        <mxCell id="fasd8-DoZxjkN6JQULyN-42" value="&lt;font color=&quot;#000000&quot;&gt;安全漏扫&lt;br&gt;准入评估&lt;br&gt;&lt;/font&gt;" style="whiteSpace=wrap;html=1;rounded=1;fontColor=#ffffff;strokeWidth=2;arcSize=14;fillColor=#FFFFFF;" parent="fasd8-DoZxjkN6JQULyN-39" vertex="1">
          <mxGeometry x="133.5" y="179" width="85" height="60" as="geometry" />
        </mxCell>
        <mxCell id="fasd8-DoZxjkN6JQULyN-43" style="edgeStyle=orthogonalEdgeStyle;rounded=1;orthogonalLoop=1;jettySize=auto;html=1;entryX=1;entryY=0.5;entryDx=0;entryDy=0;fontColor=#000000;exitX=0.021;exitY=0.529;exitDx=0;exitDy=0;exitPerimeter=0;" parent="fasd8-DoZxjkN6JQULyN-39" source="fasd8-DoZxjkN6JQULyN-50" edge="1">
          <mxGeometry relative="1" as="geometry">
            <mxPoint x="482" y="167" as="sourcePoint" />
            <mxPoint x="218.5" y="208" as="targetPoint" />
            <Array as="points">
              <mxPoint x="482" y="167" />
              <mxPoint x="350" y="167" />
              <mxPoint x="350" y="208" />
            </Array>
          </mxGeometry>
        </mxCell>
        <mxCell id="fasd8-DoZxjkN6JQULyN-44" style="edgeStyle=orthogonalEdgeStyle;rounded=1;orthogonalLoop=1;jettySize=auto;html=1;entryX=0.101;entryY=-0.048;entryDx=0;entryDy=0;entryPerimeter=0;fontColor=#000000;" parent="fasd8-DoZxjkN6JQULyN-39" edge="1">
          <mxGeometry relative="1" as="geometry">
            <mxPoint x="176" y="240" as="sourcePoint" />
            <mxPoint x="175.5" y="313" as="targetPoint" />
          </mxGeometry>
        </mxCell>
        <mxCell id="fasd8-DoZxjkN6JQULyN-45" value="" style="edgeStyle=none;curved=1;rounded=0;orthogonalLoop=1;jettySize=auto;html=1;fontSize=12;startSize=8;endSize=8;entryX=0.104;entryY=1;entryDx=0;entryDy=0;entryPerimeter=0;" parent="fasd8-DoZxjkN6JQULyN-39" edge="1">
          <mxGeometry relative="1" as="geometry">
            <mxPoint x="175.5" y="464" as="sourcePoint" />
            <mxPoint x="176.5" y="373" as="targetPoint" />
          </mxGeometry>
        </mxCell>
        <mxCell id="fasd8-DoZxjkN6JQULyN-46" value="否" style="edgeLabel;html=1;align=center;verticalAlign=middle;resizable=0;points=[];fontSize=16;" parent="fasd8-DoZxjkN6JQULyN-45" vertex="1" connectable="0">
          <mxGeometry x="0.1019" y="2" relative="1" as="geometry">
            <mxPoint as="offset" />
          </mxGeometry>
        </mxCell>
        <mxCell id="fasd8-DoZxjkN6JQULyN-47" value="" style="swimlane;connectable=0;startSize=0;html=1;whiteSpace=wrap;collapsible=0;recursiveResize=0;expand=0;pointerEvents=0;fillColor=#e1d5e7;strokeColor=#9673a6;labelBorderColor=default;" parent="fasd8-DoZxjkN6JQULyN-36" vertex="1">
          <mxGeometry x="740" width="350" height="440" as="geometry">
            <mxRectangle width="350" height="440" as="alternateBounds" />
          </mxGeometry>
        </mxCell>
        <mxCell id="fasd8-DoZxjkN6JQULyN-48" value="" style="edgeStyle=orthogonalEdgeStyle;rounded=1;orthogonalLoop=1;jettySize=auto;html=1;" parent="fasd8-DoZxjkN6JQULyN-47" source="fasd8-DoZxjkN6JQULyN-51" target="fasd8-DoZxjkN6JQULyN-50" edge="1">
          <mxGeometry relative="1" as="geometry" />
        </mxCell>
        <mxCell id="fasd8-DoZxjkN6JQULyN-49" value="需求开发和&lt;br&gt;验证" style="edgeLabel;html=1;align=center;verticalAlign=middle;resizable=0;points=[];" parent="fasd8-DoZxjkN6JQULyN-48" vertex="1" connectable="0">
          <mxGeometry x="-0.15" y="-3" relative="1" as="geometry">
            <mxPoint as="offset" />
          </mxGeometry>
        </mxCell>
        <mxCell id="fasd8-DoZxjkN6JQULyN-50" value="&lt;font color=&quot;#000000&quot;&gt;测试环境交付&lt;/font&gt;" style="whiteSpace=wrap;html=1;rounded=1;fontColor=#ffffff;strokeWidth=2;arcSize=14;fillColor=#FFFFFF;" parent="fasd8-DoZxjkN6JQULyN-47" vertex="1">
          <mxGeometry x="132.5" y="135" width="85" height="60" as="geometry" />
        </mxCell>
        <mxCell id="fasd8-DoZxjkN6JQULyN-51" value="&lt;font color=&quot;#000000&quot;&gt;测试环境部署&lt;/font&gt;" style="whiteSpace=wrap;html=1;rounded=1;fontColor=#ffffff;strokeWidth=2;arcSize=14;fillColor=#FFFFFF;" parent="fasd8-DoZxjkN6JQULyN-47" vertex="1">
          <mxGeometry x="132.5" y="28" width="85" height="60" as="geometry" />
        </mxCell>
        <mxCell id="fasd8-DoZxjkN6JQULyN-52" style="edgeStyle=orthogonalEdgeStyle;rounded=1;orthogonalLoop=1;jettySize=auto;html=1;entryX=0.5;entryY=1;entryDx=0;entryDy=0;exitX=0.5;exitY=0;exitDx=0;exitDy=0;" parent="fasd8-DoZxjkN6JQULyN-47" source="fasd8-DoZxjkN6JQULyN-75" edge="1">
          <mxGeometry relative="1" as="geometry">
            <mxPoint x="174.70999999999998" y="251" as="sourcePoint" />
            <mxPoint x="174.70999999999998" y="195" as="targetPoint" />
          </mxGeometry>
        </mxCell>
        <mxCell id="fasd8-DoZxjkN6JQULyN-53" value="&lt;font style=&quot;font-size: 14px;&quot;&gt;问题修复&lt;/font&gt;" style="edgeLabel;html=1;align=center;verticalAlign=middle;resizable=0;points=[];" parent="fasd8-DoZxjkN6JQULyN-52" vertex="1" connectable="0">
          <mxGeometry x="-0.1429" y="-1" relative="1" as="geometry">
            <mxPoint x="1" as="offset" />
          </mxGeometry>
        </mxCell>
        <mxCell id="fasd8-DoZxjkN6JQULyN-54" style="swimlane;connectable=0;startSize=0;html=1;whiteSpace=wrap;collapsible=0;recursiveResize=0;expand=0;pointerEvents=0;fillColor=#f5f5f5;strokeColor=#666666;fontColor=#333333;" parent="fasd8-DoZxjkN6JQULyN-36" vertex="1">
          <mxGeometry x="1090" width="20" height="440" as="geometry">
            <mxRectangle width="20" height="440" as="alternateBounds" />
          </mxGeometry>
        </mxCell>
        <mxCell id="fasd8-DoZxjkN6JQULyN-59" style="edgeStyle=orthogonalEdgeStyle;rounded=1;orthogonalLoop=1;jettySize=auto;html=1;fontSize=15;entryX=1;entryY=0.5;entryDx=0;entryDy=0;exitX=0;exitY=0.5;exitDx=0;exitDy=0;" parent="fasd8-DoZxjkN6JQULyN-36" source="fasd8-DoZxjkN6JQULyN-50" target="fasd8-DoZxjkN6JQULyN-38" edge="1">
          <mxGeometry relative="1" as="geometry">
            <mxPoint x="673" y="163" as="targetPoint" />
            <mxPoint x="410" y="163" as="sourcePoint" />
            <Array as="points">
              <mxPoint x="873" y="167" />
            </Array>
          </mxGeometry>
        </mxCell>
        <mxCell id="fasd8-DoZxjkN6JQULyN-60" value="系统上线试运行阶段" style="swimlane;horizontal=0;points=[[0,0.5],[1,0.5]];portConstraint=eastwest;startSize=40;html=1;whiteSpace=wrap;collapsible=0;recursiveResize=0;expand=0;pointerEvents=0;fillColor=#dae8fc;strokeColor=#6c8ebf;fontSize=20;gradientColor=#7ea6e0;" parent="fasd8-DoZxjkN6JQULyN-3" vertex="1">
          <mxGeometry y="1070" width="1110" height="439" as="geometry" />
        </mxCell>
        <mxCell id="fasd8-DoZxjkN6JQULyN-61" value="" style="swimlane;connectable=0;startSize=0;html=1;whiteSpace=wrap;collapsible=0;recursiveResize=0;expand=0;pointerEvents=0;fillColor=#fff2cc;strokeColor=#d6b656;" parent="fasd8-DoZxjkN6JQULyN-60" vertex="1">
          <mxGeometry x="40" width="348" height="439" as="geometry">
            <mxRectangle width="348" height="439" as="alternateBounds" />
          </mxGeometry>
        </mxCell>
        <mxCell id="fasd8-DoZxjkN6JQULyN-62" value="&lt;font style=&quot;font-size: 9px&quot;&gt;功能是否满足需求&lt;/font&gt;" style="rhombus;whiteSpace=wrap;html=1;rounded=1;strokeWidth=2;fillColor=#f0a30a;arcSize=14;strokeColor=#BD7000;fontColor=#ffffff;" parent="fasd8-DoZxjkN6JQULyN-61" vertex="1">
          <mxGeometry x="134" y="24" width="80" height="80" as="geometry" />
        </mxCell>
        <mxCell id="fasd8-DoZxjkN6JQULyN-63" value="" style="edgeStyle=none;curved=1;rounded=0;orthogonalLoop=1;jettySize=auto;html=1;fontSize=12;startSize=8;endSize=8;" parent="fasd8-DoZxjkN6JQULyN-61" edge="1">
          <mxGeometry relative="1" as="geometry">
            <mxPoint x="163.5" y="412" as="sourcePoint" />
            <mxPoint x="163.5" y="473" as="targetPoint" />
          </mxGeometry>
        </mxCell>
        <mxCell id="fasd8-DoZxjkN6JQULyN-64" value="" style="swimlane;connectable=0;startSize=0;html=1;whiteSpace=wrap;collapsible=0;recursiveResize=0;expand=0;pointerEvents=0;fillColor=#d5e8d4;strokeColor=#82b366;" parent="fasd8-DoZxjkN6JQULyN-60" vertex="1">
          <mxGeometry x="388" width="352" height="439" as="geometry">
            <mxRectangle width="352" height="439" as="alternateBounds" />
          </mxGeometry>
        </mxCell>
        <mxCell id="fasd8-DoZxjkN6JQULyN-65" value="&lt;font color=&quot;#000000&quot;&gt;问题收集与反馈&lt;/font&gt;" style="whiteSpace=wrap;html=1;rounded=1;fontColor=#ffffff;strokeWidth=2;arcSize=14;fillColor=#FFFFFF;" parent="fasd8-DoZxjkN6JQULyN-64" vertex="1">
          <mxGeometry x="-220" y="-127" width="453" height="60" as="geometry" />
        </mxCell>
        <mxCell id="fasd8-DoZxjkN6JQULyN-66" value="&lt;font style=&quot;font-size: 9px&quot;&gt;是否具备上线条件&lt;/font&gt;" style="rhombus;whiteSpace=wrap;html=1;rounded=1;strokeWidth=2;fillColor=#f0a30a;arcSize=14;strokeColor=#BD7000;fontColor=#ffffff;" parent="fasd8-DoZxjkN6JQULyN-64" vertex="1">
          <mxGeometry x="136" y="24" width="80" height="80" as="geometry" />
        </mxCell>
        <mxCell id="fasd8-DoZxjkN6JQULyN-67" value="生产环境资源交付" style="whiteSpace=wrap;html=1;rounded=1;fontColor=#000000;strokeWidth=2;arcSize=14;fillColor=#FFFFFF;" parent="fasd8-DoZxjkN6JQULyN-64" vertex="1">
          <mxGeometry x="133.5" y="149" width="85" height="60" as="geometry" />
        </mxCell>
        <mxCell id="fasd8-DoZxjkN6JQULyN-68" style="edgeStyle=orthogonalEdgeStyle;rounded=1;orthogonalLoop=1;jettySize=auto;html=1;entryX=0.5;entryY=0;entryDx=0;entryDy=0;fontColor=#000000;" parent="fasd8-DoZxjkN6JQULyN-64" target="fasd8-DoZxjkN6JQULyN-67" edge="1">
          <mxGeometry relative="1" as="geometry">
            <mxPoint x="175.66000000000008" y="104" as="sourcePoint" />
            <mxPoint x="175.66000000000008" y="128" as="targetPoint" />
          </mxGeometry>
        </mxCell>
        <mxCell id="fasd8-DoZxjkN6JQULyN-69" value="是" style="edgeLabel;html=1;align=center;verticalAlign=middle;resizable=0;points=[];fontSize=16;" parent="fasd8-DoZxjkN6JQULyN-68" vertex="1" connectable="0">
          <mxGeometry x="-0.182" y="-3" relative="1" as="geometry">
            <mxPoint x="2" y="1" as="offset" />
          </mxGeometry>
        </mxCell>
        <mxCell id="fasd8-DoZxjkN6JQULyN-70" style="edgeStyle=orthogonalEdgeStyle;rounded=1;orthogonalLoop=1;jettySize=auto;html=1;entryX=0;entryY=0.5;entryDx=0;entryDy=0;" parent="fasd8-DoZxjkN6JQULyN-64" target="fasd8-DoZxjkN6JQULyN-76" edge="1">
          <mxGeometry relative="1" as="geometry">
            <mxPoint x="218.5" y="178.5" as="sourcePoint" />
            <mxPoint x="482.5" y="178.5" as="targetPoint" />
          </mxGeometry>
        </mxCell>
        <mxCell id="fasd8-DoZxjkN6JQULyN-71" value="&lt;font color=&quot;#000000&quot;&gt;上线试运行&lt;/font&gt;" style="whiteSpace=wrap;html=1;rounded=1;fontColor=#ffffff;strokeWidth=2;arcSize=14;fillColor=#FFFFFF;" parent="fasd8-DoZxjkN6JQULyN-64" vertex="1">
          <mxGeometry x="-220" y="257" width="790" height="60" as="geometry" />
        </mxCell>
        <mxCell id="fasd8-DoZxjkN6JQULyN-72" value="&lt;font color=&quot;#000000&quot;&gt;项目验收（&lt;/font&gt;&lt;span style=&quot;color: rgb(0, 0, 0);&quot;&gt;业务功能-业务确认、技术架构-SRE&lt;/span&gt;&lt;font color=&quot;#000000&quot;&gt;确认，安全-安全团队确认，实施方确认）&lt;/font&gt;" style="whiteSpace=wrap;html=1;rounded=1;fontColor=#ffffff;strokeWidth=2;arcSize=14;fillColor=#FFFFFF;" parent="fasd8-DoZxjkN6JQULyN-64" vertex="1">
          <mxGeometry x="-218.5" y="352" width="786.5" height="60" as="geometry" />
        </mxCell>
        <mxCell id="fasd8-DoZxjkN6JQULyN-73" style="edgeStyle=orthogonalEdgeStyle;rounded=1;orthogonalLoop=1;jettySize=auto;html=1;entryX=0.5;entryY=0;entryDx=0;entryDy=0;fontSize=15;fontColor=#000000;" parent="fasd8-DoZxjkN6JQULyN-64" source="fasd8-DoZxjkN6JQULyN-71" target="fasd8-DoZxjkN6JQULyN-72" edge="1">
          <mxGeometry relative="1" as="geometry" />
        </mxCell>
        <mxCell id="fasd8-DoZxjkN6JQULyN-74" value="" style="swimlane;connectable=0;startSize=0;html=1;whiteSpace=wrap;collapsible=0;recursiveResize=0;expand=0;pointerEvents=0;fillColor=#e1d5e7;strokeColor=#9673a6;" parent="fasd8-DoZxjkN6JQULyN-60" vertex="1">
          <mxGeometry x="740" width="350" height="439" as="geometry">
            <mxRectangle width="350" height="439" as="alternateBounds" />
          </mxGeometry>
        </mxCell>
        <mxCell id="fasd8-DoZxjkN6JQULyN-75" value="&lt;font color=&quot;#000000&quot;&gt;问题整改&lt;/font&gt;" style="whiteSpace=wrap;html=1;rounded=1;fontColor=#ffffff;strokeWidth=2;arcSize=14;fillColor=#FFFFFF;" parent="fasd8-DoZxjkN6JQULyN-74" vertex="1">
          <mxGeometry x="132.5" y="-127" width="85" height="57" as="geometry" />
        </mxCell>
        <mxCell id="fasd8-DoZxjkN6JQULyN-76" value="&lt;font color=&quot;#000000&quot;&gt;生产环境部署&lt;/font&gt;" style="whiteSpace=wrap;html=1;rounded=1;fontColor=#ffffff;strokeWidth=2;arcSize=14;fillColor=#FFFFFF;" parent="fasd8-DoZxjkN6JQULyN-74" vertex="1">
          <mxGeometry x="140" y="28" width="85" height="60" as="geometry" />
        </mxCell>
        <mxCell id="fasd8-DoZxjkN6JQULyN-77" value="&lt;font color=&quot;#000000&quot;&gt;生产环境交付&lt;/font&gt;" style="whiteSpace=wrap;html=1;rounded=1;fontColor=#ffffff;strokeWidth=2;arcSize=14;fillColor=#FFFFFF;" parent="fasd8-DoZxjkN6JQULyN-74" vertex="1">
          <mxGeometry x="140" y="149" width="85" height="60" as="geometry" />
        </mxCell>
        <mxCell id="fasd8-DoZxjkN6JQULyN-78" value="" style="edgeStyle=orthogonalEdgeStyle;rounded=1;orthogonalLoop=1;jettySize=auto;html=1;" parent="fasd8-DoZxjkN6JQULyN-74" source="fasd8-DoZxjkN6JQULyN-76" target="fasd8-DoZxjkN6JQULyN-77" edge="1">
          <mxGeometry relative="1" as="geometry" />
        </mxCell>
        <mxCell id="fasd8-DoZxjkN6JQULyN-79" value="初始化数据收集" style="edgeLabel;html=1;align=center;verticalAlign=middle;resizable=0;points=[];fontSize=16;" parent="fasd8-DoZxjkN6JQULyN-78" vertex="1" connectable="0">
          <mxGeometry x="-0.1515" y="2" relative="1" as="geometry">
            <mxPoint as="offset" />
          </mxGeometry>
        </mxCell>
        <mxCell id="fasd8-DoZxjkN6JQULyN-80" style="swimlane;connectable=0;startSize=0;html=1;whiteSpace=wrap;collapsible=0;recursiveResize=0;expand=0;pointerEvents=0;fillColor=#f5f5f5;strokeColor=#666666;fontColor=#333333;" parent="fasd8-DoZxjkN6JQULyN-60" vertex="1">
          <mxGeometry x="1090" width="20" height="439" as="geometry">
            <mxRectangle width="20" height="439" as="alternateBounds" />
          </mxGeometry>
        </mxCell>
        <mxCell id="fasd8-DoZxjkN6JQULyN-85" style="edgeStyle=orthogonalEdgeStyle;rounded=1;orthogonalLoop=1;jettySize=auto;html=1;fontColor=#000000;" parent="fasd8-DoZxjkN6JQULyN-60" source="fasd8-DoZxjkN6JQULyN-65" target="fasd8-DoZxjkN6JQULyN-75" edge="1">
          <mxGeometry relative="1" as="geometry">
            <Array as="points">
              <mxPoint x="620" y="-98" />
              <mxPoint x="620" y="-98" />
            </Array>
          </mxGeometry>
        </mxCell>
        <mxCell id="fasd8-DoZxjkN6JQULyN-86" value="" style="edgeStyle=none;curved=1;rounded=0;orthogonalLoop=1;jettySize=auto;html=1;fontSize=12;startSize=8;endSize=8;entryX=0.104;entryY=1;entryDx=0;entryDy=0;entryPerimeter=0;" parent="fasd8-DoZxjkN6JQULyN-60" source="fasd8-DoZxjkN6JQULyN-62" target="fasd8-DoZxjkN6JQULyN-65" edge="1">
          <mxGeometry relative="1" as="geometry" />
        </mxCell>
        <mxCell id="fasd8-DoZxjkN6JQULyN-87" value="否" style="edgeLabel;html=1;align=center;verticalAlign=middle;resizable=0;points=[];fontSize=16;" parent="fasd8-DoZxjkN6JQULyN-86" vertex="1" connectable="0">
          <mxGeometry x="0.1019" y="2" relative="1" as="geometry">
            <mxPoint x="1" as="offset" />
          </mxGeometry>
        </mxCell>
        <mxCell id="fasd8-DoZxjkN6JQULyN-88" style="edgeStyle=orthogonalEdgeStyle;rounded=1;orthogonalLoop=1;jettySize=auto;html=1;fontColor=#000000;entryX=1;entryY=0.5;entryDx=0;entryDy=0;exitX=0.5;exitY=1;exitDx=0;exitDy=0;" parent="fasd8-DoZxjkN6JQULyN-60" source="fasd8-DoZxjkN6JQULyN-75" target="fasd8-DoZxjkN6JQULyN-66" edge="1">
          <mxGeometry relative="1" as="geometry">
            <mxPoint x="910" y="-52" as="sourcePoint" />
            <mxPoint x="830" y="28" as="targetPoint" />
            <Array as="points">
              <mxPoint x="915" y="8" />
              <mxPoint x="720" y="8" />
              <mxPoint x="720" y="64" />
            </Array>
          </mxGeometry>
        </mxCell>
        <mxCell id="fasd8-DoZxjkN6JQULyN-89" style="edgeStyle=orthogonalEdgeStyle;rounded=1;orthogonalLoop=1;jettySize=auto;html=1;fontColor=#000000;entryX=1;entryY=0.5;entryDx=0;entryDy=0;exitX=0.5;exitY=1;exitDx=0;exitDy=0;" parent="fasd8-DoZxjkN6JQULyN-60" source="fasd8-DoZxjkN6JQULyN-75" target="fasd8-DoZxjkN6JQULyN-62" edge="1">
          <mxGeometry relative="1" as="geometry">
            <mxPoint x="920" y="-62" as="sourcePoint" />
            <mxPoint x="614" y="74" as="targetPoint" />
            <Array as="points">
              <mxPoint x="915" y="8" />
              <mxPoint x="380" y="8" />
              <mxPoint x="380" y="64" />
            </Array>
          </mxGeometry>
        </mxCell>
        <mxCell id="fasd8-DoZxjkN6JQULyN-90" value="系统变更发版阶段" style="swimlane;horizontal=0;points=[[0,0.5],[1,0.5]];portConstraint=eastwest;startSize=40;html=1;whiteSpace=wrap;collapsible=0;recursiveResize=0;expand=0;pointerEvents=0;fillColor=#dae8fc;strokeColor=#6c8ebf;fontSize=20;gradientColor=#7ea6e0;" parent="fasd8-DoZxjkN6JQULyN-3" vertex="1">
          <mxGeometry y="1509" width="1110" height="440" as="geometry" />
        </mxCell>
        <mxCell id="fasd8-DoZxjkN6JQULyN-91" style="swimlane;connectable=0;startSize=0;html=1;whiteSpace=wrap;collapsible=0;recursiveResize=0;expand=0;pointerEvents=0;fillColor=#fff2cc;strokeColor=#d6b656;" parent="fasd8-DoZxjkN6JQULyN-90" vertex="1">
          <mxGeometry x="40" width="348" height="440" as="geometry">
            <mxRectangle width="348" height="440" as="alternateBounds" />
          </mxGeometry>
        </mxCell>
        <mxCell id="fasd8-DoZxjkN6JQULyN-92" value="&lt;font color=&quot;#000000&quot;&gt;问题收集与反馈&lt;/font&gt;" style="whiteSpace=wrap;html=1;rounded=1;fontColor=#ffffff;strokeWidth=2;arcSize=14;fillColor=#FFFFFF;" parent="fasd8-DoZxjkN6JQULyN-91" vertex="1">
          <mxGeometry x="125.5" y="132" width="453" height="60" as="geometry" />
        </mxCell>
        <mxCell id="fasd8-DoZxjkN6JQULyN-93" value="&lt;font style=&quot;font-size: 9px&quot;&gt;功能是否满足需求&lt;/font&gt;" style="rhombus;whiteSpace=wrap;html=1;rounded=1;strokeWidth=2;fillColor=#f0a30a;arcSize=14;strokeColor=#BD7000;fontColor=#ffffff;" parent="fasd8-DoZxjkN6JQULyN-91" vertex="1">
          <mxGeometry x="131" y="241" width="80" height="80" as="geometry" />
        </mxCell>
        <mxCell id="fasd8-DoZxjkN6JQULyN-94" style="edgeStyle=orthogonalEdgeStyle;rounded=1;orthogonalLoop=1;jettySize=auto;html=1;entryX=0.5;entryY=0;entryDx=0;entryDy=0;exitX=0.5;exitY=1;exitDx=0;exitDy=0;" parent="fasd8-DoZxjkN6JQULyN-91" target="fasd8-DoZxjkN6JQULyN-115" edge="1">
          <mxGeometry relative="1" as="geometry">
            <mxPoint x="866" y="379" as="sourcePoint" />
            <mxPoint x="200" y="463" as="targetPoint" />
            <Array as="points">
              <mxPoint x="866" y="421" />
              <mxPoint x="177" y="421" />
            </Array>
          </mxGeometry>
        </mxCell>
        <mxCell id="fasd8-DoZxjkN6JQULyN-95" style="swimlane;connectable=0;startSize=0;html=1;whiteSpace=wrap;collapsible=0;recursiveResize=0;expand=0;pointerEvents=0;fillColor=#d5e8d4;strokeColor=#82b366;" parent="fasd8-DoZxjkN6JQULyN-90" vertex="1">
          <mxGeometry x="388" width="352" height="440" as="geometry">
            <mxRectangle width="352" height="440" as="alternateBounds" />
          </mxGeometry>
        </mxCell>
        <mxCell id="fasd8-DoZxjkN6JQULyN-96" value="&lt;font color=&quot;#000000&quot;&gt;安全漏扫&lt;br&gt;资源优化&lt;br&gt;变更流程&lt;br&gt;&lt;/font&gt;" style="whiteSpace=wrap;html=1;rounded=1;fontColor=#ffffff;strokeWidth=2;arcSize=14;fillColor=#FFFFFF;" parent="fasd8-DoZxjkN6JQULyN-95" vertex="1">
          <mxGeometry x="133" y="34" width="85" height="60" as="geometry" />
        </mxCell>
        <mxCell id="fasd8-DoZxjkN6JQULyN-97" style="swimlane;connectable=0;startSize=0;html=1;whiteSpace=wrap;collapsible=0;recursiveResize=0;expand=0;pointerEvents=0;fillColor=#e1d5e7;strokeColor=#9673a6;" parent="fasd8-DoZxjkN6JQULyN-90" vertex="1">
          <mxGeometry x="740" width="350" height="440" as="geometry">
            <mxRectangle width="350" height="440" as="alternateBounds" />
          </mxGeometry>
        </mxCell>
        <mxCell id="fasd8-DoZxjkN6JQULyN-98" style="edgeStyle=orthogonalEdgeStyle;rounded=1;orthogonalLoop=1;jettySize=auto;html=1;" parent="fasd8-DoZxjkN6JQULyN-97" target="fasd8-DoZxjkN6JQULyN-123" edge="1">
          <mxGeometry relative="1" as="geometry">
            <mxPoint x="-121.5" y="164.5" as="sourcePoint" />
            <mxPoint x="152" y="44" as="targetPoint" />
            <Array as="points">
              <mxPoint x="10" y="165" />
              <mxPoint x="10" y="56" />
            </Array>
          </mxGeometry>
        </mxCell>
        <mxCell id="fasd8-DoZxjkN6JQULyN-99" value="&lt;font color=&quot;#000000&quot;&gt;生产变更发版&lt;/font&gt;" style="whiteSpace=wrap;html=1;rounded=1;fontColor=#ffffff;strokeWidth=2;arcSize=14;fillColor=#FFFFFF;" parent="fasd8-DoZxjkN6JQULyN-97" vertex="1">
          <mxGeometry x="127.5" y="321" width="85" height="60" as="geometry" />
        </mxCell>
        <mxCell id="fasd8-DoZxjkN6JQULyN-100" style="edgeStyle=orthogonalEdgeStyle;rounded=1;orthogonalLoop=1;jettySize=auto;html=1;exitX=0.5;exitY=1;exitDx=0;exitDy=0;" parent="fasd8-DoZxjkN6JQULyN-97" source="fasd8-DoZxjkN6JQULyN-93" edge="1">
          <mxGeometry relative="1" as="geometry">
            <mxPoint x="-269.5" y="474.5" as="sourcePoint" />
            <mxPoint x="127.5" y="354" as="targetPoint" />
            <Array as="points">
              <mxPoint x="-529" y="354" />
            </Array>
          </mxGeometry>
        </mxCell>
        <mxCell id="fasd8-DoZxjkN6JQULyN-101" value="是" style="edgeLabel;html=1;align=center;verticalAlign=middle;resizable=0;points=[];fontSize=16;" parent="fasd8-DoZxjkN6JQULyN-100" vertex="1" connectable="0">
          <mxGeometry x="-0.8545" relative="1" as="geometry">
            <mxPoint x="182" as="offset" />
          </mxGeometry>
        </mxCell>
        <mxCell id="fasd8-DoZxjkN6JQULyN-102" value="" style="swimlane;connectable=0;startSize=0;html=1;whiteSpace=wrap;collapsible=0;recursiveResize=0;expand=0;pointerEvents=0;fillColor=#f5f5f5;strokeColor=#666666;fontColor=#333333;" parent="fasd8-DoZxjkN6JQULyN-90" vertex="1">
          <mxGeometry x="1090" width="20" height="440" as="geometry">
            <mxRectangle width="20" height="440" as="alternateBounds" />
          </mxGeometry>
        </mxCell>
        <mxCell id="fasd8-DoZxjkN6JQULyN-104" style="edgeStyle=orthogonalEdgeStyle;rounded=1;orthogonalLoop=1;jettySize=auto;html=1;entryX=0.101;entryY=-0.048;entryDx=0;entryDy=0;entryPerimeter=0;fontColor=#000000;" parent="fasd8-DoZxjkN6JQULyN-3" source="fasd8-DoZxjkN6JQULyN-38" target="fasd8-DoZxjkN6JQULyN-65" edge="1">
          <mxGeometry relative="1" as="geometry" />
        </mxCell>
        <mxCell id="fasd8-DoZxjkN6JQULyN-105" style="edgeStyle=orthogonalEdgeStyle;rounded=1;orthogonalLoop=1;jettySize=auto;html=1;fontSize=15;fontColor=#000000;" parent="fasd8-DoZxjkN6JQULyN-3" source="fasd8-DoZxjkN6JQULyN-62" edge="1">
          <mxGeometry relative="1" as="geometry">
            <mxPoint x="520" y="1253" as="targetPoint" />
            <Array as="points">
              <mxPoint x="214" y="1253" />
            </Array>
          </mxGeometry>
        </mxCell>
        <mxCell id="fasd8-DoZxjkN6JQULyN-106" value="是" style="edgeLabel;html=1;align=center;verticalAlign=middle;resizable=0;points=[];fontSize=15;fontColor=#000000;" parent="fasd8-DoZxjkN6JQULyN-105" vertex="1" connectable="0">
          <mxGeometry x="0.0097" y="1" relative="1" as="geometry">
            <mxPoint x="-1" y="-1" as="offset" />
          </mxGeometry>
        </mxCell>
        <mxCell id="fasd8-DoZxjkN6JQULyN-107" style="edgeStyle=orthogonalEdgeStyle;rounded=1;orthogonalLoop=1;jettySize=auto;html=1;entryX=0;entryY=0.5;entryDx=0;entryDy=0;fontSize=15;fontColor=#000000;" parent="fasd8-DoZxjkN6JQULyN-3" source="fasd8-DoZxjkN6JQULyN-10" target="fasd8-DoZxjkN6JQULyN-40" edge="1">
          <mxGeometry relative="1" as="geometry">
            <mxPoint x="447.3499999999999" y="786.4000000000001" as="targetPoint" />
          </mxGeometry>
        </mxCell>
        <mxCell id="fasd8-DoZxjkN6JQULyN-108" value="通过" style="edgeLabel;html=1;align=center;verticalAlign=middle;resizable=0;points=[];fontSize=15;fontColor=#000000;" parent="fasd8-DoZxjkN6JQULyN-107" vertex="1" connectable="0">
          <mxGeometry x="0.0562" y="-2" relative="1" as="geometry">
            <mxPoint as="offset" />
          </mxGeometry>
        </mxCell>
        <mxCell id="fasd8-DoZxjkN6JQULyN-109" value="" style="edgeStyle=none;curved=1;rounded=0;orthogonalLoop=1;jettySize=auto;html=1;fontSize=12;startSize=8;endSize=8;" parent="fasd8-DoZxjkN6JQULyN-3" source="fasd8-DoZxjkN6JQULyN-72" target="fasd8-DoZxjkN6JQULyN-96" edge="1">
          <mxGeometry relative="1" as="geometry" />
        </mxCell>
        <mxCell id="fasd8-DoZxjkN6JQULyN-110" value="系统下线阶段" style="swimlane;horizontal=0;points=[[0,0.5],[1,0.5]];portConstraint=eastwest;startSize=40;html=1;whiteSpace=wrap;collapsible=0;recursiveResize=0;expand=0;pointerEvents=0;fillColor=#dae8fc;strokeColor=#6c8ebf;fontSize=20;gradientColor=#7ea6e0;" parent="fasd8-DoZxjkN6JQULyN-1" vertex="1">
          <mxGeometry x="380" y="2212" width="1091" height="440" as="geometry" />
        </mxCell>
        <mxCell id="fasd8-DoZxjkN6JQULyN-111" style="swimlane;connectable=0;startSize=0;html=1;whiteSpace=wrap;collapsible=0;recursiveResize=0;expand=0;pointerEvents=0;fillColor=#fff2cc;strokeColor=#d6b656;" parent="fasd8-DoZxjkN6JQULyN-110" vertex="1">
          <mxGeometry x="40" width="348" height="440" as="geometry">
            <mxRectangle width="348" height="440" as="alternateBounds" />
          </mxGeometry>
        </mxCell>
        <mxCell id="fasd8-DoZxjkN6JQULyN-112" value="项目结束" style="strokeWidth=2;html=1;shape=mxgraph.flowchart.terminator;whiteSpace=wrap;fillColor=#60a917;strokeColor=#2D7600;fontColor=#ffffff;" parent="fasd8-DoZxjkN6JQULyN-111" vertex="1">
          <mxGeometry x="134" y="361" width="80" height="50" as="geometry" />
        </mxCell>
        <mxCell id="fasd8-DoZxjkN6JQULyN-113" value="新需求/BUG" style="rounded=1;whiteSpace=wrap;html=1;absoluteArcSize=1;arcSize=14;strokeWidth=2;" parent="fasd8-DoZxjkN6JQULyN-111" vertex="1">
          <mxGeometry x="124" y="-405" width="85" height="60" as="geometry" />
        </mxCell>
        <mxCell id="fasd8-DoZxjkN6JQULyN-114" style="edgeStyle=none;curved=1;rounded=0;orthogonalLoop=1;jettySize=auto;html=1;entryX=0.5;entryY=0;entryDx=0;entryDy=0;fontSize=12;startSize=8;endSize=8;" parent="fasd8-DoZxjkN6JQULyN-111" source="fasd8-DoZxjkN6JQULyN-115" target="fasd8-DoZxjkN6JQULyN-116" edge="1">
          <mxGeometry relative="1" as="geometry" />
        </mxCell>
        <mxCell id="fasd8-DoZxjkN6JQULyN-115" value="系统下线评估确认下线时间" style="rounded=1;whiteSpace=wrap;html=1;absoluteArcSize=1;arcSize=14;strokeWidth=2;" parent="fasd8-DoZxjkN6JQULyN-111" vertex="1">
          <mxGeometry x="134" y="38" width="85" height="60" as="geometry" />
        </mxCell>
        <mxCell id="fasd8-DoZxjkN6JQULyN-116" value="&lt;font style=&quot;font-size: 9px&quot;&gt;数据是否留档保存&lt;/font&gt;" style="rhombus;whiteSpace=wrap;html=1;rounded=1;strokeWidth=2;fillColor=#f0a30a;arcSize=14;strokeColor=#BD7000;fontColor=#ffffff;" parent="fasd8-DoZxjkN6JQULyN-111" vertex="1">
          <mxGeometry x="136.5" y="137" width="80" height="80" as="geometry" />
        </mxCell>
        <mxCell id="fasd8-DoZxjkN6JQULyN-117" style="swimlane;connectable=0;startSize=0;html=1;whiteSpace=wrap;collapsible=0;recursiveResize=0;expand=0;pointerEvents=0;fillColor=#d5e8d4;strokeColor=#82b366;" parent="fasd8-DoZxjkN6JQULyN-110" vertex="1">
          <mxGeometry x="388" width="352" height="440" as="geometry">
            <mxRectangle width="352" height="440" as="alternateBounds" />
          </mxGeometry>
        </mxCell>
        <mxCell id="fasd8-DoZxjkN6JQULyN-119" value="&lt;font color=&quot;#000000&quot;&gt;数据备份留档&lt;br&gt;&lt;/font&gt;" style="whiteSpace=wrap;html=1;rounded=1;fontColor=#ffffff;strokeWidth=2;arcSize=14;fillColor=#FFFFFF;" parent="fasd8-DoZxjkN6JQULyN-117" vertex="1">
          <mxGeometry x="148.5" y="141" width="85" height="60" as="geometry" />
        </mxCell>
        <mxCell id="fasd8-DoZxjkN6JQULyN-120" value="&lt;font color=&quot;#000000&quot;&gt;数据库回收&lt;br&gt;测试/生产资源回收&lt;br&gt;实施方账号权限账号回收&lt;br&gt;&lt;/font&gt;" style="whiteSpace=wrap;html=1;rounded=1;fontColor=#ffffff;strokeWidth=2;arcSize=14;fillColor=#FFFFFF;" parent="fasd8-DoZxjkN6JQULyN-117" vertex="1">
          <mxGeometry x="117" y="248" width="148" height="60" as="geometry" />
        </mxCell>
        <mxCell id="fasd8-DoZxjkN6JQULyN-121" value="" style="edgeStyle=none;curved=1;rounded=0;orthogonalLoop=1;jettySize=auto;html=1;fontSize=12;startSize=8;endSize=8;entryX=0.429;entryY=-0.033;entryDx=0;entryDy=0;entryPerimeter=0;" parent="fasd8-DoZxjkN6JQULyN-117" edge="1">
          <mxGeometry relative="1" as="geometry">
            <mxPoint x="190.66000000000008" y="201" as="sourcePoint" />
            <mxPoint x="190.66000000000008" y="248" as="targetPoint" />
          </mxGeometry>
        </mxCell>
        <mxCell id="fasd8-DoZxjkN6JQULyN-122" style="swimlane;connectable=0;startSize=0;html=1;whiteSpace=wrap;collapsible=0;recursiveResize=0;expand=0;pointerEvents=0;fillColor=#e1d5e7;strokeColor=#9673a6;" parent="fasd8-DoZxjkN6JQULyN-110" vertex="1">
          <mxGeometry x="740" width="350" height="440" as="geometry">
            <mxRectangle width="350" height="440" as="alternateBounds" />
          </mxGeometry>
        </mxCell>
        <mxCell id="fasd8-DoZxjkN6JQULyN-123" value="问题整改" style="rounded=1;whiteSpace=wrap;html=1;absoluteArcSize=1;arcSize=14;strokeWidth=2;" parent="fasd8-DoZxjkN6JQULyN-122" vertex="1">
          <mxGeometry x="135" y="-407" width="85" height="60" as="geometry" />
        </mxCell>
        <mxCell id="fasd8-DoZxjkN6JQULyN-124" value="&lt;font color=&quot;#000000&quot;&gt;数据资料销毁&lt;br&gt;客户端卸载&lt;br&gt;离场&lt;/font&gt;" style="whiteSpace=wrap;html=1;rounded=1;fontColor=#ffffff;strokeWidth=2;arcSize=14;fillColor=#FFFFFF;" parent="fasd8-DoZxjkN6JQULyN-122" vertex="1">
          <mxGeometry x="133.5" y="147" width="85" height="60" as="geometry" />
        </mxCell>
        <mxCell id="fasd8-DoZxjkN6JQULyN-128" style="edgeStyle=orthogonalEdgeStyle;rounded=1;orthogonalLoop=1;jettySize=auto;html=1;fontSize=15;fontColor=#000000;exitX=0.5;exitY=1;exitDx=0;exitDy=0;entryX=1;entryY=0.5;entryDx=0;entryDy=0;entryPerimeter=0;" parent="fasd8-DoZxjkN6JQULyN-110" source="fasd8-DoZxjkN6JQULyN-124" target="fasd8-DoZxjkN6JQULyN-112" edge="1">
          <mxGeometry relative="1" as="geometry">
            <mxPoint x="910" y="298" as="sourcePoint" />
            <mxPoint x="260" y="386" as="targetPoint" />
            <Array as="points">
              <mxPoint x="916" y="386" />
            </Array>
          </mxGeometry>
        </mxCell>
        <mxCell id="fasd8-DoZxjkN6JQULyN-130" style="edgeStyle=none;curved=1;rounded=0;orthogonalLoop=1;jettySize=auto;html=1;entryX=-0.025;entryY=0.603;entryDx=0;entryDy=0;entryPerimeter=0;fontSize=12;startSize=8;endSize=8;" parent="fasd8-DoZxjkN6JQULyN-110" source="fasd8-DoZxjkN6JQULyN-116" target="fasd8-DoZxjkN6JQULyN-119" edge="1">
          <mxGeometry relative="1" as="geometry" />
        </mxCell>
        <mxCell id="fasd8-DoZxjkN6JQULyN-131" value="是" style="edgeLabel;html=1;align=center;verticalAlign=middle;resizable=0;points=[];fontSize=16;" parent="fasd8-DoZxjkN6JQULyN-130" vertex="1" connectable="0">
          <mxGeometry x="-0.0028" y="-1" relative="1" as="geometry">
            <mxPoint x="-25" y="-1" as="offset" />
          </mxGeometry>
        </mxCell>
        <mxCell id="fasd8-DoZxjkN6JQULyN-132" style="edgeStyle=orthogonalEdgeStyle;rounded=1;orthogonalLoop=1;jettySize=auto;html=1;fontSize=15;fontColor=#000000;entryX=1;entryY=0.5;entryDx=0;entryDy=0;entryPerimeter=0;" parent="fasd8-DoZxjkN6JQULyN-110" target="fasd8-DoZxjkN6JQULyN-112" edge="1">
          <mxGeometry relative="1" as="geometry">
            <mxPoint x="580" y="308" as="sourcePoint" />
            <mxPoint x="264" y="396" as="targetPoint" />
            <Array as="points">
              <mxPoint x="578" y="386" />
            </Array>
          </mxGeometry>
        </mxCell>
        <mxCell id="fasd8-DoZxjkN6JQULyN-133" style="edgeStyle=orthogonalEdgeStyle;rounded=1;orthogonalLoop=1;jettySize=auto;html=1;fontSize=15;fontColor=#000000;exitX=0.5;exitY=1;exitDx=0;exitDy=0;entryX=0.034;entryY=0.464;entryDx=0;entryDy=0;entryPerimeter=0;" parent="fasd8-DoZxjkN6JQULyN-110" source="fasd8-DoZxjkN6JQULyN-116" edge="1">
          <mxGeometry relative="1" as="geometry">
            <mxPoint x="210.5" y="217" as="sourcePoint" />
            <mxPoint x="504.03200000000015" y="275.84000000000015" as="targetPoint" />
            <Array as="points">
              <mxPoint x="217" y="276" />
            </Array>
          </mxGeometry>
        </mxCell>
        <mxCell id="fasd8-DoZxjkN6JQULyN-134" value="否" style="edgeLabel;html=1;align=center;verticalAlign=middle;resizable=0;points=[];fontSize=16;" parent="fasd8-DoZxjkN6JQULyN-133" vertex="1" connectable="0">
          <mxGeometry x="-0.2023" y="-1" relative="1" as="geometry">
            <mxPoint x="74" y="1" as="offset" />
          </mxGeometry>
        </mxCell>
        <mxCell id="tor8HTFxhbzXD8pRxrI--0" style="edgeStyle=orthogonalEdgeStyle;rounded=1;orthogonalLoop=1;jettySize=auto;html=1;exitX=1;exitY=0.5;exitDx=0;exitDy=0;entryX=0.5;entryY=0;entryDx=0;entryDy=0;" edge="1" parent="fasd8-DoZxjkN6JQULyN-110" source="fasd8-DoZxjkN6JQULyN-115" target="fasd8-DoZxjkN6JQULyN-124">
          <mxGeometry relative="1" as="geometry">
            <mxPoint x="916" y="-52" as="sourcePoint" />
            <mxPoint x="317" y="69" as="targetPoint" />
            <Array as="points">
              <mxPoint x="259" y="66" />
              <mxPoint x="916" y="66" />
            </Array>
          </mxGeometry>
        </mxCell>
        <mxCell id="fasd8-DoZxjkN6JQULyN-135" style="edgeStyle=orthogonalEdgeStyle;rounded=1;orthogonalLoop=1;jettySize=auto;html=1;entryX=0.5;entryY=0;entryDx=0;entryDy=0;fontSize=15;fontColor=#000000;exitX=0.531;exitY=1.003;exitDx=0;exitDy=0;exitPerimeter=0;" parent="fasd8-DoZxjkN6JQULyN-1" edge="1">
          <mxGeometry relative="1" as="geometry">
            <mxPoint x="1302.1350000000002" y="1546.1799999999998" as="sourcePoint" />
            <mxPoint x="1302" y="1592" as="targetPoint" />
          </mxGeometry>
        </mxCell>
        <mxCell id="fasd8-DoZxjkN6JQULyN-136" value="验证" style="edgeLabel;html=1;align=center;verticalAlign=middle;resizable=0;points=[];fontSize=16;" parent="fasd8-DoZxjkN6JQULyN-135" vertex="1" connectable="0">
          <mxGeometry x="-0.0889" y="-2" relative="1" as="geometry">
            <mxPoint as="offset" />
          </mxGeometry>
        </mxCell>
        <mxCell id="fasd8-DoZxjkN6JQULyN-137" value="&lt;font color=&quot;#000000&quot;&gt;测试环境交付&lt;/font&gt;" style="whiteSpace=wrap;html=1;rounded=1;fontColor=#ffffff;strokeWidth=2;arcSize=14;fillColor=#FFFFFF;" parent="fasd8-DoZxjkN6JQULyN-1" vertex="1">
          <mxGeometry x="1254.5" y="1908" width="85" height="60" as="geometry" />
        </mxCell>
        <mxCell id="fasd8-DoZxjkN6JQULyN-138" value="" style="edgeStyle=none;curved=1;rounded=0;orthogonalLoop=1;jettySize=auto;html=1;fontSize=12;startSize=8;endSize=8;" parent="fasd8-DoZxjkN6JQULyN-1" source="fasd8-DoZxjkN6JQULyN-123" target="fasd8-DoZxjkN6JQULyN-137" edge="1">
          <mxGeometry relative="1" as="geometry" />
        </mxCell>
        <mxCell id="fasd8-DoZxjkN6JQULyN-139" value="" style="edgeStyle=none;curved=1;rounded=0;orthogonalLoop=1;jettySize=auto;html=1;fontSize=12;startSize=8;endSize=8;" parent="fasd8-DoZxjkN6JQULyN-1" source="fasd8-DoZxjkN6JQULyN-93" edge="1">
          <mxGeometry relative="1" as="geometry">
            <mxPoint x="589" y="1970" as="targetPoint" />
          </mxGeometry>
        </mxCell>
        <mxCell id="fasd8-DoZxjkN6JQULyN-140" value="否" style="edgeLabel;html=1;align=center;verticalAlign=middle;resizable=0;points=[];fontSize=16;" parent="fasd8-DoZxjkN6JQULyN-139" vertex="1" connectable="0">
          <mxGeometry x="-0.1724" y="-2" relative="1" as="geometry">
            <mxPoint x="-3" as="offset" />
          </mxGeometry>
        </mxCell>
        <mxCell id="fasd8-DoZxjkN6JQULyN-141" value="" style="edgeStyle=none;curved=1;rounded=0;orthogonalLoop=1;jettySize=auto;html=1;fontSize=12;startSize=8;endSize=8;entryX=0.873;entryY=1;entryDx=0;entryDy=0;entryPerimeter=0;" parent="fasd8-DoZxjkN6JQULyN-1" source="fasd8-DoZxjkN6JQULyN-143" target="fasd8-DoZxjkN6JQULyN-92" edge="1">
          <mxGeometry relative="1" as="geometry" />
        </mxCell>
        <mxCell id="fasd8-DoZxjkN6JQULyN-142" value="否" style="edgeLabel;html=1;align=center;verticalAlign=middle;resizable=0;points=[];fontSize=16;" parent="fasd8-DoZxjkN6JQULyN-141" vertex="1" connectable="0">
          <mxGeometry x="-0.1853" relative="1" as="geometry">
            <mxPoint y="4" as="offset" />
          </mxGeometry>
        </mxCell>
        <mxCell id="fasd8-DoZxjkN6JQULyN-143" value="&lt;font style=&quot;font-size: 9px&quot;&gt;是否具备上线条件&lt;/font&gt;" style="rhombus;whiteSpace=wrap;html=1;rounded=1;strokeWidth=2;fillColor=#f0a30a;arcSize=14;strokeColor=#BD7000;fontColor=#ffffff;" parent="fasd8-DoZxjkN6JQULyN-1" vertex="1">
          <mxGeometry x="899" y="2010" width="80" height="80" as="geometry" />
        </mxCell>
        <mxCell id="fasd8-DoZxjkN6JQULyN-144" value="" style="edgeStyle=none;curved=1;rounded=0;orthogonalLoop=1;jettySize=auto;html=1;fontSize=12;startSize=8;endSize=8;entryX=0.089;entryY=0.017;entryDx=0;entryDy=0;entryPerimeter=0;" parent="fasd8-DoZxjkN6JQULyN-1" source="fasd8-DoZxjkN6JQULyN-113" target="fasd8-DoZxjkN6JQULyN-92" edge="1">
          <mxGeometry relative="1" as="geometry" />
        </mxCell>
        <mxCell id="fasd8-DoZxjkN6JQULyN-145" style="edgeStyle=orthogonalEdgeStyle;rounded=1;orthogonalLoop=1;jettySize=auto;html=1;exitX=0.5;exitY=1;exitDx=0;exitDy=0;entryX=1;entryY=0.5;entryDx=0;entryDy=0;" parent="fasd8-DoZxjkN6JQULyN-1" source="fasd8-DoZxjkN6JQULyN-137" target="fasd8-DoZxjkN6JQULyN-143" edge="1">
          <mxGeometry relative="1" as="geometry">
            <mxPoint x="1008.5" y="1945.5" as="sourcePoint" />
            <mxPoint x="1000" y="2040" as="targetPoint" />
            <Array as="points">
              <mxPoint x="1297" y="2010" />
              <mxPoint x="1140" y="2010" />
              <mxPoint x="1140" y="2050" />
            </Array>
          </mxGeometry>
        </mxCell>
        <mxCell id="fasd8-DoZxjkN6JQULyN-146" style="edgeStyle=orthogonalEdgeStyle;rounded=1;orthogonalLoop=1;jettySize=auto;html=1;entryX=1;entryY=0.5;entryDx=0;entryDy=0;exitX=0.5;exitY=1;exitDx=0;exitDy=0;" parent="fasd8-DoZxjkN6JQULyN-1" source="fasd8-DoZxjkN6JQULyN-137" target="fasd8-DoZxjkN6JQULyN-93" edge="1">
          <mxGeometry relative="1" as="geometry">
            <mxPoint x="1300" y="1970" as="sourcePoint" />
            <mxPoint x="989" y="2049" as="targetPoint" />
            <Array as="points">
              <mxPoint x="1297" y="2010" />
              <mxPoint x="700" y="2010" />
              <mxPoint x="700" y="2052" />
            </Array>
          </mxGeometry>
        </mxCell>
        <mxCell id="fasd8-DoZxjkN6JQULyN-147" style="edgeStyle=orthogonalEdgeStyle;rounded=1;orthogonalLoop=1;jettySize=auto;html=1;exitX=0.5;exitY=1;exitDx=0;exitDy=0;entryX=-0.034;entryY=0.523;entryDx=0;entryDy=0;entryPerimeter=0;" parent="fasd8-DoZxjkN6JQULyN-1" source="fasd8-DoZxjkN6JQULyN-143" edge="1">
          <mxGeometry relative="1" as="geometry">
            <mxPoint x="942" y="2092" as="sourcePoint" />
            <mxPoint x="1247.61" y="2125.38" as="targetPoint" />
            <Array as="points">
              <mxPoint x="939" y="2125" />
              <mxPoint x="942" y="2125" />
            </Array>
          </mxGeometry>
        </mxCell>
        <mxCell id="fasd8-DoZxjkN6JQULyN-148" value="是" style="edgeLabel;html=1;align=center;verticalAlign=middle;resizable=0;points=[];fontSize=16;" parent="fasd8-DoZxjkN6JQULyN-147" vertex="1" connectable="0">
          <mxGeometry x="-0.8545" relative="1" as="geometry">
            <mxPoint x="108" y="9" as="offset" />
          </mxGeometry>
        </mxCell>
        <mxCell id="fasd8-DoZxjkN6JQULyN-149" style="edgeStyle=orthogonalEdgeStyle;rounded=1;orthogonalLoop=1;jettySize=auto;html=1;fontSize=20;fontColor=#000000;entryX=1;entryY=0.5;entryDx=0;entryDy=0;entryPerimeter=0;" parent="fasd8-DoZxjkN6JQULyN-1" source="fasd8-DoZxjkN6JQULyN-10" target="fasd8-DoZxjkN6JQULyN-112" edge="1">
          <mxGeometry relative="1" as="geometry">
            <Array as="points">
              <mxPoint x="1450" y="832" />
              <mxPoint x="1450" y="2598" />
            </Array>
            <mxPoint x="634" y="2645" as="targetPoint" />
          </mxGeometry>
        </mxCell>
        <mxCell id="fasd8-DoZxjkN6JQULyN-150" value="不通过" style="edgeLabel;html=1;align=center;verticalAlign=middle;resizable=0;points=[];fontSize=15;fontColor=#000000;" parent="fasd8-DoZxjkN6JQULyN-149" vertex="1" connectable="0">
          <mxGeometry x="-0.7627" y="2" relative="1" as="geometry">
            <mxPoint as="offset" />
          </mxGeometry>
        </mxCell>
      </root>
    </mxGraphModel>
  </diagram>
  <diagram id="r3uk3rJaKT0iphzHhcNI" name="第 2 页">
    <mxGraphModel dx="1674" dy="746" grid="1" gridSize="10" guides="1" tooltips="1" connect="1" arrows="1" fold="1" page="1" pageScale="1" pageWidth="1100" pageHeight="850" math="0" shadow="0">
      <root>
        <mxCell id="WNtmja-gJwcyl_CAXPE7-0" />
        <mxCell id="WNtmja-gJwcyl_CAXPE7-1" parent="WNtmja-gJwcyl_CAXPE7-0" />
        <mxCell id="WNtmja-gJwcyl_CAXPE7-2" value="&lt;font style=&quot;font-size: 30px&quot;&gt;基础运营平台第三方系统部署阶段详细流程&lt;/font&gt;" style="shape=table;childLayout=tableLayout;rowLines=0;columnLines=0;startSize=80;html=1;whiteSpace=wrap;collapsible=0;recursiveResize=0;expand=0;pointerEvents=0;fontStyle=1;align=center;flipH=1;flipV=0;fontSize=20;" parent="WNtmja-gJwcyl_CAXPE7-1" vertex="1">
          <mxGeometry x="380" y="270" width="1090" height="1509" as="geometry" />
        </mxCell>
        <mxCell id="WNtmja-gJwcyl_CAXPE7-4" value="项目启动阶段" style="swimlane;horizontal=0;points=[[0,0.5],[1,0.5]];portConstraint=eastwest;startSize=40;html=1;whiteSpace=wrap;collapsible=0;recursiveResize=0;expand=0;pointerEvents=0;fontStyle=1;fillColor=#dae8fc;strokeColor=#6c8ebf;fontSize=20;gradientColor=#7ea6e0;" parent="WNtmja-gJwcyl_CAXPE7-2" vertex="1">
          <mxGeometry y="80" width="1090" height="550" as="geometry" />
        </mxCell>
        <mxCell id="WNtmja-gJwcyl_CAXPE7-5" value="基础运行平台" style="swimlane;connectable=0;startSize=40;html=1;whiteSpace=wrap;collapsible=0;recursiveResize=0;expand=0;pointerEvents=0;fillColor=#d5e8d4;strokeColor=#82b366;fontSize=20;" parent="WNtmja-gJwcyl_CAXPE7-4" vertex="1">
          <mxGeometry x="40" width="348" height="550" as="geometry" />
        </mxCell>
        <mxCell id="WNtmja-gJwcyl_CAXPE7-6" style="edgeStyle=orthogonalEdgeStyle;rounded=0;orthogonalLoop=1;jettySize=auto;html=1;entryX=0.5;entryY=0;entryDx=0;entryDy=0;fontColor=#000000;" parent="WNtmja-gJwcyl_CAXPE7-5" source="WNtmja-gJwcyl_CAXPE7-7" edge="1">
          <mxGeometry relative="1" as="geometry">
            <mxPoint x="174" y="150" as="targetPoint" />
          </mxGeometry>
        </mxCell>
        <mxCell id="WNtmja-gJwcyl_CAXPE7-7" value="开始" style="strokeWidth=2;html=1;shape=mxgraph.flowchart.terminator;whiteSpace=wrap;fillColor=#60a917;strokeColor=#2D7600;fontColor=#ffffff;" parent="WNtmja-gJwcyl_CAXPE7-5" vertex="1">
          <mxGeometry x="134" y="60" width="80" height="50" as="geometry" />
        </mxCell>
        <mxCell id="NaOJ3H5T2VOoe--cHIjI-0" style="edgeStyle=orthogonalEdgeStyle;rounded=0;orthogonalLoop=1;jettySize=auto;html=1;entryX=0.5;entryY=0;entryDx=0;entryDy=0;fontSize=15;fontColor=#000000;" parent="WNtmja-gJwcyl_CAXPE7-5" source="WNtmja-gJwcyl_CAXPE7-39" target="WNtmja-gJwcyl_CAXPE7-38" edge="1">
          <mxGeometry relative="1" as="geometry" />
        </mxCell>
        <mxCell id="NaOJ3H5T2VOoe--cHIjI-1" style="edgeStyle=orthogonalEdgeStyle;rounded=0;orthogonalLoop=1;jettySize=auto;html=1;entryX=0.5;entryY=0;entryDx=0;entryDy=0;fontSize=15;fontColor=#000000;" parent="WNtmja-gJwcyl_CAXPE7-5" source="WNtmja-gJwcyl_CAXPE7-39" target="WNtmja-gJwcyl_CAXPE7-40" edge="1">
          <mxGeometry relative="1" as="geometry" />
        </mxCell>
        <mxCell id="WNtmja-gJwcyl_CAXPE7-39" value="" style="verticalLabelPosition=bottom;verticalAlign=top;html=1;shape=mxgraph.flowchart.parallel_mode;pointerEvents=1;strokeColor=#000000;fillColor=#FFFFFF;fontColor=#000000;rotation=-180;" parent="WNtmja-gJwcyl_CAXPE7-5" vertex="1">
          <mxGeometry x="106.66" y="150" width="134.69" height="40" as="geometry" />
        </mxCell>
        <mxCell id="WNtmja-gJwcyl_CAXPE7-38" value="&lt;font color=&quot;#000000&quot;&gt;测试环境资源准备&lt;/font&gt;" style="whiteSpace=wrap;html=1;rounded=1;fontColor=#ffffff;strokeWidth=2;arcSize=14;fillColor=#FFFFFF;" parent="WNtmja-gJwcyl_CAXPE7-5" vertex="1">
          <mxGeometry x="45" y="230" width="85" height="60" as="geometry" />
        </mxCell>
        <mxCell id="WNtmja-gJwcyl_CAXPE7-40" value="&lt;font color=&quot;#000000&quot;&gt;生产环境资源准备&lt;/font&gt;" style="whiteSpace=wrap;html=1;rounded=1;fontColor=#ffffff;strokeWidth=2;arcSize=14;fillColor=#FFFFFF;" parent="WNtmja-gJwcyl_CAXPE7-5" vertex="1">
          <mxGeometry x="214" y="230" width="85" height="60" as="geometry" />
        </mxCell>
        <mxCell id="WNtmja-gJwcyl_CAXPE7-44" value="&lt;font color=&quot;#000000&quot;&gt;标准组件接入&lt;/font&gt;" style="whiteSpace=wrap;html=1;rounded=1;fontColor=#ffffff;strokeWidth=2;arcSize=14;fillColor=#FFFFFF;" parent="WNtmja-gJwcyl_CAXPE7-5" vertex="1">
          <mxGeometry x="131.5" y="360" width="85" height="60" as="geometry" />
        </mxCell>
        <mxCell id="WNtmja-gJwcyl_CAXPE7-10" value="项目实施方" style="swimlane;connectable=0;startSize=40;html=1;whiteSpace=wrap;collapsible=0;recursiveResize=0;expand=0;pointerEvents=0;fillColor=#e1d5e7;strokeColor=#9673a6;fontSize=20;" parent="WNtmja-gJwcyl_CAXPE7-4" vertex="1">
          <mxGeometry x="388" width="352" height="550" as="geometry" />
        </mxCell>
        <mxCell id="6l28eqSo6EWm0eU_G_tx-3" style="edgeStyle=orthogonalEdgeStyle;rounded=0;orthogonalLoop=1;jettySize=auto;html=1;exitX=0.5;exitY=1;exitDx=0;exitDy=0;entryX=0.5;entryY=1;entryDx=0;entryDy=0;entryPerimeter=0;fontSize=15;fontColor=#000000;" parent="WNtmja-gJwcyl_CAXPE7-10" source="WNtmja-gJwcyl_CAXPE7-47" target="6l28eqSo6EWm0eU_G_tx-0" edge="1">
          <mxGeometry relative="1" as="geometry" />
        </mxCell>
        <mxCell id="WNtmja-gJwcyl_CAXPE7-47" value="&lt;font color=&quot;#000000&quot;&gt;生产环境部署&lt;/font&gt;" style="whiteSpace=wrap;html=1;rounded=1;fontColor=#ffffff;strokeWidth=2;arcSize=14;fillColor=#FFFFFF;" parent="WNtmja-gJwcyl_CAXPE7-10" vertex="1">
          <mxGeometry x="222" y="140" width="85" height="60" as="geometry" />
        </mxCell>
        <mxCell id="6l28eqSo6EWm0eU_G_tx-2" style="edgeStyle=orthogonalEdgeStyle;rounded=0;orthogonalLoop=1;jettySize=auto;html=1;entryX=0.5;entryY=1;entryDx=0;entryDy=0;entryPerimeter=0;fontSize=15;fontColor=#000000;" parent="WNtmja-gJwcyl_CAXPE7-10" source="WNtmja-gJwcyl_CAXPE7-45" target="6l28eqSo6EWm0eU_G_tx-0" edge="1">
          <mxGeometry relative="1" as="geometry" />
        </mxCell>
        <mxCell id="WNtmja-gJwcyl_CAXPE7-45" value="&lt;font color=&quot;#000000&quot;&gt;测试环境部署&lt;/font&gt;" style="whiteSpace=wrap;html=1;rounded=1;fontColor=#ffffff;strokeWidth=2;arcSize=14;fillColor=#FFFFFF;" parent="WNtmja-gJwcyl_CAXPE7-10" vertex="1">
          <mxGeometry x="52" y="140" width="85" height="60" as="geometry" />
        </mxCell>
        <mxCell id="6l28eqSo6EWm0eU_G_tx-0" value="" style="verticalLabelPosition=bottom;verticalAlign=top;html=1;shape=mxgraph.flowchart.parallel_mode;pointerEvents=1;strokeColor=#000000;fillColor=#FFFFFF;fontColor=#000000;rotation=-180;" parent="WNtmja-gJwcyl_CAXPE7-10" vertex="1">
          <mxGeometry x="70.67" y="250" width="221.34" height="40" as="geometry" />
        </mxCell>
        <mxCell id="6l28eqSo6EWm0eU_G_tx-5" value="&lt;font style=&quot;font-size: 9px&quot;&gt;是否需要接入标准组件&lt;/font&gt;" style="rhombus;whiteSpace=wrap;html=1;rounded=1;strokeWidth=2;fillColor=#f0a30a;arcSize=14;strokeColor=#BD7000;fontColor=#ffffff;" parent="WNtmja-gJwcyl_CAXPE7-10" vertex="1">
          <mxGeometry x="142" y="350" width="80" height="80" as="geometry" />
        </mxCell>
        <mxCell id="WNtmja-gJwcyl_CAXPE7-18" value="项目实施方" style="swimlane;connectable=0;startSize=40;html=1;whiteSpace=wrap;collapsible=0;recursiveResize=0;expand=0;pointerEvents=0;fillColor=#fff2cc;strokeColor=#d6b656;fontSize=20;" parent="WNtmja-gJwcyl_CAXPE7-4" vertex="1">
          <mxGeometry x="740" width="350" height="550" as="geometry" />
        </mxCell>
        <mxCell id="NaOJ3H5T2VOoe--cHIjI-3" style="edgeStyle=orthogonalEdgeStyle;rounded=0;orthogonalLoop=1;jettySize=auto;html=1;fontSize=15;fontColor=#000000;" parent="WNtmja-gJwcyl_CAXPE7-4" source="WNtmja-gJwcyl_CAXPE7-38" target="WNtmja-gJwcyl_CAXPE7-45" edge="1">
          <mxGeometry relative="1" as="geometry">
            <Array as="points">
              <mxPoint x="128" y="330" />
              <mxPoint x="400" y="330" />
              <mxPoint x="400" y="110" />
              <mxPoint x="483" y="110" />
            </Array>
          </mxGeometry>
        </mxCell>
        <mxCell id="NaOJ3H5T2VOoe--cHIjI-4" style="edgeStyle=orthogonalEdgeStyle;rounded=0;orthogonalLoop=1;jettySize=auto;html=1;entryX=0.5;entryY=0;entryDx=0;entryDy=0;fontSize=15;fontColor=#000000;" parent="WNtmja-gJwcyl_CAXPE7-4" source="WNtmja-gJwcyl_CAXPE7-40" target="WNtmja-gJwcyl_CAXPE7-47" edge="1">
          <mxGeometry relative="1" as="geometry">
            <Array as="points">
              <mxPoint x="297" y="310" />
              <mxPoint x="380" y="310" />
              <mxPoint x="380" y="90" />
              <mxPoint x="653" y="90" />
            </Array>
          </mxGeometry>
        </mxCell>
        <mxCell id="6l28eqSo6EWm0eU_G_tx-83" style="edgeStyle=orthogonalEdgeStyle;rounded=0;orthogonalLoop=1;jettySize=auto;html=1;entryX=1;entryY=0.5;entryDx=0;entryDy=0;fontSize=15;fontColor=#000000;" parent="WNtmja-gJwcyl_CAXPE7-4" source="6l28eqSo6EWm0eU_G_tx-5" target="WNtmja-gJwcyl_CAXPE7-44" edge="1">
          <mxGeometry relative="1" as="geometry" />
        </mxCell>
        <mxCell id="6l28eqSo6EWm0eU_G_tx-85" value="是" style="edgeLabel;html=1;align=center;verticalAlign=middle;resizable=0;points=[];fontSize=15;fontColor=#000000;" parent="6l28eqSo6EWm0eU_G_tx-83" vertex="1" connectable="0">
          <mxGeometry x="-0.1079" y="4" relative="1" as="geometry">
            <mxPoint as="offset" />
          </mxGeometry>
        </mxCell>
        <mxCell id="WNtmja-gJwcyl_CAXPE7-34" value="系统部署阶段" style="swimlane;horizontal=0;points=[[0,0.5],[1,0.5]];portConstraint=eastwest;startSize=40;html=1;whiteSpace=wrap;collapsible=0;recursiveResize=0;expand=0;pointerEvents=0;fillColor=#dae8fc;strokeColor=#6c8ebf;fontSize=20;gradientColor=#7ea6e0;" parent="WNtmja-gJwcyl_CAXPE7-2" vertex="1">
          <mxGeometry y="630" width="1090" height="440" as="geometry" />
        </mxCell>
        <mxCell id="WNtmja-gJwcyl_CAXPE7-35" value="" style="swimlane;connectable=0;startSize=0;html=1;whiteSpace=wrap;collapsible=0;recursiveResize=0;expand=0;pointerEvents=0;" parent="WNtmja-gJwcyl_CAXPE7-34" vertex="1">
          <mxGeometry x="40" width="348" height="440" as="geometry" />
        </mxCell>
        <mxCell id="6l28eqSo6EWm0eU_G_tx-88" value="&lt;font color=&quot;#000000&quot;&gt;网络配置&lt;/font&gt;" style="whiteSpace=wrap;html=1;rounded=1;fontColor=#ffffff;strokeWidth=2;arcSize=14;fillColor=#FFFFFF;" parent="WNtmja-gJwcyl_CAXPE7-35" vertex="1">
          <mxGeometry x="131.5" y="29" width="85" height="60" as="geometry" />
        </mxCell>
        <mxCell id="6l28eqSo6EWm0eU_G_tx-100" value="" style="verticalLabelPosition=bottom;verticalAlign=top;html=1;shape=mxgraph.flowchart.parallel_mode;pointerEvents=1;rounded=0;sketch=0;" parent="WNtmja-gJwcyl_CAXPE7-35" vertex="1">
          <mxGeometry x="39" y="249" width="530" height="40" as="geometry" />
        </mxCell>
        <mxCell id="th-yGhuCvGpzpCPbjQl1-5" value="" style="endArrow=classic;html=1;entryX=0.5;entryY=0;entryDx=0;entryDy=0;exitX=0.094;exitY=0.996;exitDx=0;exitDy=0;exitPerimeter=0;" parent="WNtmja-gJwcyl_CAXPE7-35" edge="1">
          <mxGeometry width="50" height="50" relative="1" as="geometry">
            <mxPoint x="340.0000000000002" y="288.8399999999997" as="sourcePoint" />
            <mxPoint x="340.18000000000006" y="349" as="targetPoint" />
          </mxGeometry>
        </mxCell>
        <mxCell id="6l28eqSo6EWm0eU_G_tx-102" value="&lt;font color=&quot;#000000&quot;&gt;安全扫描&lt;/font&gt;" style="whiteSpace=wrap;html=1;rounded=1;fontColor=#ffffff;strokeWidth=2;arcSize=14;fillColor=#FFFFFF;" parent="WNtmja-gJwcyl_CAXPE7-35" vertex="1">
          <mxGeometry x="46.5" y="349" width="85" height="60" as="geometry" />
        </mxCell>
        <mxCell id="th-yGhuCvGpzpCPbjQl1-4" value="&lt;span style=&quot;color: rgba(0 , 0 , 0 , 0) ; font-family: monospace ; font-size: 0px ; background-color: rgb(248 , 249 , 250)&quot;&gt;%3CmxGraphModel%3E%3Croot%3E%3CmxCell%20id%3D%220%22%2F%3E%3CmxCell%20id%3D%221%22%20parent%3D%220%22%2F%3E%3CmxCell%20id%3D%222%22%20value%3D%22%22%20style%3D%22endArrow%3Dclassic%3Bhtml%3D1%3BentryX%3D0.5%3BentryY%3D0%3BentryDx%3D0%3BentryDy%3D0%3BexitX%3D0.094%3BexitY%3D0.996%3BexitDx%3D0%3BexitDy%3D0%3BexitPerimeter%3D0%3B%22%20edge%3D%221%22%20parent%3D%221%22%3E%3CmxGeometry%20width%3D%2250%22%20height%3D%2250%22%20relative%3D%221%22%20as%3D%22geometry%22%3E%3CmxPoint%20x%3D%22508.82000000000016%22%20y%3D%221188.8399999999997%22%20as%3D%22sourcePoint%22%2F%3E%3CmxPoint%20x%3D%22509%22%20y%3D%221249%22%20as%3D%22targetPoint%22%2F%3E%3C%2FmxGeometry%3E%3C%2FmxCell%3E%3C%2Froot%3E%3C%2FmxGraphModel%3E&lt;/span&gt;" style="endArrow=classic;html=1;entryX=0.5;entryY=0;entryDx=0;entryDy=0;exitX=0.094;exitY=0.996;exitDx=0;exitDy=0;exitPerimeter=0;" parent="WNtmja-gJwcyl_CAXPE7-35" source="6l28eqSo6EWm0eU_G_tx-100" target="6l28eqSo6EWm0eU_G_tx-102" edge="1">
          <mxGeometry width="50" height="50" relative="1" as="geometry">
            <mxPoint x="320" y="130" as="sourcePoint" />
            <mxPoint x="370" y="80" as="targetPoint" />
          </mxGeometry>
        </mxCell>
        <mxCell id="WNtmja-gJwcyl_CAXPE7-37" value="" style="swimlane;connectable=0;startSize=0;html=1;whiteSpace=wrap;collapsible=0;recursiveResize=0;expand=0;pointerEvents=0;" parent="WNtmja-gJwcyl_CAXPE7-34" vertex="1">
          <mxGeometry x="388" width="352" height="440" as="geometry" />
        </mxCell>
        <mxCell id="6l28eqSo6EWm0eU_G_tx-90" value="&lt;font color=&quot;#000000&quot;&gt;环境交付&lt;/font&gt;" style="whiteSpace=wrap;html=1;rounded=1;fontColor=#ffffff;strokeWidth=2;arcSize=14;fillColor=#FFFFFF;" parent="WNtmja-gJwcyl_CAXPE7-37" vertex="1">
          <mxGeometry x="-310" y="149" width="531.5" height="60.11" as="geometry" />
        </mxCell>
        <mxCell id="th-yGhuCvGpzpCPbjQl1-8" value="" style="endArrow=classic;html=1;entryX=0.5;entryY=0;entryDx=0;entryDy=0;exitX=0.094;exitY=0.996;exitDx=0;exitDy=0;exitPerimeter=0;" parent="WNtmja-gJwcyl_CAXPE7-37" edge="1">
          <mxGeometry width="50" height="50" relative="1" as="geometry">
            <mxPoint x="178.2900000000002" y="288.8399999999997" as="sourcePoint" />
            <mxPoint x="178.47000000000003" y="349" as="targetPoint" />
          </mxGeometry>
        </mxCell>
        <mxCell id="th-yGhuCvGpzpCPbjQl1-6" value="&lt;font color=&quot;#000000&quot;&gt;功能适配&lt;/font&gt;" style="whiteSpace=wrap;html=1;rounded=1;fontColor=#ffffff;strokeWidth=2;arcSize=14;fillColor=#FFFFFF;" parent="WNtmja-gJwcyl_CAXPE7-37" vertex="1">
          <mxGeometry x="136.5" y="349" width="85" height="60" as="geometry" />
        </mxCell>
        <mxCell id="6l28eqSo6EWm0eU_G_tx-113" value="&lt;font color=&quot;#000000&quot;&gt;监控接入&lt;/font&gt;" style="whiteSpace=wrap;html=1;rounded=1;fontColor=#ffffff;strokeWidth=2;arcSize=14;fillColor=#FFFFFF;" parent="WNtmja-gJwcyl_CAXPE7-37" vertex="1">
          <mxGeometry x="-49" y="349" width="85" height="60" as="geometry" />
        </mxCell>
        <mxCell id="WNtmja-gJwcyl_CAXPE7-42" value="" style="swimlane;connectable=0;startSize=0;html=1;whiteSpace=wrap;collapsible=0;recursiveResize=0;expand=0;pointerEvents=0;" parent="WNtmja-gJwcyl_CAXPE7-34" vertex="1">
          <mxGeometry x="740" width="350" height="440" as="geometry" />
        </mxCell>
        <mxCell id="6l28eqSo6EWm0eU_G_tx-93" style="edgeStyle=orthogonalEdgeStyle;rounded=0;sketch=0;orthogonalLoop=1;jettySize=auto;html=1;entryX=0.5;entryY=0;entryDx=0;entryDy=0;" parent="WNtmja-gJwcyl_CAXPE7-34" source="6l28eqSo6EWm0eU_G_tx-88" target="6l28eqSo6EWm0eU_G_tx-90" edge="1">
          <mxGeometry relative="1" as="geometry" />
        </mxCell>
        <mxCell id="th-yGhuCvGpzpCPbjQl1-3" value="" style="endArrow=classic;html=1;exitX=0.5;exitY=1;exitDx=0;exitDy=0;entryX=0.5;entryY=0;entryDx=0;entryDy=0;entryPerimeter=0;" parent="WNtmja-gJwcyl_CAXPE7-34" source="6l28eqSo6EWm0eU_G_tx-90" target="6l28eqSo6EWm0eU_G_tx-100" edge="1">
          <mxGeometry width="50" height="50" relative="1" as="geometry">
            <mxPoint x="360" y="130" as="sourcePoint" />
            <mxPoint x="410" y="80" as="targetPoint" />
          </mxGeometry>
        </mxCell>
        <mxCell id="WNtmja-gJwcyl_CAXPE7-58" value="系统上线准备阶段" style="swimlane;horizontal=0;points=[[0,0.5],[1,0.5]];portConstraint=eastwest;startSize=40;html=1;whiteSpace=wrap;collapsible=0;recursiveResize=0;expand=0;pointerEvents=0;fillColor=#dae8fc;strokeColor=#6c8ebf;fontSize=20;gradientColor=#7ea6e0;" parent="WNtmja-gJwcyl_CAXPE7-2" vertex="1">
          <mxGeometry y="1070" width="1090" height="439" as="geometry" />
        </mxCell>
        <mxCell id="WNtmja-gJwcyl_CAXPE7-59" value="" style="swimlane;connectable=0;startSize=0;html=1;whiteSpace=wrap;collapsible=0;recursiveResize=0;expand=0;pointerEvents=0;" parent="WNtmja-gJwcyl_CAXPE7-58" vertex="1">
          <mxGeometry x="40" width="348" height="439" as="geometry" />
        </mxCell>
        <mxCell id="th-yGhuCvGpzpCPbjQl1-9" value="" style="verticalLabelPosition=bottom;verticalAlign=top;html=1;shape=mxgraph.flowchart.parallel_mode;pointerEvents=1;strokeColor=#000000;fillColor=#FFFFFF;fontColor=#000000;rotation=-180;" parent="WNtmja-gJwcyl_CAXPE7-59" vertex="1">
          <mxGeometry x="44.66" y="29" width="338" height="40" as="geometry" />
        </mxCell>
        <mxCell id="th-yGhuCvGpzpCPbjQl1-10" value="" style="endArrow=classic;html=1;entryX=0.5;entryY=0;entryDx=0;entryDy=0;exitX=0.094;exitY=0.996;exitDx=0;exitDy=0;exitPerimeter=0;" parent="WNtmja-gJwcyl_CAXPE7-59" edge="1">
          <mxGeometry width="50" height="50" relative="1" as="geometry">
            <mxPoint x="86.79000000000019" y="-31.000000000000227" as="sourcePoint" />
            <mxPoint x="86.97000000000003" y="29.160000000000082" as="targetPoint" />
          </mxGeometry>
        </mxCell>
        <mxCell id="th-yGhuCvGpzpCPbjQl1-11" value="&lt;span style=&quot;color: rgba(0 , 0 , 0 , 0) ; font-family: monospace ; font-size: 0px ; background-color: rgb(248 , 249 , 250)&quot;&gt;%3CmxGraphModel%3E%3Croot%3E%3CmxCell%20id%3D%220%22%2F%3E%3CmxCell%20id%3D%221%22%20parent%3D%220%22%2F%3E%3CmxCell%20id%3D%222%22%20value%3D%22%22%20style%3D%22endArrow%3Dclassic%3Bhtml%3D1%3BentryX%3D0.5%3BentryY%3D0%3BentryDx%3D0%3BentryDy%3D0%3BexitX%3D0.094%3BexitY%3D0.996%3BexitDx%3D0%3BexitDy%3D0%3BexitPerimeter%3D0%3B%22%20edge%3D%221%22%20parent%3D%221%22%3E%3CmxGeometry%20width%3D%2250%22%20height%3D%2250%22%20relative%3D%221%22%20as%3D%22geometry%22%3E%3CmxPoint%20x%3D%22508.82000000000016%22%20y%3D%221188.8399999999997%22%20as%3D%22sourcePoint%22%2F%3E%3CmxPoint%20x%3D%22509%22%20y%3D%221249%22%20as%3D%22targetPoint%22%2F%3E%3C%2FmxGeometry%3E%3C%2FmxCell%3E%3C%2Froot%3E%3C%2FmxGraphModel%3E&lt;/span&gt;" style="endArrow=classic;html=1;entryX=0.5;entryY=0;entryDx=0;entryDy=0;exitX=0.094;exitY=0.996;exitDx=0;exitDy=0;exitPerimeter=0;" parent="WNtmja-gJwcyl_CAXPE7-59" edge="1">
          <mxGeometry width="50" height="50" relative="1" as="geometry">
            <mxPoint x="340.0000000000002" y="-31.16000000000031" as="sourcePoint" />
            <mxPoint x="340.18000000000006" y="29" as="targetPoint" />
          </mxGeometry>
        </mxCell>
        <mxCell id="WNtmja-gJwcyl_CAXPE7-61" value="" style="swimlane;connectable=0;startSize=0;html=1;whiteSpace=wrap;collapsible=0;recursiveResize=0;expand=0;pointerEvents=0;" parent="WNtmja-gJwcyl_CAXPE7-58" vertex="1">
          <mxGeometry x="388" width="352" height="439" as="geometry" />
        </mxCell>
        <mxCell id="th-yGhuCvGpzpCPbjQl1-16" style="edgeStyle=orthogonalEdgeStyle;rounded=0;sketch=0;orthogonalLoop=1;jettySize=auto;html=1;" parent="WNtmja-gJwcyl_CAXPE7-61" source="th-yGhuCvGpzpCPbjQl1-12" target="th-yGhuCvGpzpCPbjQl1-15" edge="1">
          <mxGeometry relative="1" as="geometry" />
        </mxCell>
        <mxCell id="th-yGhuCvGpzpCPbjQl1-12" value="&lt;font color=&quot;#000000&quot;&gt;问题整改&lt;/font&gt;" style="whiteSpace=wrap;html=1;rounded=1;fontColor=#ffffff;strokeWidth=2;arcSize=14;fillColor=#FFFFFF;" parent="WNtmja-gJwcyl_CAXPE7-61" vertex="1">
          <mxGeometry x="139.5" y="140" width="85" height="60" as="geometry" />
        </mxCell>
        <mxCell id="th-yGhuCvGpzpCPbjQl1-20" style="edgeStyle=orthogonalEdgeStyle;rounded=0;sketch=0;orthogonalLoop=1;jettySize=auto;html=1;entryX=1;entryY=0.5;entryDx=0;entryDy=0;" parent="WNtmja-gJwcyl_CAXPE7-61" source="th-yGhuCvGpzpCPbjQl1-15" target="th-yGhuCvGpzpCPbjQl1-12" edge="1">
          <mxGeometry relative="1" as="geometry">
            <Array as="points">
              <mxPoint x="182" y="299" />
              <mxPoint x="292" y="299" />
              <mxPoint x="292" y="170" />
            </Array>
          </mxGeometry>
        </mxCell>
        <mxCell id="th-yGhuCvGpzpCPbjQl1-21" value="否" style="edgeLabel;html=1;align=center;verticalAlign=middle;resizable=0;points=[];" parent="th-yGhuCvGpzpCPbjQl1-20" vertex="1" connectable="0">
          <mxGeometry x="0.2129" y="3" relative="1" as="geometry">
            <mxPoint as="offset" />
          </mxGeometry>
        </mxCell>
        <mxCell id="th-yGhuCvGpzpCPbjQl1-15" value="&lt;font style=&quot;font-size: 9px&quot;&gt;是否整改完成&lt;/font&gt;" style="rhombus;whiteSpace=wrap;html=1;rounded=1;strokeWidth=2;fillColor=#f0a30a;arcSize=14;strokeColor=#BD7000;fontColor=#ffffff;" parent="WNtmja-gJwcyl_CAXPE7-61" vertex="1">
          <mxGeometry x="142" y="259" width="80" height="80" as="geometry" />
        </mxCell>
        <mxCell id="th-yGhuCvGpzpCPbjQl1-18" value="是" style="edgeStyle=orthogonalEdgeStyle;rounded=0;sketch=0;orthogonalLoop=1;jettySize=auto;html=1;" parent="WNtmja-gJwcyl_CAXPE7-61" source="th-yGhuCvGpzpCPbjQl1-15" edge="1">
          <mxGeometry relative="1" as="geometry">
            <mxPoint x="182" y="390" as="targetPoint" />
          </mxGeometry>
        </mxCell>
        <mxCell id="th-yGhuCvGpzpCPbjQl1-19" value="结束" style="strokeWidth=2;html=1;shape=mxgraph.flowchart.terminator;whiteSpace=wrap;fillColor=#60a917;strokeColor=#2D7600;fontColor=#ffffff;" parent="WNtmja-gJwcyl_CAXPE7-61" vertex="1">
          <mxGeometry x="142" y="389" width="80" height="50" as="geometry" />
        </mxCell>
        <mxCell id="WNtmja-gJwcyl_CAXPE7-64" value="" style="swimlane;connectable=0;startSize=0;html=1;whiteSpace=wrap;collapsible=0;recursiveResize=0;expand=0;pointerEvents=0;" parent="WNtmja-gJwcyl_CAXPE7-58" vertex="1">
          <mxGeometry x="740" width="350" height="439" as="geometry" />
        </mxCell>
        <mxCell id="th-yGhuCvGpzpCPbjQl1-14" style="edgeStyle=orthogonalEdgeStyle;rounded=0;sketch=0;orthogonalLoop=1;jettySize=auto;html=1;entryX=0;entryY=0.5;entryDx=0;entryDy=0;" parent="WNtmja-gJwcyl_CAXPE7-58" source="th-yGhuCvGpzpCPbjQl1-9" target="th-yGhuCvGpzpCPbjQl1-12" edge="1">
          <mxGeometry relative="1" as="geometry">
            <Array as="points">
              <mxPoint x="254" y="170" />
            </Array>
          </mxGeometry>
        </mxCell>
        <mxCell id="6l28eqSo6EWm0eU_G_tx-94" style="edgeStyle=orthogonalEdgeStyle;rounded=0;sketch=0;orthogonalLoop=1;jettySize=auto;html=1;entryX=0.5;entryY=0;entryDx=0;entryDy=0;" parent="WNtmja-gJwcyl_CAXPE7-2" source="WNtmja-gJwcyl_CAXPE7-44" target="6l28eqSo6EWm0eU_G_tx-88" edge="1">
          <mxGeometry relative="1" as="geometry" />
        </mxCell>
        <mxCell id="6l28eqSo6EWm0eU_G_tx-95" value="" style="edgeStyle=orthogonalEdgeStyle;rounded=0;sketch=0;orthogonalLoop=1;jettySize=auto;html=1;entryX=0.5;entryY=0;entryDx=0;entryDy=0;" parent="WNtmja-gJwcyl_CAXPE7-2" source="6l28eqSo6EWm0eU_G_tx-5" target="6l28eqSo6EWm0eU_G_tx-88" edge="1">
          <mxGeometry relative="1" as="geometry">
            <Array as="points">
              <mxPoint x="570" y="600" />
              <mxPoint x="214" y="600" />
            </Array>
          </mxGeometry>
        </mxCell>
        <mxCell id="6l28eqSo6EWm0eU_G_tx-97" value="否" style="edgeLabel;html=1;align=center;verticalAlign=middle;resizable=0;points=[];" parent="6l28eqSo6EWm0eU_G_tx-95" vertex="1" connectable="0">
          <mxGeometry x="-0.0482" relative="1" as="geometry">
            <mxPoint as="offset" />
          </mxGeometry>
        </mxCell>
        <mxCell id="6l28eqSo6EWm0eU_G_tx-4" style="edgeStyle=orthogonalEdgeStyle;rounded=0;orthogonalLoop=1;jettySize=auto;html=1;fontSize=15;fontColor=#000000;" parent="WNtmja-gJwcyl_CAXPE7-1" source="6l28eqSo6EWm0eU_G_tx-0" edge="1">
          <mxGeometry relative="1" as="geometry">
            <mxPoint x="949.3400000000001" y="700" as="targetPoint" />
          </mxGeometry>
        </mxCell>
      </root>
    </mxGraphModel>
  </diagram>
  <diagram id="83Df-2b6mkDkvS4sSQvj" name="第 3 页">
    <mxGraphModel dx="1674" dy="746" grid="1" gridSize="10" guides="1" tooltips="1" connect="1" arrows="1" fold="1" page="1" pageScale="1" pageWidth="1100" pageHeight="850" math="0" shadow="0">
      <root>
        <mxCell id="gH0qHTAtDWhJT-xF3Wil-0" />
        <mxCell id="gH0qHTAtDWhJT-xF3Wil-1" parent="gH0qHTAtDWhJT-xF3Wil-0" />
        <mxCell id="thzycsS28JE1chbCBtaL-0" style="edgeStyle=orthogonalEdgeStyle;rounded=1;orthogonalLoop=1;jettySize=auto;html=1;entryX=0.5;entryY=0;entryDx=0;entryDy=0;fontColor=#000000;" parent="gH0qHTAtDWhJT-xF3Wil-1" source="thzycsS28JE1chbCBtaL-1" edge="1">
          <mxGeometry relative="1" as="geometry">
            <mxPoint x="381" y="300" as="targetPoint" />
          </mxGeometry>
        </mxCell>
        <mxCell id="thzycsS28JE1chbCBtaL-1" value="开始" style="strokeWidth=2;html=1;shape=mxgraph.flowchart.terminator;whiteSpace=wrap;fillColor=#60a917;strokeColor=#2D7600;fontColor=#ffffff;" parent="gH0qHTAtDWhJT-xF3Wil-1" vertex="1">
          <mxGeometry x="341" y="210" width="80" height="50" as="geometry" />
        </mxCell>
        <mxCell id="thzycsS28JE1chbCBtaL-2" style="edgeStyle=orthogonalEdgeStyle;rounded=1;orthogonalLoop=1;jettySize=auto;html=1;entryX=0.5;entryY=0;entryDx=0;entryDy=0;fontSize=15;fontColor=#000000;" parent="gH0qHTAtDWhJT-xF3Wil-1" source="thzycsS28JE1chbCBtaL-4" target="thzycsS28JE1chbCBtaL-5" edge="1">
          <mxGeometry relative="1" as="geometry" />
        </mxCell>
        <mxCell id="thzycsS28JE1chbCBtaL-3" style="edgeStyle=orthogonalEdgeStyle;rounded=1;orthogonalLoop=1;jettySize=auto;html=1;entryX=0.5;entryY=0;entryDx=0;entryDy=0;fontSize=15;fontColor=#000000;" parent="gH0qHTAtDWhJT-xF3Wil-1" source="thzycsS28JE1chbCBtaL-4" target="thzycsS28JE1chbCBtaL-6" edge="1">
          <mxGeometry relative="1" as="geometry" />
        </mxCell>
        <mxCell id="thzycsS28JE1chbCBtaL-4" value="" style="verticalLabelPosition=bottom;verticalAlign=top;html=1;shape=mxgraph.flowchart.parallel_mode;pointerEvents=1;strokeColor=#000000;fillColor=#FFFFFF;fontColor=#000000;rotation=-180;" parent="gH0qHTAtDWhJT-xF3Wil-1" vertex="1">
          <mxGeometry x="313.65999999999997" y="300" width="134.69" height="40" as="geometry" />
        </mxCell>
        <mxCell id="thzycsS28JE1chbCBtaL-5" value="&lt;font color=&quot;#000000&quot;&gt;测试环境资源准备&lt;/font&gt;" style="whiteSpace=wrap;html=1;rounded=1;fontColor=#ffffff;strokeWidth=2;arcSize=14;fillColor=#FFFFFF;" parent="gH0qHTAtDWhJT-xF3Wil-1" vertex="1">
          <mxGeometry x="252" y="380" width="85" height="60" as="geometry" />
        </mxCell>
        <mxCell id="thzycsS28JE1chbCBtaL-6" value="&lt;font color=&quot;#000000&quot;&gt;生产环境资源准备&lt;/font&gt;" style="whiteSpace=wrap;html=1;rounded=1;fontColor=#ffffff;strokeWidth=2;arcSize=14;fillColor=#FFFFFF;" parent="gH0qHTAtDWhJT-xF3Wil-1" vertex="1">
          <mxGeometry x="421" y="380" width="85" height="60" as="geometry" />
        </mxCell>
        <mxCell id="thzycsS28JE1chbCBtaL-7" value="&lt;font color=&quot;#000000&quot;&gt;标准组件接入&lt;/font&gt;" style="whiteSpace=wrap;html=1;rounded=1;fontColor=#ffffff;strokeWidth=2;arcSize=14;fillColor=#FFFFFF;" parent="gH0qHTAtDWhJT-xF3Wil-1" vertex="1">
          <mxGeometry x="338.5" y="510" width="85" height="60" as="geometry" />
        </mxCell>
        <mxCell id="thzycsS28JE1chbCBtaL-8" style="edgeStyle=orthogonalEdgeStyle;rounded=1;orthogonalLoop=1;jettySize=auto;html=1;exitX=0.5;exitY=1;exitDx=0;exitDy=0;entryX=0.5;entryY=1;entryDx=0;entryDy=0;entryPerimeter=0;fontSize=15;fontColor=#000000;" parent="gH0qHTAtDWhJT-xF3Wil-1" source="thzycsS28JE1chbCBtaL-9" target="thzycsS28JE1chbCBtaL-12" edge="1">
          <mxGeometry relative="1" as="geometry" />
        </mxCell>
        <mxCell id="thzycsS28JE1chbCBtaL-9" value="&lt;font color=&quot;#000000&quot;&gt;生产环境部署&lt;/font&gt;" style="whiteSpace=wrap;html=1;rounded=1;fontColor=#ffffff;strokeWidth=2;arcSize=14;fillColor=#FFFFFF;" parent="gH0qHTAtDWhJT-xF3Wil-1" vertex="1">
          <mxGeometry x="777" y="290" width="85" height="60" as="geometry" />
        </mxCell>
        <mxCell id="thzycsS28JE1chbCBtaL-10" style="edgeStyle=orthogonalEdgeStyle;rounded=1;orthogonalLoop=1;jettySize=auto;html=1;entryX=0.5;entryY=1;entryDx=0;entryDy=0;entryPerimeter=0;fontSize=15;fontColor=#000000;" parent="gH0qHTAtDWhJT-xF3Wil-1" source="thzycsS28JE1chbCBtaL-11" target="thzycsS28JE1chbCBtaL-12" edge="1">
          <mxGeometry relative="1" as="geometry" />
        </mxCell>
        <mxCell id="thzycsS28JE1chbCBtaL-11" value="&lt;font color=&quot;#000000&quot;&gt;测试环境部署&lt;/font&gt;" style="whiteSpace=wrap;html=1;rounded=1;fontColor=#ffffff;strokeWidth=2;arcSize=14;fillColor=#FFFFFF;" parent="gH0qHTAtDWhJT-xF3Wil-1" vertex="1">
          <mxGeometry x="607" y="290" width="85" height="60" as="geometry" />
        </mxCell>
        <mxCell id="thzycsS28JE1chbCBtaL-12" value="" style="verticalLabelPosition=bottom;verticalAlign=top;html=1;shape=mxgraph.flowchart.parallel_mode;pointerEvents=1;strokeColor=#000000;fillColor=#FFFFFF;fontColor=#000000;rotation=-180;" parent="gH0qHTAtDWhJT-xF3Wil-1" vertex="1">
          <mxGeometry x="625.67" y="400" width="221.34" height="40" as="geometry" />
        </mxCell>
        <mxCell id="thzycsS28JE1chbCBtaL-13" value="&lt;font style=&quot;font-size: 9px&quot;&gt;是否需要接入标准组件&lt;/font&gt;" style="rhombus;whiteSpace=wrap;html=1;rounded=1;strokeWidth=2;fillColor=#f0a30a;arcSize=14;strokeColor=#BD7000;fontColor=#ffffff;" parent="gH0qHTAtDWhJT-xF3Wil-1" vertex="1">
          <mxGeometry x="697" y="500" width="80" height="80" as="geometry" />
        </mxCell>
        <mxCell id="thzycsS28JE1chbCBtaL-14" style="edgeStyle=orthogonalEdgeStyle;rounded=1;orthogonalLoop=1;jettySize=auto;html=1;fontSize=15;fontColor=#000000;" parent="gH0qHTAtDWhJT-xF3Wil-1" source="thzycsS28JE1chbCBtaL-5" target="thzycsS28JE1chbCBtaL-11" edge="1">
          <mxGeometry relative="1" as="geometry">
            <Array as="points">
              <mxPoint x="295" y="480" />
              <mxPoint x="567" y="480" />
              <mxPoint x="567" y="260" />
              <mxPoint x="650" y="260" />
            </Array>
          </mxGeometry>
        </mxCell>
        <mxCell id="thzycsS28JE1chbCBtaL-15" style="edgeStyle=orthogonalEdgeStyle;rounded=1;orthogonalLoop=1;jettySize=auto;html=1;entryX=0.5;entryY=0;entryDx=0;entryDy=0;fontSize=15;fontColor=#000000;" parent="gH0qHTAtDWhJT-xF3Wil-1" source="thzycsS28JE1chbCBtaL-6" target="thzycsS28JE1chbCBtaL-9" edge="1">
          <mxGeometry relative="1" as="geometry">
            <Array as="points">
              <mxPoint x="464" y="460" />
              <mxPoint x="547" y="460" />
              <mxPoint x="547" y="240" />
              <mxPoint x="820" y="240" />
            </Array>
          </mxGeometry>
        </mxCell>
        <mxCell id="thzycsS28JE1chbCBtaL-16" style="edgeStyle=orthogonalEdgeStyle;rounded=1;orthogonalLoop=1;jettySize=auto;html=1;entryX=1;entryY=0.5;entryDx=0;entryDy=0;fontSize=15;fontColor=#000000;" parent="gH0qHTAtDWhJT-xF3Wil-1" source="thzycsS28JE1chbCBtaL-13" target="thzycsS28JE1chbCBtaL-7" edge="1">
          <mxGeometry relative="1" as="geometry" />
        </mxCell>
        <mxCell id="thzycsS28JE1chbCBtaL-17" value="是" style="edgeLabel;html=1;align=center;verticalAlign=middle;resizable=0;points=[];fontSize=15;fontColor=#000000;" parent="thzycsS28JE1chbCBtaL-16" vertex="1" connectable="0">
          <mxGeometry x="-0.1079" y="4" relative="1" as="geometry">
            <mxPoint as="offset" />
          </mxGeometry>
        </mxCell>
        <mxCell id="thzycsS28JE1chbCBtaL-18" value="&lt;font color=&quot;#000000&quot;&gt;网络配置&lt;/font&gt;" style="whiteSpace=wrap;html=1;rounded=1;fontColor=#ffffff;strokeWidth=2;arcSize=14;fillColor=#FFFFFF;" parent="gH0qHTAtDWhJT-xF3Wil-1" vertex="1">
          <mxGeometry x="338.5" y="729" width="85" height="60" as="geometry" />
        </mxCell>
        <mxCell id="thzycsS28JE1chbCBtaL-19" value="" style="verticalLabelPosition=bottom;verticalAlign=top;html=1;shape=mxgraph.flowchart.parallel_mode;pointerEvents=1;rounded=0;sketch=0;" parent="gH0qHTAtDWhJT-xF3Wil-1" vertex="1">
          <mxGeometry x="246" y="949" width="530" height="40" as="geometry" />
        </mxCell>
        <mxCell id="thzycsS28JE1chbCBtaL-20" value="" style="endArrow=classic;html=1;entryX=0.5;entryY=0;entryDx=0;entryDy=0;exitX=0.094;exitY=0.996;exitDx=0;exitDy=0;exitPerimeter=0;rounded=1;" parent="gH0qHTAtDWhJT-xF3Wil-1" edge="1">
          <mxGeometry width="50" height="50" relative="1" as="geometry">
            <mxPoint x="547" y="988.8399999999997" as="sourcePoint" />
            <mxPoint x="547.1800000000003" y="1049" as="targetPoint" />
          </mxGeometry>
        </mxCell>
        <mxCell id="thzycsS28JE1chbCBtaL-21" value="&lt;font color=&quot;#000000&quot;&gt;安全扫描&lt;/font&gt;" style="whiteSpace=wrap;html=1;rounded=1;fontColor=#ffffff;strokeWidth=2;arcSize=14;fillColor=#FFFFFF;" parent="gH0qHTAtDWhJT-xF3Wil-1" vertex="1">
          <mxGeometry x="253.5" y="1049" width="85" height="60" as="geometry" />
        </mxCell>
        <mxCell id="thzycsS28JE1chbCBtaL-22" value="&lt;span style=&quot;color: rgba(0 , 0 , 0 , 0) ; font-family: monospace ; font-size: 0px ; background-color: rgb(248 , 249 , 250)&quot;&gt;%3CmxGraphModel%3E%3Croot%3E%3CmxCell%20id%3D%220%22%2F%3E%3CmxCell%20id%3D%221%22%20parent%3D%220%22%2F%3E%3CmxCell%20id%3D%222%22%20value%3D%22%22%20style%3D%22endArrow%3Dclassic%3Bhtml%3D1%3BentryX%3D0.5%3BentryY%3D0%3BentryDx%3D0%3BentryDy%3D0%3BexitX%3D0.094%3BexitY%3D0.996%3BexitDx%3D0%3BexitDy%3D0%3BexitPerimeter%3D0%3B%22%20edge%3D%221%22%20parent%3D%221%22%3E%3CmxGeometry%20width%3D%2250%22%20height%3D%2250%22%20relative%3D%221%22%20as%3D%22geometry%22%3E%3CmxPoint%20x%3D%22508.82000000000016%22%20y%3D%221188.8399999999997%22%20as%3D%22sourcePoint%22%2F%3E%3CmxPoint%20x%3D%22509%22%20y%3D%221249%22%20as%3D%22targetPoint%22%2F%3E%3C%2FmxGeometry%3E%3C%2FmxCell%3E%3C%2Froot%3E%3C%2FmxGraphModel%3E&lt;/span&gt;" style="endArrow=classic;html=1;entryX=0.5;entryY=0;entryDx=0;entryDy=0;exitX=0.094;exitY=0.996;exitDx=0;exitDy=0;exitPerimeter=0;rounded=1;" parent="gH0qHTAtDWhJT-xF3Wil-1" source="thzycsS28JE1chbCBtaL-19" target="thzycsS28JE1chbCBtaL-21" edge="1">
          <mxGeometry width="50" height="50" relative="1" as="geometry">
            <mxPoint x="107" y="-70" as="sourcePoint" />
            <mxPoint x="157" y="-120" as="targetPoint" />
          </mxGeometry>
        </mxCell>
        <mxCell id="thzycsS28JE1chbCBtaL-23" value="&lt;font color=&quot;#000000&quot;&gt;环境交付&lt;/font&gt;" style="whiteSpace=wrap;html=1;rounded=1;fontColor=#ffffff;strokeWidth=2;arcSize=14;fillColor=#FFFFFF;" parent="gH0qHTAtDWhJT-xF3Wil-1" vertex="1">
          <mxGeometry x="245" y="849" width="531.5" height="60.11" as="geometry" />
        </mxCell>
        <mxCell id="thzycsS28JE1chbCBtaL-24" value="" style="endArrow=classic;html=1;entryX=0.5;entryY=0;entryDx=0;entryDy=0;exitX=0.094;exitY=0.996;exitDx=0;exitDy=0;exitPerimeter=0;rounded=1;" parent="gH0qHTAtDWhJT-xF3Wil-1" edge="1">
          <mxGeometry width="50" height="50" relative="1" as="geometry">
            <mxPoint x="733.29" y="988.8399999999997" as="sourcePoint" />
            <mxPoint x="733.4700000000003" y="1049" as="targetPoint" />
          </mxGeometry>
        </mxCell>
        <mxCell id="thzycsS28JE1chbCBtaL-25" value="&lt;font color=&quot;#000000&quot;&gt;功能适配&lt;/font&gt;" style="whiteSpace=wrap;html=1;rounded=1;fontColor=#ffffff;strokeWidth=2;arcSize=14;fillColor=#FFFFFF;" parent="gH0qHTAtDWhJT-xF3Wil-1" vertex="1">
          <mxGeometry x="691.5" y="1049" width="85" height="60" as="geometry" />
        </mxCell>
        <mxCell id="thzycsS28JE1chbCBtaL-26" value="&lt;font color=&quot;#000000&quot;&gt;监控接入&lt;/font&gt;" style="whiteSpace=wrap;html=1;rounded=1;fontColor=#ffffff;strokeWidth=2;arcSize=14;fillColor=#FFFFFF;" parent="gH0qHTAtDWhJT-xF3Wil-1" vertex="1">
          <mxGeometry x="506" y="1049" width="85" height="60" as="geometry" />
        </mxCell>
        <mxCell id="thzycsS28JE1chbCBtaL-27" style="edgeStyle=orthogonalEdgeStyle;rounded=1;sketch=0;orthogonalLoop=1;jettySize=auto;html=1;entryX=0.5;entryY=0;entryDx=0;entryDy=0;" parent="gH0qHTAtDWhJT-xF3Wil-1" source="thzycsS28JE1chbCBtaL-18" target="thzycsS28JE1chbCBtaL-23" edge="1">
          <mxGeometry relative="1" as="geometry" />
        </mxCell>
        <mxCell id="thzycsS28JE1chbCBtaL-28" value="" style="endArrow=classic;html=1;exitX=0.5;exitY=1;exitDx=0;exitDy=0;entryX=0.5;entryY=0;entryDx=0;entryDy=0;entryPerimeter=0;rounded=1;" parent="gH0qHTAtDWhJT-xF3Wil-1" source="thzycsS28JE1chbCBtaL-23" target="thzycsS28JE1chbCBtaL-19" edge="1">
          <mxGeometry width="50" height="50" relative="1" as="geometry">
            <mxPoint x="147" y="-70" as="sourcePoint" />
            <mxPoint x="197" y="-120" as="targetPoint" />
          </mxGeometry>
        </mxCell>
        <mxCell id="thzycsS28JE1chbCBtaL-29" value="" style="verticalLabelPosition=bottom;verticalAlign=top;html=1;shape=mxgraph.flowchart.parallel_mode;pointerEvents=1;strokeColor=#000000;fillColor=#FFFFFF;fontColor=#000000;rotation=-180;" parent="gH0qHTAtDWhJT-xF3Wil-1" vertex="1">
          <mxGeometry x="251.65999999999997" y="1169" width="338" height="40" as="geometry" />
        </mxCell>
        <mxCell id="thzycsS28JE1chbCBtaL-30" value="" style="endArrow=classic;html=1;entryX=0.5;entryY=0;entryDx=0;entryDy=0;exitX=0.094;exitY=0.996;exitDx=0;exitDy=0;exitPerimeter=0;rounded=1;" parent="gH0qHTAtDWhJT-xF3Wil-1" edge="1">
          <mxGeometry width="50" height="50" relative="1" as="geometry">
            <mxPoint x="293.78999999999996" y="1109" as="sourcePoint" />
            <mxPoint x="293.97000000000025" y="1169.1599999999999" as="targetPoint" />
          </mxGeometry>
        </mxCell>
        <mxCell id="thzycsS28JE1chbCBtaL-31" value="&lt;span style=&quot;color: rgba(0 , 0 , 0 , 0) ; font-family: monospace ; font-size: 0px ; background-color: rgb(248 , 249 , 250)&quot;&gt;%3CmxGraphModel%3E%3Croot%3E%3CmxCell%20id%3D%220%22%2F%3E%3CmxCell%20id%3D%221%22%20parent%3D%220%22%2F%3E%3CmxCell%20id%3D%222%22%20value%3D%22%22%20style%3D%22endArrow%3Dclassic%3Bhtml%3D1%3BentryX%3D0.5%3BentryY%3D0%3BentryDx%3D0%3BentryDy%3D0%3BexitX%3D0.094%3BexitY%3D0.996%3BexitDx%3D0%3BexitDy%3D0%3BexitPerimeter%3D0%3B%22%20edge%3D%221%22%20parent%3D%221%22%3E%3CmxGeometry%20width%3D%2250%22%20height%3D%2250%22%20relative%3D%221%22%20as%3D%22geometry%22%3E%3CmxPoint%20x%3D%22508.82000000000016%22%20y%3D%221188.8399999999997%22%20as%3D%22sourcePoint%22%2F%3E%3CmxPoint%20x%3D%22509%22%20y%3D%221249%22%20as%3D%22targetPoint%22%2F%3E%3C%2FmxGeometry%3E%3C%2FmxCell%3E%3C%2Froot%3E%3C%2FmxGraphModel%3E&lt;/span&gt;" style="endArrow=classic;html=1;entryX=0.5;entryY=0;entryDx=0;entryDy=0;exitX=0.094;exitY=0.996;exitDx=0;exitDy=0;exitPerimeter=0;rounded=1;" parent="gH0qHTAtDWhJT-xF3Wil-1" edge="1">
          <mxGeometry width="50" height="50" relative="1" as="geometry">
            <mxPoint x="547" y="1108.8399999999997" as="sourcePoint" />
            <mxPoint x="547.1800000000003" y="1169" as="targetPoint" />
          </mxGeometry>
        </mxCell>
        <mxCell id="thzycsS28JE1chbCBtaL-32" style="edgeStyle=orthogonalEdgeStyle;rounded=1;sketch=0;orthogonalLoop=1;jettySize=auto;html=1;" parent="gH0qHTAtDWhJT-xF3Wil-1" source="thzycsS28JE1chbCBtaL-33" target="thzycsS28JE1chbCBtaL-36" edge="1">
          <mxGeometry relative="1" as="geometry" />
        </mxCell>
        <mxCell id="thzycsS28JE1chbCBtaL-33" value="&lt;font color=&quot;#000000&quot;&gt;问题整改&lt;/font&gt;" style="whiteSpace=wrap;html=1;rounded=1;fontColor=#ffffff;strokeWidth=2;arcSize=14;fillColor=#FFFFFF;" parent="gH0qHTAtDWhJT-xF3Wil-1" vertex="1">
          <mxGeometry x="694.5" y="1280" width="85" height="60" as="geometry" />
        </mxCell>
        <mxCell id="thzycsS28JE1chbCBtaL-34" style="edgeStyle=orthogonalEdgeStyle;rounded=1;sketch=0;orthogonalLoop=1;jettySize=auto;html=1;entryX=1;entryY=0.5;entryDx=0;entryDy=0;" parent="gH0qHTAtDWhJT-xF3Wil-1" source="thzycsS28JE1chbCBtaL-36" target="thzycsS28JE1chbCBtaL-33" edge="1">
          <mxGeometry relative="1" as="geometry">
            <Array as="points">
              <mxPoint x="737" y="1439" />
              <mxPoint x="847" y="1439" />
              <mxPoint x="847" y="1310" />
            </Array>
          </mxGeometry>
        </mxCell>
        <mxCell id="thzycsS28JE1chbCBtaL-35" value="否" style="edgeLabel;html=1;align=center;verticalAlign=middle;resizable=0;points=[];" parent="thzycsS28JE1chbCBtaL-34" vertex="1" connectable="0">
          <mxGeometry x="0.2129" y="3" relative="1" as="geometry">
            <mxPoint as="offset" />
          </mxGeometry>
        </mxCell>
        <mxCell id="thzycsS28JE1chbCBtaL-36" value="&lt;font style=&quot;font-size: 9px&quot;&gt;是否整改完成&lt;/font&gt;" style="rhombus;whiteSpace=wrap;html=1;rounded=1;strokeWidth=2;fillColor=#f0a30a;arcSize=14;strokeColor=#BD7000;fontColor=#ffffff;" parent="gH0qHTAtDWhJT-xF3Wil-1" vertex="1">
          <mxGeometry x="697" y="1399" width="80" height="80" as="geometry" />
        </mxCell>
        <mxCell id="thzycsS28JE1chbCBtaL-37" value="是" style="edgeStyle=orthogonalEdgeStyle;rounded=1;sketch=0;orthogonalLoop=1;jettySize=auto;html=1;" parent="gH0qHTAtDWhJT-xF3Wil-1" source="thzycsS28JE1chbCBtaL-36" edge="1">
          <mxGeometry relative="1" as="geometry">
            <mxPoint x="737" y="1530" as="targetPoint" />
          </mxGeometry>
        </mxCell>
        <mxCell id="thzycsS28JE1chbCBtaL-38" style="edgeStyle=orthogonalEdgeStyle;rounded=1;sketch=0;orthogonalLoop=1;jettySize=auto;html=1;entryX=0;entryY=0.5;entryDx=0;entryDy=0;" parent="gH0qHTAtDWhJT-xF3Wil-1" source="thzycsS28JE1chbCBtaL-29" target="thzycsS28JE1chbCBtaL-33" edge="1">
          <mxGeometry relative="1" as="geometry">
            <Array as="points">
              <mxPoint x="421" y="1310" />
            </Array>
          </mxGeometry>
        </mxCell>
        <mxCell id="thzycsS28JE1chbCBtaL-39" style="edgeStyle=orthogonalEdgeStyle;rounded=1;sketch=0;orthogonalLoop=1;jettySize=auto;html=1;entryX=0.5;entryY=0;entryDx=0;entryDy=0;" parent="gH0qHTAtDWhJT-xF3Wil-1" source="thzycsS28JE1chbCBtaL-7" target="thzycsS28JE1chbCBtaL-18" edge="1">
          <mxGeometry relative="1" as="geometry" />
        </mxCell>
        <mxCell id="thzycsS28JE1chbCBtaL-40" value="" style="edgeStyle=orthogonalEdgeStyle;rounded=1;sketch=0;orthogonalLoop=1;jettySize=auto;html=1;entryX=0.5;entryY=0;entryDx=0;entryDy=0;" parent="gH0qHTAtDWhJT-xF3Wil-1" source="thzycsS28JE1chbCBtaL-13" target="thzycsS28JE1chbCBtaL-18" edge="1">
          <mxGeometry relative="1" as="geometry">
            <Array as="points">
              <mxPoint x="737" y="670" />
              <mxPoint x="381" y="670" />
            </Array>
          </mxGeometry>
        </mxCell>
        <mxCell id="thzycsS28JE1chbCBtaL-41" value="否" style="edgeLabel;html=1;align=center;verticalAlign=middle;resizable=0;points=[];" parent="thzycsS28JE1chbCBtaL-40" vertex="1" connectable="0">
          <mxGeometry x="-0.0482" relative="1" as="geometry">
            <mxPoint as="offset" />
          </mxGeometry>
        </mxCell>
        <mxCell id="thzycsS28JE1chbCBtaL-42" style="edgeStyle=orthogonalEdgeStyle;rounded=1;orthogonalLoop=1;jettySize=auto;html=1;fontSize=15;fontColor=#000000;" parent="gH0qHTAtDWhJT-xF3Wil-1" source="thzycsS28JE1chbCBtaL-12" edge="1">
          <mxGeometry relative="1" as="geometry">
            <mxPoint x="736.3400000000001" y="500" as="targetPoint" />
          </mxGeometry>
        </mxCell>
        <mxCell id="gH0qHTAtDWhJT-xF3Wil-2" value="&lt;span style=&quot;font-size: 15px;&quot;&gt;基础运营平台第三方系统部署阶段详细流程&lt;/span&gt;" style="shape=table;html=1;whiteSpace=wrap;startSize=50;container=1;collapsible=0;childLayout=tableLayout;fontStyle=1;align=center;rounded=0;sketch=0;fontSize=15;" parent="gH0qHTAtDWhJT-xF3Wil-1" vertex="1">
          <mxGeometry x="226" y="100" width="660" height="1510" as="geometry" />
        </mxCell>
        <mxCell id="gH0qHTAtDWhJT-xF3Wil-3" value="" style="shape=partialRectangle;html=1;whiteSpace=wrap;collapsible=0;dropTarget=0;pointerEvents=0;fillColor=none;top=0;left=0;bottom=0;right=0;points=[[0,0.5],[1,0.5]];portConstraint=eastwest;" parent="gH0qHTAtDWhJT-xF3Wil-2" vertex="1">
          <mxGeometry y="50" width="660" height="1460" as="geometry" />
        </mxCell>
        <mxCell id="gH0qHTAtDWhJT-xF3Wil-4" value="" style="shape=partialRectangle;html=1;whiteSpace=wrap;connectable=0;fillColor=none;top=0;left=0;bottom=0;right=0;overflow=hidden;" parent="gH0qHTAtDWhJT-xF3Wil-3" vertex="1">
          <mxGeometry width="330" height="1460" as="geometry" />
        </mxCell>
        <mxCell id="gH0qHTAtDWhJT-xF3Wil-5" value="" style="shape=partialRectangle;html=1;whiteSpace=wrap;connectable=0;fillColor=none;top=0;left=0;bottom=0;right=0;overflow=hidden;fontSize=15;" parent="gH0qHTAtDWhJT-xF3Wil-3" vertex="1">
          <mxGeometry x="330" width="330" height="1460" as="geometry" />
        </mxCell>
        <mxCell id="bmAf9HXGwDmyaMlnn82C-0" value="结束" style="strokeWidth=2;html=1;shape=mxgraph.flowchart.terminator;whiteSpace=wrap;fillColor=#60a917;strokeColor=#2D7600;fontColor=#ffffff;" parent="gH0qHTAtDWhJT-xF3Wil-1" vertex="1">
          <mxGeometry x="696" y="1530" width="80" height="50" as="geometry" />
        </mxCell>
        <mxCell id="q_dT0iBnG8xTgIaHVfGX-0" value="基础运营平台" style="text;fillColor=#d5e8d4;html=1;fontSize=20;fontStyle=1;verticalAlign=middle;align=center;rounded=0;sketch=0;strokeColor=#82b366;" parent="gH0qHTAtDWhJT-xF3Wil-1" vertex="1">
          <mxGeometry x="226" y="150" width="330" height="40" as="geometry" />
        </mxCell>
        <mxCell id="q_dT0iBnG8xTgIaHVfGX-1" value="项目实施方" style="text;fillColor=#fff2cc;html=1;fontSize=20;fontStyle=1;verticalAlign=middle;align=center;rounded=0;sketch=0;strokeColor=#d6b656;" parent="gH0qHTAtDWhJT-xF3Wil-1" vertex="1">
          <mxGeometry x="556" y="150" width="330" height="40" as="geometry" />
        </mxCell>
      </root>
    </mxGraphModel>
  </diagram>
</mxfile>
